<svg width="290" height="444" viewBox="0 0 290 444" fill="none" xmlns="http://www.w3.org/2000/svg">
<rect width="288" height="305" rx="3" fill="#F5F5F5"/>
<path d="M11.1606 339.825C11.0679 340.765 10.8143 341.56 10.3999 342.209C9.98551 342.859 9.42887 343.351 8.72998 343.685C8.03727 344.019 7.21468 344.186 6.26221 344.186C5.25407 344.186 4.37581 343.935 3.62744 343.434C2.88525 342.933 2.30697 342.231 1.89258 341.328C1.48438 340.425 1.28027 339.374 1.28027 338.174V336.318C1.28027 335.118 1.48438 334.07 1.89258 333.173C2.30697 332.27 2.89144 331.568 3.646 331.067C4.40055 330.56 5.28809 330.307 6.30859 330.307C7.23633 330.307 8.04655 330.474 8.73926 330.808C9.43815 331.135 9.9917 331.624 10.3999 332.273C10.8143 332.923 11.0679 333.721 11.1606 334.667H10.335C10.1989 333.498 9.79688 332.601 9.12891 331.977C8.46712 331.352 7.52702 331.04 6.30859 331.04C5.45508 331.04 4.71289 331.259 4.08203 331.698C3.45117 332.137 2.96257 332.75 2.61621 333.535C2.27604 334.321 2.10596 335.242 2.10596 336.3V338.174C2.10596 339.213 2.27295 340.131 2.60693 340.929C2.9471 341.721 3.42643 342.339 4.04492 342.785C4.6696 343.23 5.40869 343.453 6.26221 343.453C7.07861 343.453 7.77132 343.323 8.34033 343.063C8.91553 342.797 9.36702 342.395 9.69482 341.857C10.0288 341.319 10.2422 340.642 10.335 339.825H11.1606ZM13.7253 338.805C13.7253 337.827 13.9108 336.962 14.2819 336.207C14.653 335.452 15.1694 334.859 15.8312 334.426C16.4992 333.993 17.2754 333.776 18.1598 333.776C19.0567 333.776 19.836 333.993 20.4977 334.426C21.1657 334.859 21.6821 335.452 22.0471 336.207C22.4181 336.962 22.6037 337.827 22.6037 338.805V339.157C22.6037 340.128 22.4181 340.994 22.0471 341.755C21.6821 342.516 21.1688 343.112 20.507 343.545C19.8452 343.972 19.069 344.186 18.1784 344.186C17.2878 344.186 16.5085 343.972 15.8405 343.545C15.1725 343.112 14.653 342.516 14.2819 341.755C13.9108 340.994 13.7253 340.128 13.7253 339.157V338.805ZM14.5324 339.157C14.5324 339.918 14.6747 340.626 14.9592 341.282C15.2437 341.937 15.655 342.466 16.193 342.868C16.7373 343.264 17.3991 343.462 18.1784 343.462C18.9515 343.462 19.6071 343.264 20.1452 342.868C20.6833 342.466 21.0915 341.937 21.3698 341.282C21.6543 340.626 21.7966 339.918 21.7966 339.157V338.805C21.7966 338.05 21.6543 337.348 21.3698 336.699C21.0853 336.043 20.674 335.514 20.1359 335.112C19.5978 334.704 18.9391 334.5 18.1598 334.5C17.3929 334.5 16.7373 334.704 16.193 335.112C15.655 335.514 15.2437 336.043 14.9592 336.699C14.6747 337.348 14.5324 338.05 14.5324 338.805V339.157ZM26.4764 344H25.6693V329.75H26.4764V344ZM33.958 344.186C33.1169 344.186 32.3593 343.975 31.6851 343.555C31.0109 343.128 30.479 342.54 30.0894 341.792C29.6997 341.044 29.5049 340.19 29.5049 339.231V338.823C29.5049 337.821 29.6997 336.94 30.0894 336.179C30.479 335.418 30.9955 334.828 31.6387 334.407C32.2881 333.987 32.9963 333.776 33.7632 333.776C34.5611 333.776 35.2507 333.965 35.8321 334.342C36.4196 334.72 36.8711 335.242 37.1866 335.91C37.502 336.572 37.6597 337.342 37.6597 338.22V338.851H30.0059V338.127H36.8526V338.007C36.8464 337.388 36.7196 336.813 36.4722 336.281C36.231 335.749 35.8815 335.319 35.4239 334.992C34.9724 334.664 34.4188 334.5 33.7632 334.5C33.0829 334.5 32.4829 334.689 31.9634 335.066C31.4439 335.443 31.0388 335.96 30.7481 336.615C30.4574 337.265 30.312 338.001 30.312 338.823V339.231C30.312 340.017 30.4698 340.731 30.7852 341.375C31.1068 342.012 31.5428 342.522 32.0933 342.905C32.6438 343.283 33.2746 343.471 33.9859 343.471C34.5673 343.471 35.0961 343.369 35.5723 343.165C36.0547 342.961 36.4908 342.605 36.8804 342.098L37.3999 342.488C37.0721 342.964 36.6299 343.366 36.0733 343.694C35.5166 344.022 34.8116 344.186 33.958 344.186ZM41.4211 344H40.614V333.962H41.4211V344ZM40.382 330.947C40.382 330.767 40.4408 330.616 40.5583 330.492C40.6758 330.368 40.8305 330.307 41.0222 330.307C41.2077 330.307 41.3593 330.368 41.4768 330.492C41.6005 330.616 41.6623 330.767 41.6623 330.947C41.6623 331.114 41.6005 331.259 41.4768 331.383C41.3593 331.5 41.2077 331.559 41.0222 331.559C40.8305 331.559 40.6758 331.5 40.5583 331.383C40.4408 331.259 40.382 331.114 40.382 330.947ZM45.9618 344H45.1547V333.962H45.9525L45.9618 335.669V344ZM49.6913 334.611C49.58 334.593 49.4656 334.58 49.348 334.574C49.2367 334.562 49.1192 334.556 48.9955 334.556C48.2966 334.556 47.7152 334.732 47.2514 335.084C46.7875 335.431 46.435 335.901 46.1937 336.495C45.9587 337.082 45.835 337.735 45.8227 338.452L45.4516 338.545C45.4516 337.636 45.5784 336.822 45.8319 336.105C46.0917 335.388 46.4844 334.822 47.0102 334.407C47.5359 333.987 48.2038 333.776 49.0141 333.776C49.1563 333.776 49.2924 333.789 49.4223 333.813C49.5521 333.832 49.6542 333.857 49.7284 333.888L49.6913 334.611ZM57.9615 336.977C57.9615 336.198 57.7172 335.589 57.2286 335.149C56.74 334.71 56.0411 334.491 55.1319 334.491C54.5753 334.491 54.0712 334.59 53.6197 334.788C53.1744 334.986 52.8249 335.255 52.5714 335.595C52.3178 335.935 52.191 336.312 52.191 336.727L51.3839 336.717C51.3839 336.204 51.5416 335.725 51.857 335.279C52.1786 334.834 52.6239 334.472 53.1929 334.194C53.762 333.916 54.4176 333.776 55.1597 333.776C55.8648 333.776 56.4895 333.897 57.0338 334.138C57.578 334.373 58.0017 334.729 58.3048 335.205C58.614 335.681 58.7686 336.278 58.7686 336.996V341.94C58.7686 342.293 58.7934 342.655 58.8428 343.026C58.8923 343.391 58.9604 343.681 59.047 343.898V344H58.1656C58.0976 343.771 58.045 343.487 58.0079 343.146C57.977 342.806 57.9615 342.475 57.9615 342.154V336.977ZM58.2213 338.962H55.8277C54.6093 338.962 53.6537 339.182 52.961 339.621C52.2745 340.06 51.9312 340.642 51.9312 341.365C51.9312 341.94 52.1508 342.432 52.5899 342.84C53.0352 343.249 53.6228 343.453 54.3526 343.453C55.0144 343.453 55.5989 343.338 56.106 343.109C56.6132 342.874 57.0369 342.559 57.377 342.163C57.7234 341.767 57.9739 341.316 58.1285 340.809L58.481 341.356C58.3821 341.684 58.2213 342.015 57.9986 342.349C57.776 342.676 57.4884 342.979 57.1358 343.258C56.7895 343.536 56.3782 343.762 55.9019 343.935C55.4319 344.102 54.8938 344.186 54.2877 344.186C53.6506 344.186 53.094 344.068 52.6178 343.833C52.1415 343.592 51.7735 343.261 51.5137 342.84C51.254 342.414 51.1241 341.934 51.1241 341.402C51.1241 340.456 51.5323 339.698 52.3487 339.129C53.1713 338.56 54.3 338.276 55.7349 338.276H58.2027L58.2213 338.962ZM71.1528 343.462C71.6476 343.462 72.1145 343.372 72.5536 343.193C72.999 343.007 73.367 342.726 73.6577 342.349C73.9545 341.971 74.1215 341.498 74.1586 340.929H74.9379C74.907 341.585 74.7153 342.157 74.3627 342.646C74.0102 343.134 73.5525 343.514 72.9897 343.787C72.433 344.053 71.8207 344.186 71.1528 344.186C70.2498 344.186 69.4859 343.969 68.8613 343.536C68.2366 343.097 67.7634 342.5 67.4418 341.746C67.1202 340.991 66.9594 340.134 66.9594 339.176V338.786C66.9594 337.821 67.1202 336.965 67.4418 336.216C67.7634 335.462 68.2335 334.868 68.852 334.435C69.4767 333.996 70.2374 333.776 71.1342 333.776C71.8207 333.776 72.4454 333.916 73.0082 334.194C73.5711 334.466 74.0257 334.868 74.372 335.4C74.7184 335.926 74.907 336.563 74.9379 337.311H74.1586C74.1277 336.705 73.97 336.195 73.6855 335.78C73.4072 335.36 73.0423 335.041 72.5908 334.825C72.1454 334.608 71.6599 334.5 71.1342 334.5C70.3487 334.5 69.7055 334.698 69.2045 335.094C68.7097 335.483 68.3448 336.003 68.1098 336.652C67.881 337.302 67.7665 338.013 67.7665 338.786V339.176C67.7665 339.949 67.881 340.663 68.1098 341.319C68.3448 341.968 68.7097 342.488 69.2045 342.877C69.7055 343.267 70.3549 343.462 71.1528 343.462ZM77.1964 338.805C77.1964 337.827 77.382 336.962 77.753 336.207C78.1241 335.452 78.6406 334.859 79.3024 334.426C79.9703 333.993 80.7465 333.776 81.631 333.776C82.5278 333.776 83.3071 333.993 83.9689 334.426C84.6368 334.859 85.1533 335.452 85.5182 336.207C85.8893 336.962 86.0748 337.827 86.0748 338.805V339.157C86.0748 340.128 85.8893 340.994 85.5182 341.755C85.1533 342.516 84.6399 343.112 83.9781 343.545C83.3164 343.972 82.5402 344.186 81.6495 344.186C80.7589 344.186 79.9796 343.972 79.3116 343.545C78.6437 343.112 78.1241 342.516 77.753 341.755C77.382 340.994 77.1964 340.128 77.1964 339.157V338.805ZM78.0035 339.157C78.0035 339.918 78.1458 340.626 78.4303 341.282C78.7148 341.937 79.1261 342.466 79.6642 342.868C80.2084 343.264 80.8702 343.462 81.6495 343.462C82.4226 343.462 83.0782 343.264 83.6163 342.868C84.1544 342.466 84.5626 341.937 84.8409 341.282C85.1254 340.626 85.2677 339.918 85.2677 339.157V338.805C85.2677 338.05 85.1254 337.348 84.8409 336.699C84.5564 336.043 84.1451 335.514 83.607 335.112C83.069 334.704 82.4103 334.5 81.631 334.5C80.864 334.5 80.2084 334.704 79.6642 335.112C79.1261 335.514 78.7148 336.043 78.4303 336.699C78.1458 337.348 78.0035 338.05 78.0035 338.805V339.157ZM89.9476 344H89.1404V329.75H89.9476V344ZM97.4292 344.186C96.588 344.186 95.8304 343.975 95.1562 343.555C94.4821 343.128 93.9502 342.54 93.5605 341.792C93.1709 341.044 92.9761 340.19 92.9761 339.231V338.823C92.9761 337.821 93.1709 336.94 93.5605 336.179C93.9502 335.418 94.4666 334.828 95.1098 334.407C95.7593 333.987 96.4674 333.776 97.2344 333.776C98.0322 333.776 98.7218 333.965 99.3032 334.342C99.8908 334.72 100.342 335.242 100.658 335.91C100.973 336.572 101.131 337.342 101.131 338.22V338.851H93.477V338.127H100.324V338.007C100.318 337.388 100.191 336.813 99.9433 336.281C99.7021 335.749 99.3527 335.319 98.895 334.992C98.4435 334.664 97.89 334.5 97.2344 334.5C96.554 334.5 95.9541 334.689 95.4345 335.066C94.915 335.443 94.5099 335.96 94.2192 336.615C93.9285 337.265 93.7832 338.001 93.7832 338.823V339.231C93.7832 340.017 93.9409 340.731 94.2563 341.375C94.5779 342.012 95.014 342.522 95.5644 342.905C96.1149 343.283 96.7457 343.471 97.457 343.471C98.0384 343.471 98.5672 343.369 99.0434 343.165C99.5259 342.961 99.9619 342.605 100.352 342.098L100.871 342.488C100.543 342.964 100.101 343.366 99.5444 343.694C98.9878 344.022 98.2827 344.186 97.4292 344.186ZM107.518 343.462C108.013 343.462 108.479 343.372 108.919 343.193C109.364 343.007 109.732 342.726 110.023 342.349C110.319 341.971 110.486 341.498 110.524 340.929H111.303C111.272 341.585 111.08 342.157 110.728 342.646C110.375 343.134 109.917 343.514 109.355 343.787C108.798 344.053 108.186 344.186 107.518 344.186C106.615 344.186 105.851 343.969 105.226 343.536C104.602 343.097 104.128 342.5 103.807 341.746C103.485 340.991 103.324 340.134 103.324 339.176V338.786C103.324 337.821 103.485 336.965 103.807 336.216C104.128 335.462 104.598 334.868 105.217 334.435C105.842 333.996 106.602 333.776 107.499 333.776C108.186 333.776 108.81 333.916 109.373 334.194C109.936 334.466 110.391 334.868 110.737 335.4C111.083 335.926 111.272 336.563 111.303 337.311H110.524C110.493 336.705 110.335 336.195 110.05 335.78C109.772 335.36 109.407 335.041 108.956 334.825C108.51 334.608 108.025 334.5 107.499 334.5C106.714 334.5 106.07 334.698 105.569 335.094C105.075 335.483 104.71 336.003 104.475 336.652C104.246 337.302 104.132 338.013 104.132 338.786V339.176C104.132 339.949 104.246 340.663 104.475 341.319C104.71 341.968 105.075 342.488 105.569 342.877C106.07 343.267 106.72 343.462 107.518 343.462ZM107.842 344.093L107.731 344.742C108.133 344.792 108.498 344.928 108.826 345.15C109.154 345.373 109.318 345.763 109.318 346.319C109.318 346.864 109.079 347.3 108.603 347.627C108.133 347.961 107.478 348.128 106.636 348.128L106.571 347.544C106.893 347.544 107.208 347.501 107.518 347.414C107.827 347.334 108.084 347.204 108.288 347.024C108.498 346.845 108.603 346.613 108.603 346.329C108.603 345.945 108.461 345.682 108.176 345.54C107.898 345.404 107.478 345.305 106.915 345.243L107.165 344.093H107.842ZM120.454 336.977C120.454 336.198 120.21 335.589 119.722 335.149C119.233 334.71 118.534 334.491 117.625 334.491C117.068 334.491 116.564 334.59 116.113 334.788C115.667 334.986 115.318 335.255 115.064 335.595C114.811 335.935 114.684 336.312 114.684 336.727L113.877 336.717C113.877 336.204 114.035 335.725 114.35 335.279C114.672 334.834 115.117 334.472 115.686 334.194C116.255 333.916 116.91 333.776 117.653 333.776C118.358 333.776 118.982 333.897 119.527 334.138C120.071 334.373 120.495 334.729 120.798 335.205C121.107 335.681 121.262 336.278 121.262 336.996V341.94C121.262 342.293 121.286 342.655 121.336 343.026C121.385 343.391 121.453 343.681 121.54 343.898V344H120.659C120.591 343.771 120.538 343.487 120.501 343.146C120.47 342.806 120.454 342.475 120.454 342.154V336.977ZM120.714 338.962H118.321C117.102 338.962 116.147 339.182 115.454 339.621C114.767 340.06 114.424 340.642 114.424 341.365C114.424 341.94 114.644 342.432 115.083 342.84C115.528 343.249 116.116 343.453 116.846 343.453C117.507 343.453 118.092 343.338 118.599 343.109C119.106 342.874 119.53 342.559 119.87 342.163C120.216 341.767 120.467 341.316 120.621 340.809L120.974 341.356C120.875 341.684 120.714 342.015 120.492 342.349C120.269 342.676 119.981 342.979 119.629 343.258C119.282 343.536 118.871 343.762 118.395 343.935C117.925 344.102 117.387 344.186 116.781 344.186C116.144 344.186 115.587 344.068 115.111 343.833C114.634 343.592 114.266 343.261 114.007 342.84C113.747 342.414 113.617 341.934 113.617 341.402C113.617 340.456 114.025 339.698 114.842 339.129C115.664 338.56 116.793 338.276 118.228 338.276H120.696L120.714 338.962ZM121.187 330.167C121.187 330.539 121.11 330.863 120.955 331.142C120.807 331.414 120.603 331.63 120.343 331.791C120.083 331.946 119.793 332.023 119.471 332.023C119.137 332.023 118.862 331.967 118.645 331.856C118.435 331.745 118.243 331.618 118.07 331.476C117.903 331.333 117.724 331.207 117.532 331.095C117.347 330.984 117.118 330.928 116.846 330.928C116.549 330.928 116.295 331.027 116.085 331.225C115.881 331.417 115.779 331.695 115.779 332.06L115.101 332.042C115.101 331.677 115.179 331.358 115.333 331.086C115.488 330.814 115.695 330.604 115.955 330.455C116.215 330.307 116.505 330.232 116.827 330.232C117.136 330.232 117.399 330.288 117.616 330.399C117.832 330.505 118.03 330.631 118.209 330.78C118.395 330.922 118.584 331.049 118.775 331.16C118.967 331.265 119.19 331.318 119.443 331.318C119.74 331.318 119.994 331.213 120.204 331.002C120.414 330.792 120.519 330.505 120.519 330.14L121.187 330.167ZM124.244 338.805C124.244 337.827 124.429 336.962 124.8 336.207C125.171 335.452 125.688 334.859 126.35 334.426C127.018 333.993 127.794 333.776 128.678 333.776C129.575 333.776 130.354 333.993 131.016 334.426C131.684 334.859 132.201 335.452 132.565 336.207C132.937 336.962 133.122 337.827 133.122 338.805V339.157C133.122 340.128 132.937 340.994 132.565 341.755C132.201 342.516 131.687 343.112 131.025 343.545C130.364 343.972 129.587 344.186 128.697 344.186C127.806 344.186 127.027 343.972 126.359 343.545C125.691 343.112 125.171 342.516 124.8 341.755C124.429 340.994 124.244 340.128 124.244 339.157V338.805ZM125.051 339.157C125.051 339.918 125.193 340.626 125.478 341.282C125.762 341.937 126.173 342.466 126.711 342.868C127.256 343.264 127.918 343.462 128.697 343.462C129.47 343.462 130.126 343.264 130.664 342.868C131.202 342.466 131.61 341.937 131.888 341.282C132.173 340.626 132.315 339.918 132.315 339.157V338.805C132.315 338.05 132.173 337.348 131.888 336.699C131.604 336.043 131.192 335.514 130.654 335.112C130.116 334.704 129.458 334.5 128.678 334.5C127.911 334.5 127.256 334.704 126.711 335.112C126.173 335.514 125.762 336.043 125.478 336.699C125.193 337.348 125.051 338.05 125.051 338.805V339.157ZM149.338 340.716C149.338 340.184 149.214 339.729 148.967 339.352C148.725 338.969 148.317 338.632 147.742 338.341C147.167 338.044 146.391 337.763 145.413 337.497C144.733 337.305 144.118 337.101 143.567 336.884C143.023 336.662 142.556 336.408 142.166 336.124C141.783 335.833 141.489 335.493 141.285 335.103C141.081 334.707 140.979 334.24 140.979 333.702C140.979 333.009 141.174 332.41 141.563 331.902C141.953 331.395 142.488 331.002 143.168 330.724C143.849 330.446 144.622 330.307 145.488 330.307C146.397 330.307 147.192 330.48 147.872 330.826C148.558 331.173 149.093 331.649 149.477 332.255C149.86 332.855 150.052 333.541 150.052 334.314H149.226C149.226 333.69 149.075 333.13 148.772 332.635C148.469 332.14 148.039 331.751 147.482 331.466C146.926 331.182 146.261 331.04 145.488 331.04C144.69 331.04 144.016 331.163 143.465 331.411C142.921 331.652 142.507 331.973 142.222 332.375C141.944 332.771 141.805 333.207 141.805 333.684C141.805 334.135 141.919 334.543 142.148 334.908C142.377 335.273 142.769 335.607 143.326 335.91C143.889 336.207 144.668 336.485 145.664 336.745C146.585 336.993 147.383 337.283 148.057 337.617C148.732 337.945 149.251 338.356 149.616 338.851C149.987 339.34 150.173 339.955 150.173 340.697C150.173 341.433 149.969 342.064 149.56 342.59C149.152 343.109 148.599 343.505 147.9 343.777C147.207 344.049 146.428 344.186 145.562 344.186C144.974 344.186 144.384 344.114 143.79 343.972C143.196 343.824 142.655 343.592 142.166 343.276C141.678 342.961 141.285 342.547 140.988 342.033C140.691 341.52 140.543 340.895 140.543 340.159H141.369C141.369 340.784 141.495 341.306 141.749 341.727C142.002 342.148 142.336 342.485 142.751 342.738C143.165 342.992 143.617 343.174 144.105 343.286C144.6 343.397 145.086 343.453 145.562 343.453C146.31 343.453 146.966 343.338 147.529 343.109C148.098 342.874 148.54 342.553 148.855 342.145C149.177 341.736 149.338 341.26 149.338 340.716ZM156.587 343.462C157.082 343.462 157.549 343.372 157.988 343.193C158.434 343.007 158.802 342.726 159.092 342.349C159.389 341.971 159.556 341.498 159.593 340.929H160.373C160.342 341.585 160.15 342.157 159.797 342.646C159.445 343.134 158.987 343.514 158.424 343.787C157.868 344.053 157.255 344.186 156.587 344.186C155.684 344.186 154.921 343.969 154.296 343.536C153.671 343.097 153.198 342.5 152.877 341.746C152.555 340.991 152.394 340.134 152.394 339.176V338.786C152.394 337.821 152.555 336.965 152.877 336.216C153.198 335.462 153.668 334.868 154.287 334.435C154.911 333.996 155.672 333.776 156.569 333.776C157.255 333.776 157.88 333.916 158.443 334.194C159.006 334.466 159.46 334.868 159.807 335.4C160.153 335.926 160.342 336.563 160.373 337.311H159.593C159.562 336.705 159.405 336.195 159.12 335.78C158.842 335.36 158.477 335.041 158.025 334.825C157.58 334.608 157.095 334.5 156.569 334.5C155.783 334.5 155.14 334.698 154.639 335.094C154.144 335.483 153.78 336.003 153.544 336.652C153.316 337.302 153.201 338.013 153.201 338.786V339.176C153.201 339.949 153.316 340.663 153.544 341.319C153.78 341.968 154.144 342.488 154.639 342.877C155.14 343.267 155.79 343.462 156.587 343.462ZM162.631 338.805C162.631 337.827 162.817 336.962 163.188 336.207C163.559 335.452 164.075 334.859 164.737 334.426C165.405 333.993 166.181 333.776 167.066 333.776C167.962 333.776 168.742 333.993 169.404 334.426C170.072 334.859 170.588 335.452 170.953 336.207C171.324 336.962 171.51 337.827 171.51 338.805V339.157C171.51 340.128 171.324 340.994 170.953 341.755C170.588 342.516 170.075 343.112 169.413 343.545C168.751 343.972 167.975 344.186 167.084 344.186C166.194 344.186 165.414 343.972 164.746 343.545C164.078 343.112 163.559 342.516 163.188 341.755C162.817 340.994 162.631 340.128 162.631 339.157V338.805ZM163.438 339.157C163.438 339.918 163.58 340.626 163.865 341.282C164.149 341.937 164.561 342.466 165.099 342.868C165.643 343.264 166.305 343.462 167.084 343.462C167.857 343.462 168.513 343.264 169.051 342.868C169.589 342.466 169.997 341.937 170.276 341.282C170.56 340.626 170.702 339.918 170.702 339.157V338.805C170.702 338.05 170.56 337.348 170.276 336.699C169.991 336.043 169.58 335.514 169.042 335.112C168.504 334.704 167.845 334.5 167.066 334.5C166.299 334.5 165.643 334.704 165.099 335.112C164.561 335.514 164.149 336.043 163.865 336.699C163.58 337.348 163.438 338.05 163.438 338.805V339.157ZM173.759 338.805C173.759 337.827 173.944 336.962 174.315 336.207C174.686 335.452 175.203 334.859 175.865 334.426C176.533 333.993 177.309 333.776 178.193 333.776C179.09 333.776 179.869 333.993 180.531 334.426C181.199 334.859 181.716 335.452 182.08 336.207C182.452 336.962 182.637 337.827 182.637 338.805V339.157C182.637 340.128 182.452 340.994 182.08 341.755C181.716 342.516 181.202 343.112 180.54 343.545C179.879 343.972 179.102 344.186 178.212 344.186C177.321 344.186 176.542 343.972 175.874 343.545C175.206 343.112 174.686 342.516 174.315 341.755C173.944 340.994 173.759 340.128 173.759 339.157V338.805ZM174.566 339.157C174.566 339.918 174.708 340.626 174.993 341.282C175.277 341.937 175.688 342.466 176.226 342.868C176.771 343.264 177.433 343.462 178.212 343.462C178.985 343.462 179.641 343.264 180.179 342.868C180.717 342.466 181.125 341.937 181.403 341.282C181.688 340.626 181.83 339.918 181.83 339.157V338.805C181.83 338.05 181.688 337.348 181.403 336.699C181.119 336.043 180.707 335.514 180.169 335.112C179.631 334.704 178.973 334.5 178.193 334.5C177.426 334.5 176.771 334.704 176.226 335.112C175.688 335.514 175.277 336.043 174.993 336.699C174.708 337.348 174.566 338.05 174.566 338.805V339.157ZM186.361 329.75V342.052L186.334 344H185.564V329.75H186.361ZM193.449 339.074C193.449 340.088 193.301 340.979 193.004 341.746C192.707 342.513 192.274 343.112 191.705 343.545C191.136 343.972 190.453 344.186 189.655 344.186C188.876 344.186 188.211 344.034 187.66 343.731C187.11 343.422 186.671 343.007 186.343 342.488C186.021 341.968 185.808 341.39 185.703 340.753V337.45C185.839 336.733 186.071 336.099 186.399 335.548C186.726 334.998 187.156 334.565 187.688 334.25C188.226 333.934 188.876 333.776 189.636 333.776C190.447 333.776 191.133 333.984 191.696 334.398C192.265 334.812 192.698 335.403 192.995 336.17C193.298 336.931 193.449 337.834 193.449 338.879V339.074ZM192.633 338.879C192.633 338.044 192.522 337.299 192.299 336.643C192.082 335.981 191.745 335.462 191.288 335.084C190.836 334.701 190.252 334.509 189.534 334.509C188.953 334.509 188.461 334.605 188.059 334.797C187.663 334.989 187.336 335.239 187.076 335.548C186.822 335.851 186.624 336.179 186.482 336.532C186.34 336.884 186.235 337.218 186.167 337.534V340.744C186.272 341.232 186.463 341.681 186.742 342.089C187.02 342.497 187.391 342.828 187.855 343.082C188.319 343.329 188.885 343.453 189.553 343.453C190.258 343.453 190.836 343.261 191.288 342.877C191.745 342.494 192.082 341.974 192.299 341.319C192.522 340.663 192.633 339.915 192.633 339.074V338.879ZM202.972 333.962H203.844L199.493 345.642C199.406 345.859 199.301 346.106 199.178 346.384C199.054 346.663 198.89 346.929 198.686 347.182C198.488 347.436 198.231 347.643 197.916 347.804C197.607 347.971 197.223 348.054 196.765 348.054C196.691 348.054 196.602 348.048 196.496 348.036C196.391 348.023 196.289 348.008 196.19 347.989C196.091 347.977 196.017 347.961 195.968 347.943L195.958 347.247C196.039 347.266 196.147 347.281 196.283 347.293C196.425 347.312 196.524 347.321 196.58 347.321C197.192 347.321 197.659 347.151 197.981 346.811C198.309 346.471 198.578 346.004 198.788 345.41L199.669 343.017L202.972 333.962ZM199.818 342.998L200.04 343.824L199.437 344.195L195.439 333.962H196.32L199.818 342.998ZM209.628 338.285H205.221V337.571H209.628V338.285ZM213.157 344L213.176 343.267H216.33C217.301 343.267 218.152 343.041 218.881 342.59C219.617 342.138 220.193 341.517 220.607 340.725C221.021 339.927 221.229 339.009 221.229 337.97V336.495C221.229 335.449 221.021 334.534 220.607 333.749C220.193 332.957 219.621 332.338 218.891 331.893C218.161 331.448 217.32 331.225 216.367 331.225H213.102V330.492H216.367C217.462 330.492 218.436 330.746 219.29 331.253C220.143 331.754 220.814 332.456 221.303 333.359C221.798 334.262 222.045 335.316 222.045 336.522V337.97C222.045 339.176 221.798 340.23 221.303 341.133C220.814 342.036 220.14 342.741 219.28 343.249C218.427 343.75 217.443 344 216.33 344H213.157ZM213.436 344H212.61V330.492H213.436V344ZM224.684 338.805C224.684 337.827 224.869 336.962 225.241 336.207C225.612 335.452 226.128 334.859 226.79 334.426C227.458 333.993 228.234 333.776 229.118 333.776C230.015 333.776 230.795 333.993 231.456 334.426C232.124 334.859 232.641 335.452 233.006 336.207C233.377 336.962 233.562 337.827 233.562 338.805V339.157C233.562 340.128 233.377 340.994 233.006 341.755C232.641 342.516 232.127 343.112 231.466 343.545C230.804 343.972 230.028 344.186 229.137 344.186C228.246 344.186 227.467 343.972 226.799 343.545C226.131 343.112 225.612 342.516 225.241 341.755C224.869 340.994 224.684 340.128 224.684 339.157V338.805ZM225.491 339.157C225.491 339.918 225.633 340.626 225.918 341.282C226.202 341.937 226.614 342.466 227.152 342.868C227.696 343.264 228.358 343.462 229.137 343.462C229.91 343.462 230.566 343.264 231.104 342.868C231.642 342.466 232.05 341.937 232.328 341.282C232.613 340.626 232.755 339.918 232.755 339.157V338.805C232.755 338.05 232.613 337.348 232.328 336.699C232.044 336.043 231.633 335.514 231.095 335.112C230.556 334.704 229.898 334.5 229.118 334.5C228.352 334.5 227.696 334.704 227.152 335.112C226.614 335.514 226.202 336.043 225.918 336.699C225.633 337.348 225.491 338.05 225.491 338.805V339.157ZM235.812 338.805C235.812 337.827 235.997 336.962 236.368 336.207C236.739 335.452 237.256 334.859 237.917 334.426C238.585 333.993 239.362 333.776 240.246 333.776C241.143 333.776 241.922 333.993 242.584 334.426C243.252 334.859 243.768 335.452 244.133 336.207C244.504 336.962 244.69 337.827 244.69 338.805V339.157C244.69 340.128 244.504 340.994 244.133 341.755C243.768 342.516 243.255 343.112 242.593 343.545C241.931 343.972 241.155 344.186 240.265 344.186C239.374 344.186 238.595 343.972 237.927 343.545C237.259 343.112 236.739 342.516 236.368 341.755C235.997 340.994 235.812 340.128 235.812 339.157V338.805ZM236.619 339.157C236.619 339.918 236.761 340.626 237.045 341.282C237.33 341.937 237.741 342.466 238.279 342.868C238.824 343.264 239.485 343.462 240.265 343.462C241.038 343.462 241.693 343.264 242.231 342.868C242.77 342.466 243.178 341.937 243.456 341.282C243.741 340.626 243.883 339.918 243.883 339.157V338.805C243.883 338.05 243.741 337.348 243.456 336.699C243.172 336.043 242.76 335.514 242.222 335.112C241.684 334.704 241.025 334.5 240.246 334.5C239.479 334.5 238.824 334.704 238.279 335.112C237.741 335.514 237.33 336.043 237.045 336.699C236.761 337.348 236.619 338.05 236.619 338.805V339.157Z" fill="#43444A"/>
<path d="M6.09521 394.492C6.99202 394.492 7.77751 394.644 8.45166 394.947C9.132 395.25 9.66081 395.695 10.0381 396.283C10.4154 396.864 10.604 397.578 10.604 398.426C10.604 399.075 10.4648 399.663 10.1865 400.188C9.91439 400.708 9.5402 401.141 9.06396 401.487C8.58773 401.827 8.04964 402.053 7.44971 402.165L7.10645 402.294H2.18018L2.16162 401.562H6.44775C7.18994 401.562 7.80534 401.413 8.29395 401.116C8.78874 400.813 9.15983 400.424 9.40723 399.947C9.65462 399.465 9.77832 398.958 9.77832 398.426C9.77832 397.43 9.45361 396.648 8.8042 396.079C8.15479 395.51 7.25179 395.225 6.09521 395.225H2.56982V408H1.75342V394.492H6.09521ZM6.70752 402.007L7.6167 401.988L11.1792 407.87V408H10.3071L6.70752 402.007ZM18.6144 394.78H17.8908V392.507H18.6144V394.78ZM18.6515 409.93H17.9279V407.731H18.6515V409.93ZM21.3884 404.734C21.3884 404.24 21.2894 403.813 21.0915 403.454C20.8936 403.095 20.5596 402.774 20.0895 402.489C19.6195 402.199 18.9762 401.908 18.1598 401.617C17.3805 401.357 16.7064 401.073 16.1374 400.764C15.5746 400.454 15.1385 400.065 14.8293 399.595C14.5262 399.118 14.3747 398.509 14.3747 397.767C14.3747 397.062 14.5324 396.45 14.8478 395.93C15.1633 395.411 15.6086 395.009 16.1838 394.724C16.7651 394.44 17.4455 394.297 18.2248 394.297C19.035 394.297 19.7308 394.455 20.3122 394.771C20.8936 395.086 21.3389 395.547 21.6481 396.153C21.9574 396.753 22.112 397.492 22.112 398.37H21.3049C21.3049 397.418 21.042 396.623 20.5163 395.986C19.9968 395.349 19.2329 395.03 18.2248 395.03C17.5321 395.03 16.9569 395.16 16.4992 395.42C16.0477 395.674 15.7137 396.007 15.4972 396.422C15.2808 396.83 15.1725 397.272 15.1725 397.749C15.1725 398.231 15.256 398.652 15.423 399.01C15.5962 399.363 15.9178 399.688 16.3879 399.984C16.8579 400.281 17.5352 400.578 18.4196 400.875C19.1927 401.135 19.8607 401.422 20.4235 401.738C20.9863 402.047 21.4224 402.437 21.7316 402.907C22.0409 403.377 22.1955 403.98 22.1955 404.716C22.1955 405.439 22.0285 406.061 21.6945 406.581C21.3667 407.1 20.9059 407.499 20.3122 407.777C19.7184 408.056 19.0226 408.195 18.2248 408.195C17.6991 408.195 17.1795 408.127 16.6662 407.991C16.1528 407.855 15.689 407.632 15.2746 407.323C14.8602 407.007 14.5293 406.593 14.2819 406.08C14.0345 405.56 13.9108 404.92 13.9108 404.159H14.7179C14.7179 404.79 14.8231 405.319 15.0334 405.746C15.2437 406.172 15.5189 406.513 15.8591 406.766C16.2054 407.014 16.5858 407.193 17.0002 407.304C17.4146 407.409 17.8228 407.462 18.2248 407.462C18.8928 407.462 19.4618 407.335 19.9318 407.082C20.4019 406.828 20.7606 406.494 21.008 406.08C21.2616 405.665 21.3884 405.217 21.3884 404.734ZM35.2847 408H34.4776V395.476L30.7017 396.886V396.088L35.1363 394.446H35.2847V408ZM50.216 404.447H40.7346V403.992L47.0803 394.492H47.7761L46.5515 396.58L41.8015 403.732H50.216V404.447ZM47.9895 408H47.1823V394.492H47.9895V408ZM54.1352 407.406C55.1124 407.406 55.9442 407.264 56.6308 406.979C57.3173 406.689 57.8739 406.278 58.3007 405.746C58.7274 405.214 59.0398 404.58 59.2377 403.844C59.4356 403.108 59.5346 402.294 59.5346 401.404V399.613C59.5346 398.599 59.3923 397.755 59.1078 397.081C58.8295 396.4 58.4306 395.89 57.911 395.55C57.3915 395.203 56.7792 395.03 56.0741 395.03C55.4062 395.03 54.8279 395.222 54.3393 395.605C53.8506 395.983 53.4734 396.478 53.2074 397.09C52.9477 397.702 52.8178 398.358 52.8178 399.057C52.8178 399.706 52.9415 400.325 53.1889 400.912C53.4363 401.493 53.795 401.97 54.265 402.341C54.7351 402.706 55.3072 402.888 55.9813 402.888C56.5875 402.888 57.1194 402.774 57.577 402.545C58.0347 402.316 58.4182 402.022 58.7274 401.664C59.0367 401.305 59.2717 400.924 59.4325 400.522C59.5933 400.114 59.6768 399.734 59.683 399.381L60.1098 399.363C60.1098 399.957 60.0015 400.513 59.7851 401.033C59.5748 401.546 59.2779 401.998 58.8944 402.387C58.511 402.771 58.0657 403.071 57.5585 403.287C57.0513 403.504 56.5009 403.612 55.9071 403.612C55.0907 403.612 54.3918 403.402 53.8104 402.981C53.2353 402.554 52.793 401.994 52.4838 401.302C52.1745 400.609 52.0199 399.867 52.0199 399.075C52.0199 398.209 52.1838 397.418 52.5116 396.7C52.8394 395.977 53.3033 395.398 53.9032 394.965C54.5093 394.526 55.2237 394.307 56.0463 394.307C56.7452 394.307 57.3606 394.427 57.8925 394.668C58.4306 394.91 58.879 395.262 59.2377 395.726C59.6026 396.184 59.8778 396.743 60.0634 397.405C60.2489 398.067 60.3417 398.819 60.3417 399.66V400.949C60.3417 401.803 60.2706 402.597 60.1283 403.333C59.9861 404.063 59.7603 404.725 59.4511 405.319C59.148 405.913 58.7522 406.42 58.2636 406.84C57.7812 407.261 57.1967 407.586 56.5102 407.814C55.8298 408.037 55.0381 408.148 54.1352 408.148H53.8568L53.8661 407.406H54.1352ZM64.4649 407.647C64.4649 408.216 64.3598 408.739 64.1495 409.215C63.9392 409.698 63.6609 410.109 63.3145 410.449L62.8136 410.06C63.0053 409.812 63.163 409.565 63.2867 409.317C63.4166 409.076 63.5124 408.819 63.5743 408.547C63.6361 408.281 63.6671 407.988 63.6671 407.666V406.386H64.4649V407.647ZM69.3396 407.406C70.3168 407.406 71.1487 407.264 71.8352 406.979C72.5217 406.689 73.0784 406.278 73.5051 405.746C73.9319 405.214 74.2442 404.58 74.4421 403.844C74.6401 403.108 74.739 402.294 74.739 401.404V399.613C74.739 398.599 74.5968 397.755 74.3123 397.081C74.0339 396.4 73.635 395.89 73.1155 395.55C72.596 395.203 71.9837 395.03 71.2786 395.03C70.6106 395.03 70.0323 395.222 69.5437 395.605C69.0551 395.983 68.6778 396.478 68.4119 397.09C68.1521 397.702 68.0222 398.358 68.0222 399.057C68.0222 399.706 68.1459 400.325 68.3933 400.912C68.6407 401.493 68.9994 401.97 69.4695 402.341C69.9395 402.706 70.5116 402.888 71.1858 402.888C71.7919 402.888 72.3238 402.774 72.7815 402.545C73.2392 402.316 73.6226 402.022 73.9319 401.664C74.2411 401.305 74.4762 400.924 74.637 400.522C74.7978 400.114 74.8813 399.734 74.8875 399.381L75.3142 399.363C75.3142 399.957 75.206 400.513 74.9895 401.033C74.7792 401.546 74.4823 401.998 74.0989 402.387C73.7154 402.771 73.2701 403.071 72.7629 403.287C72.2558 403.504 71.7053 403.612 71.1116 403.612C70.2952 403.612 69.5963 403.402 69.0149 402.981C68.4397 402.554 67.9975 401.994 67.6882 401.302C67.379 400.609 67.2244 399.867 67.2244 399.075C67.2244 398.209 67.3883 397.418 67.7161 396.7C68.0439 395.977 68.5077 395.398 69.1077 394.965C69.7138 394.526 70.4281 394.307 71.2507 394.307C71.9496 394.307 72.565 394.427 73.0969 394.668C73.635 394.91 74.0834 395.262 74.4421 395.726C74.8071 396.184 75.0823 396.743 75.2678 397.405C75.4534 398.067 75.5462 398.819 75.5462 399.66V400.949C75.5462 401.803 75.475 402.597 75.3328 403.333C75.1905 404.063 74.9648 404.725 74.6555 405.319C74.3525 405.913 73.9566 406.42 73.468 406.84C72.9856 407.261 72.4011 407.586 71.7146 407.814C71.0343 408.037 70.2426 408.148 69.3396 408.148H69.0613L69.0706 407.406H69.3396ZM86.6459 402.424C86.6459 403.674 86.4882 404.725 86.1728 405.579C85.8574 406.432 85.3935 407.082 84.7812 407.527C84.1751 407.966 83.436 408.186 82.5639 408.186C81.7042 408.186 80.9651 407.966 80.3466 407.527C79.7343 407.082 79.2643 406.432 78.9365 405.579C78.6148 404.725 78.454 403.674 78.454 402.424V400.04C78.454 398.797 78.6118 397.749 78.9272 396.895C79.2488 396.042 79.7158 395.395 80.3281 394.956C80.9404 394.517 81.6795 394.297 82.5453 394.297C83.4174 394.297 84.1565 394.517 84.7626 394.956C85.3749 395.395 85.8419 396.042 86.1635 396.895C86.4851 397.749 86.6459 398.797 86.6459 400.04V402.424ZM85.8388 399.975C85.8388 398.948 85.7151 398.064 85.4677 397.322C85.2265 396.58 84.8616 396.011 84.373 395.615C83.8906 395.219 83.2814 395.021 82.5453 395.021C81.8155 395.021 81.2032 395.219 80.7084 395.615C80.2198 396.011 79.8549 396.58 79.6137 397.322C79.3725 398.064 79.2519 398.948 79.2519 399.975V402.48C79.2519 403.494 79.3725 404.376 79.6137 405.124C79.8611 405.866 80.2322 406.441 80.727 406.85C81.2218 407.258 81.8341 407.462 82.5639 407.462C83.2999 407.462 83.9091 407.258 84.3915 406.85C84.874 406.441 85.2358 405.866 85.477 405.124C85.7182 404.376 85.8388 403.494 85.8388 402.48V399.975Z" fill="#7E8089"/>
<path d="M0 401.441H87.7778V402.369H0V401.441Z" fill="#7E8089"/>
<path d="M7.4458 423.648C8.69613 423.648 9.76302 423.836 10.6465 424.21C11.5299 424.584 12.2038 425.138 12.668 425.872C13.1396 426.606 13.3755 427.508 13.3755 428.579C13.3755 429.402 13.2257 430.125 12.9263 430.746C12.6268 431.368 12.2 431.892 11.646 432.318C11.0994 432.738 10.4518 433.063 9.70312 433.295L8.82715 433.745H3.6499L3.62744 431.42H7.46826C8.1346 431.42 8.68864 431.304 9.13037 431.072C9.57959 430.84 9.91276 430.521 10.1299 430.117C10.3545 429.713 10.4668 429.252 10.4668 428.736C10.4668 427.897 10.2235 427.231 9.73682 426.737C9.25765 426.235 8.49398 425.984 7.4458 425.984H4.53711V440H1.63965V423.648H7.4458ZM7.10889 432.667L10.1523 432.655L14.0269 439.854V440H10.9272L7.10889 432.667ZM22.2363 424.401H20.4731V421.021H22.2363V424.401ZM22.0117 442.381H20.2598V439.371H22.0117V442.381ZM23.6289 435.732C23.6289 435.306 23.5428 434.931 23.3706 434.609C23.1984 434.287 22.9176 433.999 22.5283 433.745C22.1465 433.483 21.6261 433.239 20.9673 433.015C20.009 432.67 19.1704 432.288 18.4517 431.869C17.7404 431.442 17.1864 430.915 16.7896 430.286C16.4002 429.657 16.2056 428.874 16.2056 427.938C16.2056 427.01 16.4152 426.209 16.8345 425.535C17.2537 424.854 17.8452 424.33 18.6089 423.963C19.3726 423.596 20.2598 423.413 21.2705 423.413C22.3112 423.413 23.2096 423.618 23.9658 424.03C24.7295 424.442 25.3172 425.041 25.729 425.827C26.1483 426.613 26.3579 427.568 26.3579 428.691H23.584C23.584 427.755 23.3743 427.021 22.9551 426.49C22.5433 425.958 21.9743 425.692 21.248 425.692C20.7314 425.692 20.3047 425.79 19.9678 425.984C19.6309 426.179 19.3838 426.445 19.2266 426.782C19.0693 427.111 18.9907 427.493 18.9907 427.927C18.9907 428.339 19.0731 428.702 19.2378 429.017C19.4025 429.324 19.6795 429.604 20.0688 429.859C20.4657 430.113 21.0085 430.368 21.6973 430.623C22.6631 430.974 23.4979 431.364 24.2017 431.791C24.9129 432.217 25.4595 432.745 25.8413 433.374C26.2306 433.995 26.4253 434.774 26.4253 435.71C26.4253 436.676 26.2007 437.496 25.7515 438.169C25.3097 438.843 24.6883 439.356 23.8872 439.708C23.0936 440.06 22.1615 440.236 21.0908 440.236C20.4245 440.236 19.7619 440.146 19.103 439.966C18.4517 439.787 17.8602 439.495 17.3286 439.09C16.797 438.686 16.3703 438.151 16.0483 437.484C15.7339 436.811 15.5767 435.979 15.5767 434.991H18.3618C18.3618 435.568 18.4404 436.047 18.5977 436.429C18.7549 436.811 18.9645 437.114 19.2266 437.338C19.4961 437.556 19.7918 437.713 20.1138 437.81C20.4357 437.907 20.7614 437.956 21.0908 437.956C21.6449 437.956 22.109 437.862 22.4834 437.675C22.8577 437.488 23.1423 437.226 23.3369 436.889C23.5316 436.552 23.6289 436.167 23.6289 435.732ZM41.9683 440H39.1719V426.939L35.1851 428.275V425.939L41.6201 423.592H41.9683V440ZM58.6118 440H47.5947V438.08L52.918 432.296C53.502 431.652 53.9587 431.094 54.2881 430.623C54.625 430.151 54.8608 429.728 54.9956 429.354C55.1304 428.972 55.1978 428.601 55.1978 428.242C55.1978 427.486 54.9881 426.868 54.5688 426.389C54.1571 425.902 53.5656 425.659 52.7944 425.659C52.1955 425.659 51.6901 425.79 51.2783 426.052C50.874 426.306 50.5708 426.658 50.3687 427.107C50.1665 427.557 50.0654 428.073 50.0654 428.657H47.2803C47.2803 427.699 47.4974 426.823 47.9316 426.029C48.3659 425.236 48.9985 424.603 49.8296 424.131C50.6606 423.66 51.6602 423.424 52.8281 423.424C54.4753 423.424 55.748 423.832 56.6465 424.648C57.5449 425.464 57.9941 426.565 57.9941 427.95C57.9941 428.639 57.8481 429.316 57.5562 429.982C57.2642 430.649 56.8636 431.315 56.3545 431.981C55.8454 432.64 55.2614 433.318 54.6025 434.014L51.1099 437.765H58.6118V440ZM71.3921 433.149C71.3921 434.841 71.1712 436.208 70.7295 437.249C70.2878 438.282 69.6663 439.038 68.8652 439.517C68.0641 439.989 67.1208 440.225 66.0352 440.225C64.9645 440.225 64.0212 439.989 63.2051 439.517C62.3965 439.038 61.7676 438.282 61.3184 437.249C60.8691 436.208 60.6445 434.841 60.6445 433.149V430.443C60.6445 428.743 60.8654 427.381 61.3071 426.355C61.7563 425.329 62.3853 424.584 63.1938 424.12C64.0024 423.656 64.9421 423.424 66.0127 423.424C67.0983 423.424 68.0417 423.656 68.8428 424.12C69.6514 424.584 70.2765 425.329 70.7183 426.355C71.1675 427.381 71.3921 428.743 71.3921 430.443V433.149ZM68.6069 430.027C68.6069 428.957 68.5059 428.103 68.3037 427.467C68.109 426.83 67.8171 426.374 67.4277 426.097C67.0459 425.812 66.5742 425.67 66.0127 425.67C65.4661 425.67 64.9982 425.812 64.6089 426.097C64.2271 426.374 63.9351 426.83 63.7329 427.467C63.5308 428.103 63.4297 428.957 63.4297 430.027V433.542C63.4297 434.613 63.5308 435.474 63.7329 436.125C63.9425 436.777 64.242 437.252 64.6313 437.552C65.0207 437.844 65.4886 437.99 66.0352 437.99C66.5967 437.99 67.0684 437.844 67.4502 437.552C67.832 437.252 68.1203 436.777 68.3149 436.125C68.5096 435.474 68.6069 434.613 68.6069 433.542V430.027ZM76.5469 439.337C76.5469 440.116 76.3522 440.913 75.9629 441.729C75.5736 442.546 75.0607 443.223 74.4243 443.762L72.9307 442.909C73.1403 442.572 73.3312 442.231 73.5034 441.887C73.6756 441.542 73.8141 441.172 73.9189 440.775C74.0238 440.378 74.0762 439.936 74.0762 439.45V437.361H76.5469V439.337ZM89.6753 433.149C89.6753 434.841 89.4544 436.208 89.0127 437.249C88.571 438.282 87.9495 439.038 87.1484 439.517C86.3473 439.989 85.404 440.225 84.3184 440.225C83.2477 440.225 82.3044 439.989 81.4883 439.517C80.6797 439.038 80.0508 438.282 79.6016 437.249C79.1523 436.208 78.9277 434.841 78.9277 433.149V430.443C78.9277 428.743 79.1486 427.381 79.5903 426.355C80.0396 425.329 80.6685 424.584 81.4771 424.12C82.2856 423.656 83.2253 423.424 84.2959 423.424C85.3815 423.424 86.3249 423.656 87.126 424.12C87.9346 424.584 88.5597 425.329 89.0015 426.355C89.4507 427.381 89.6753 428.743 89.6753 430.443V433.149ZM86.8901 430.027C86.8901 428.957 86.7891 428.103 86.5869 427.467C86.3923 426.83 86.1003 426.374 85.7109 426.097C85.3291 425.812 84.8574 425.67 84.2959 425.67C83.7493 425.67 83.2814 425.812 82.8921 426.097C82.5103 426.374 82.2183 426.83 82.0161 427.467C81.814 428.103 81.7129 428.957 81.7129 430.027V433.542C81.7129 434.613 81.814 435.474 82.0161 436.125C82.2257 436.777 82.5252 437.252 82.9146 437.552C83.3039 437.844 83.7718 437.99 84.3184 437.99C84.8799 437.99 85.3516 437.844 85.7334 437.552C86.1152 437.252 86.4035 436.777 86.5981 436.125C86.7928 435.474 86.8901 434.613 86.8901 433.542V430.027ZM102.77 433.149C102.77 434.841 102.549 436.208 102.107 437.249C101.666 438.282 101.044 439.038 100.243 439.517C99.4421 439.989 98.4987 440.225 97.4131 440.225C96.3424 440.225 95.3991 439.989 94.583 439.517C93.7744 439.038 93.1455 438.282 92.6963 437.249C92.2471 436.208 92.0225 434.841 92.0225 433.149V430.443C92.0225 428.743 92.2433 427.381 92.6851 426.355C93.1343 425.329 93.7632 424.584 94.5718 424.12C95.3804 423.656 96.32 423.424 97.3906 423.424C98.4762 423.424 99.4196 423.656 100.221 424.12C101.029 424.584 101.654 425.329 102.096 426.355C102.545 427.381 102.77 428.743 102.77 430.443V433.149ZM99.9849 430.027C99.9849 428.957 99.8838 428.103 99.6816 427.467C99.487 426.83 99.195 426.374 98.8057 426.097C98.4238 425.812 97.9521 425.67 97.3906 425.67C96.8441 425.67 96.3761 425.812 95.9868 426.097C95.605 426.374 95.313 426.83 95.1108 427.467C94.9087 428.103 94.8076 428.957 94.8076 430.027V433.542C94.8076 434.613 94.9087 435.474 95.1108 436.125C95.3205 436.777 95.62 437.252 96.0093 437.552C96.3986 437.844 96.8665 437.99 97.4131 437.99C97.9746 437.99 98.4463 437.844 98.8281 437.552C99.21 437.252 99.4982 436.777 99.6929 436.125C99.8875 435.474 99.9849 434.613 99.9849 433.542V430.027Z" fill="#43444A"/>
<rect x="17" y="17" width="46" height="46" rx="3" fill="white"/>
<rect x="17" y="17" width="46" height="46" rx="3" fill="white"/>
<path d="M46.4359 35.5623L43.6812 31.583C43.477 31.2887 43.2056 31.0473 42.8896 30.8787C42.5735 30.7102 42.2218 30.6194 41.8636 30.6139L36.6358 30.5389H36.625C33.926 30.5389 31.8551 30.9904 30.5214 33.1937C29.2797 35.2445 28.75 38.7381 28.75 44.875V45.625H30.4636L29.3605 51.25H30.8891L31.9922 45.625H32.5C33.7249 45.6359 34.905 45.1646 35.7854 44.3128C36.5813 43.5513 37.1553 42.5095 37.4456 41.3L37.4483 41.2891L38.7347 35.125H37.2023L35.9845 40.9603C35.6137 42.4922 34.5047 44.125 32.5 44.125H30.2528C30.2935 38.8156 30.777 35.6678 31.8046 33.9702C32.6671 32.5452 33.9278 32.0394 36.6198 32.0387L41.842 32.1137C41.9614 32.1155 42.0787 32.1458 42.184 32.2019C42.2894 32.2581 42.3799 32.3386 42.4479 32.4367L45.5641 36.9376L49.75 37.6353V38.4303L49.0519 42.1531C48.8459 43.2519 48.4938 43.8054 47.0495 43.9789L41.1289 44.9918L41.0898 51.25H42.5898L42.6211 46.2581L47.2476 45.4659C48.2957 45.337 49.069 44.9993 49.6113 44.4336C50.0749 43.9499 50.3571 43.332 50.5263 42.4296L51.25 38.5697V36.3646L46.4359 35.5623Z" fill="#7E8089"/>
<path d="M203 20C203 18.3431 204.343 17 206 17H268C269.657 17 271 18.3431 271 20V60C271 61.6569 269.657 63 268 63H206C204.343 63 203 61.6569 203 60V20Z" fill="#141518"/>
<path d="M220.401 42.3428H215.104V40.0791H220.401V42.3428ZM229.711 47H226.909V36.8042L223.745 37.7598V35.4961L229.423 33.4736H229.711V47ZM234.947 40.376L235.736 33.4922H243.38V35.8022H238.036L237.712 38.604C237.885 38.5112 238.148 38.4061 238.5 38.2886C238.859 38.1711 239.261 38.1123 239.706 38.1123C240.585 38.1123 241.33 38.2917 241.942 38.6504C242.555 39.0091 243.022 39.5286 243.343 40.209C243.671 40.8831 243.835 41.6995 243.835 42.6582C243.835 43.4499 243.668 44.1921 243.334 44.8848C243.006 45.5713 242.502 46.1279 241.822 46.5547C241.141 46.9753 240.282 47.1855 239.243 47.1855C238.649 47.1855 238.077 47.0959 237.526 46.9165C236.982 46.7371 236.493 46.4774 236.06 46.1372C235.627 45.7909 235.281 45.3734 235.021 44.8848C234.768 44.39 234.635 43.8333 234.622 43.2148H237.406C237.455 43.7467 237.641 44.1673 237.962 44.4766C238.284 44.7796 238.704 44.9312 239.224 44.9312C239.663 44.9312 240.016 44.8229 240.282 44.6064C240.548 44.3838 240.739 44.0869 240.857 43.7158C240.974 43.3447 241.033 42.9334 241.033 42.4819C241.033 42.0243 240.956 41.6253 240.801 41.2852C240.653 40.9388 240.424 40.6698 240.115 40.478C239.805 40.2863 239.41 40.1904 238.927 40.1904C238.451 40.1904 238.083 40.2677 237.823 40.4224C237.563 40.577 237.35 40.744 237.183 40.9233L234.947 40.376ZM246.065 36.0898C246.065 35.5765 246.177 35.1095 246.399 34.689C246.628 34.2684 246.959 33.9313 247.392 33.6777C247.831 33.4242 248.372 33.2974 249.016 33.2974C249.671 33.2974 250.219 33.4242 250.658 33.6777C251.097 33.9313 251.425 34.2684 251.641 34.689C251.864 35.1095 251.975 35.5765 251.975 36.0898V36.8042C251.975 37.3052 251.864 37.766 251.641 38.1865C251.425 38.6071 251.097 38.9442 250.658 39.1978C250.225 39.4513 249.684 39.5781 249.034 39.5781C248.385 39.5781 247.841 39.4513 247.401 39.1978C246.962 38.9442 246.628 38.6071 246.399 38.1865C246.177 37.766 246.065 37.3052 246.065 36.8042V36.0898ZM247.912 36.8042C247.912 37.0083 247.952 37.2 248.032 37.3794C248.119 37.5526 248.246 37.6948 248.413 37.8062C248.58 37.9175 248.787 37.9731 249.034 37.9731C249.282 37.9731 249.486 37.9175 249.647 37.8062C249.807 37.6948 249.925 37.5526 249.999 37.3794C250.079 37.2 250.12 37.0083 250.12 36.8042V36.0898C250.12 35.8796 250.079 35.6847 249.999 35.5054C249.919 35.326 249.795 35.1807 249.628 35.0693C249.467 34.958 249.263 34.9023 249.016 34.9023C248.774 34.9023 248.57 34.958 248.403 35.0693C248.243 35.1807 248.119 35.326 248.032 35.5054C247.952 35.6847 247.912 35.8796 247.912 36.0898V36.8042ZM252.504 43.688C252.504 43.1808 252.615 42.717 252.838 42.2964C253.067 41.8758 253.401 41.5387 253.84 41.2852C254.279 41.0316 254.82 40.9048 255.463 40.9048C256.119 40.9048 256.663 41.0316 257.096 41.2852C257.535 41.5387 257.866 41.8758 258.089 42.2964C258.312 42.717 258.423 43.1808 258.423 43.688V44.4023C258.423 44.9095 258.312 45.3734 258.089 45.7939C257.872 46.2145 257.545 46.5516 257.106 46.8052C256.673 47.0588 256.131 47.1855 255.482 47.1855C254.833 47.1855 254.285 47.0588 253.84 46.8052C253.401 46.5516 253.067 46.2145 252.838 45.7939C252.615 45.3734 252.504 44.9095 252.504 44.4023V43.688ZM254.359 44.4023C254.359 44.6126 254.406 44.8075 254.499 44.9868C254.591 45.16 254.721 45.3022 254.888 45.4136C255.061 45.5249 255.259 45.5806 255.482 45.5806C255.773 45.5806 255.995 45.5249 256.15 45.4136C256.311 45.3022 256.419 45.16 256.475 44.9868C256.536 44.8075 256.567 44.6126 256.567 44.4023V43.688C256.567 43.3787 256.475 43.1066 256.289 42.8716C256.11 42.6304 255.835 42.5098 255.463 42.5098C255.092 42.5098 254.814 42.6304 254.628 42.8716C254.449 43.1066 254.359 43.3787 254.359 43.688V44.4023ZM249.572 45.998L248.227 45.2744L254.823 34.7168L256.168 35.4404L249.572 45.998Z" fill="white"/>
</svg>
