<svg width="290" height="444" viewBox="0 0 290 444" fill="none" xmlns="http://www.w3.org/2000/svg">
<rect width="288" height="305" rx="3" fill="#F5F5F5"/>
<path d="M11.4204 342.469C11.272 342.686 11.0029 342.927 10.6133 343.193C10.2298 343.459 9.71956 343.691 9.08252 343.889C8.45166 344.087 7.67855 344.186 6.76318 344.186C5.72412 344.186 4.80257 343.935 3.99854 343.434C3.20068 342.933 2.57601 342.228 2.12451 341.319C1.6792 340.41 1.45654 339.346 1.45654 338.127V336.207C1.45654 335.02 1.66683 333.984 2.0874 333.099C2.51416 332.215 3.1141 331.528 3.88721 331.04C4.66032 330.551 5.56331 330.307 6.59619 330.307C7.58577 330.307 8.42074 330.48 9.10107 330.826C9.78141 331.166 10.3133 331.633 10.6968 332.227C11.0802 332.815 11.3153 333.479 11.4019 334.222H10.5854C10.4927 333.659 10.3009 333.136 10.0103 332.654C9.71956 332.171 9.2959 331.782 8.73926 331.485C8.1888 331.188 7.47445 331.04 6.59619 331.04C5.69938 331.04 4.92627 331.259 4.27686 331.698C3.63363 332.131 3.13883 332.734 2.79248 333.507C2.44613 334.28 2.27295 335.174 2.27295 336.188V338.127C2.27295 339.185 2.4585 340.113 2.82959 340.911C3.20068 341.708 3.72331 342.333 4.39746 342.785C5.07161 343.23 5.86019 343.453 6.76318 343.453C7.48063 343.453 8.09912 343.382 8.61865 343.239C9.14437 343.097 9.57113 342.927 9.89893 342.729C10.2329 342.531 10.4648 342.349 10.5947 342.182V338.471H6.7168V337.729H11.4204V342.469ZM15.924 344H15.1169V333.962H15.9147L15.924 335.669V344ZM19.6535 334.611C19.5422 334.593 19.4277 334.58 19.3102 334.574C19.1989 334.562 19.0814 334.556 18.9577 334.556C18.2588 334.556 17.6774 334.732 17.2136 335.084C16.7497 335.431 16.3971 335.901 16.1559 336.495C15.9209 337.082 15.7972 337.735 15.7848 338.452L15.4137 338.545C15.4137 337.636 15.5405 336.822 15.7941 336.105C16.0539 335.388 16.4466 334.822 16.9723 334.407C17.4981 333.987 18.166 333.776 18.9762 333.776C19.1185 333.776 19.2546 333.789 19.3845 333.813C19.5143 333.832 19.6164 333.857 19.6906 333.888L19.6535 334.611ZM27.9237 336.977C27.9237 336.198 27.6794 335.589 27.1908 335.149C26.7022 334.71 26.0033 334.491 25.0941 334.491C24.5375 334.491 24.0334 334.59 23.5819 334.788C23.1366 334.986 22.7871 335.255 22.5336 335.595C22.28 335.935 22.1532 336.312 22.1532 336.727L21.3461 336.717C21.3461 336.204 21.5038 335.725 21.8192 335.279C22.1408 334.834 22.5861 334.472 23.1551 334.194C23.7241 333.916 24.3797 333.776 25.1219 333.776C25.827 333.776 26.4517 333.897 26.996 334.138C27.5402 334.373 27.9639 334.729 28.267 335.205C28.5762 335.681 28.7308 336.278 28.7308 336.996V341.94C28.7308 342.293 28.7556 342.655 28.805 343.026C28.8545 343.391 28.9226 343.681 29.0091 343.898V344H28.1278C28.0598 343.771 28.0072 343.487 27.9701 343.146C27.9392 342.806 27.9237 342.475 27.9237 342.154V336.977ZM28.1835 338.962H25.7899C24.5715 338.962 23.6159 339.182 22.9232 339.621C22.2367 340.06 21.8934 340.642 21.8934 341.365C21.8934 341.94 22.113 342.432 22.5521 342.84C22.9974 343.249 23.585 343.453 24.3148 343.453C24.9766 343.453 25.5611 343.338 26.0682 343.109C26.5754 342.874 26.999 342.559 27.3392 342.163C27.6856 341.767 27.9361 341.316 28.0907 340.809L28.4432 341.356C28.3443 341.684 28.1835 342.015 27.9608 342.349C27.7381 342.676 27.4505 342.979 27.098 343.258C26.7517 343.536 26.3404 343.762 25.8641 343.935C25.3941 344.102 24.856 344.186 24.2499 344.186C23.6128 344.186 23.0562 344.068 22.5799 343.833C22.1037 343.592 21.7357 343.261 21.4759 342.84C21.2162 342.414 21.0863 341.934 21.0863 341.402C21.0863 340.456 21.4945 339.698 22.3109 339.129C23.1335 338.56 24.2622 338.276 25.6971 338.276H28.1649L28.1835 338.962ZM38.6245 333.962H39.4595L35.6372 344H34.9878L35.1641 343.174L38.6245 333.962ZM35.4239 343.193L35.5909 344H34.9414L31.1099 333.962H31.9449L35.4239 343.193ZM47.9895 336.977C47.9895 336.198 47.7452 335.589 47.2566 335.149C46.768 334.71 46.0691 334.491 45.1599 334.491C44.6032 334.491 44.0992 334.59 43.6477 334.788C43.2024 334.986 42.8529 335.255 42.5993 335.595C42.3458 335.935 42.219 336.312 42.219 336.727L41.4118 336.717C41.4118 336.204 41.5695 335.725 41.885 335.279C42.2066 334.834 42.6519 334.472 43.2209 334.194C43.7899 333.916 44.4455 333.776 45.1877 333.776C45.8928 333.776 46.5175 333.897 47.0617 334.138C47.606 334.373 48.0297 334.729 48.3327 335.205C48.642 335.681 48.7966 336.278 48.7966 336.996V341.94C48.7966 342.293 48.8213 342.655 48.8708 343.026C48.9203 343.391 48.9883 343.681 49.0749 343.898V344H48.1936C48.1255 343.771 48.073 343.487 48.0359 343.146C48.0049 342.806 47.9895 342.475 47.9895 342.154V336.977ZM48.2492 338.962H45.8557C44.6373 338.962 43.6817 339.182 42.989 339.621C42.3025 340.06 41.9592 340.642 41.9592 341.365C41.9592 341.94 42.1788 342.432 42.6179 342.84C43.0632 343.249 43.6508 343.453 44.3806 343.453C45.0424 343.453 45.6268 343.338 46.134 343.109C46.6412 342.874 47.0648 342.559 47.405 342.163C47.7514 341.767 48.0018 341.316 48.1565 340.809L48.509 341.356C48.41 341.684 48.2492 342.015 48.0266 342.349C47.8039 342.676 47.5163 342.979 47.1638 343.258C46.8174 343.536 46.4061 343.762 45.9299 343.935C45.4598 344.102 44.9218 344.186 44.3156 344.186C43.6786 344.186 43.122 344.068 42.6457 343.833C42.1695 343.592 41.8015 343.261 41.5417 342.84C41.282 342.414 41.1521 341.934 41.1521 341.402C41.1521 340.456 41.5603 339.698 42.3767 339.129C43.1993 338.56 44.328 338.276 45.7629 338.276H48.2307L48.2492 338.962ZM56.0741 334.667H51.2313V333.962H56.0741V334.667ZM53.8939 331.318V341.579C53.8939 342.104 53.9589 342.503 54.0888 342.775C54.2187 343.041 54.3918 343.221 54.6083 343.313C54.8248 343.4 55.0567 343.443 55.3041 343.443C55.4835 343.443 55.6474 343.437 55.7958 343.425C55.9504 343.406 56.102 343.385 56.2504 343.36L56.3153 344.056C56.1793 344.099 55.9999 344.13 55.7772 344.148C55.5608 344.173 55.3659 344.186 55.1928 344.186C54.7722 344.186 54.4011 344.108 54.0795 343.954C53.7641 343.799 53.5167 343.533 53.3373 343.156C53.1641 342.772 53.0775 342.247 53.0775 341.579V331.318H53.8939ZM65.3092 336.977C65.3092 336.198 65.0649 335.589 64.5762 335.149C64.0876 334.71 63.3887 334.491 62.4796 334.491C61.9229 334.491 61.4189 334.59 60.9674 334.788C60.522 334.986 60.1726 335.255 59.919 335.595C59.6654 335.935 59.5387 336.312 59.5387 336.727L58.7315 336.717C58.7315 336.204 58.8892 335.725 59.2047 335.279C59.5263 334.834 59.9716 334.472 60.5406 334.194C61.1096 333.916 61.7652 333.776 62.5074 333.776C63.2125 333.776 63.8372 333.897 64.3814 334.138C64.9257 334.373 65.3494 334.729 65.6524 335.205C65.9617 335.681 66.1163 336.278 66.1163 336.996V341.94C66.1163 342.293 66.141 342.655 66.1905 343.026C66.24 343.391 66.308 343.681 66.3946 343.898V344H65.5133C65.4452 343.771 65.3927 343.487 65.3555 343.146C65.3246 342.806 65.3092 342.475 65.3092 342.154V336.977ZM65.5689 338.962H63.1754C61.9569 338.962 61.0014 339.182 60.3087 339.621C59.6221 340.06 59.2789 340.642 59.2789 341.365C59.2789 341.94 59.4984 342.432 59.9376 342.84C60.3829 343.249 60.9705 343.453 61.7003 343.453C62.3621 343.453 62.9465 343.338 63.4537 343.109C63.9609 342.874 64.3845 342.559 64.7247 342.163C65.071 341.767 65.3215 341.316 65.4762 340.809L65.8287 341.356C65.7297 341.684 65.5689 342.015 65.3463 342.349C65.1236 342.676 64.836 342.979 64.4835 343.258C64.1371 343.536 63.7258 343.762 63.2496 343.935C62.7795 344.102 62.2414 344.186 61.6353 344.186C60.9983 344.186 60.4416 344.068 59.9654 343.833C59.4892 343.592 59.1212 343.261 58.8614 342.84C58.6016 342.414 58.4718 341.934 58.4718 341.402C58.4718 340.456 58.88 339.698 59.6964 339.129C60.519 338.56 61.6477 338.276 63.0826 338.276H65.5504L65.5689 338.962ZM75.7265 347.859H74.9286V333.962H75.6894L75.7265 335.892V347.859ZM82.8144 339.074C82.8144 340.088 82.6629 340.979 82.3598 341.746C82.0629 342.513 81.63 343.112 81.061 343.545C80.4981 343.972 79.8178 344.186 79.02 344.186C78.2345 344.186 77.5634 344.034 77.0068 343.731C76.4563 343.428 76.0141 343.02 75.6801 342.506C75.3523 341.993 75.1358 341.421 75.0307 340.79V337.45C75.1668 336.733 75.4018 336.099 75.7358 335.548C76.0698 334.998 76.5058 334.565 77.0439 334.25C77.5882 333.934 78.2376 333.776 78.9921 333.776C79.8023 333.776 80.492 333.984 81.061 334.398C81.63 334.812 82.0629 335.403 82.3598 336.17C82.6629 336.931 82.8144 337.834 82.8144 338.879V339.074ZM81.998 338.879C81.998 338.044 81.8836 337.299 81.6547 336.643C81.4321 335.981 81.0888 335.462 80.6249 335.084C80.1673 334.701 79.5828 334.509 78.8715 334.509C78.2901 334.509 77.7984 334.605 77.3964 334.797C77.0006 334.989 76.6728 335.239 76.413 335.548C76.1533 335.851 75.9523 336.179 75.81 336.532C75.6677 336.884 75.5626 337.218 75.4946 337.534V340.781C75.6059 341.269 75.8007 341.718 76.079 342.126C76.3574 342.528 76.7285 342.853 77.1923 343.1C77.6624 343.341 78.2283 343.462 78.8901 343.462C79.5952 343.462 80.1765 343.27 80.6342 342.887C81.0919 342.503 81.4321 341.984 81.6547 341.328C81.8836 340.666 81.998 339.915 81.998 339.074V338.879ZM92.1793 336.977C92.1793 336.198 91.935 335.589 91.4464 335.149C90.9578 334.71 90.2589 334.491 89.3497 334.491C88.7931 334.491 88.289 334.59 87.8375 334.788C87.3922 334.986 87.0428 335.255 86.7892 335.595C86.5356 335.935 86.4088 336.312 86.4088 336.727L85.6017 336.717C85.6017 336.204 85.7594 335.725 86.0748 335.279C86.3964 334.834 86.8417 334.472 87.4108 334.194C87.9798 333.916 88.6354 333.776 89.3776 333.776C90.0826 333.776 90.7073 333.897 91.2516 334.138C91.7959 334.373 92.2195 334.729 92.5226 335.205C92.8318 335.681 92.9864 336.278 92.9864 336.996V341.94C92.9864 342.293 93.0112 342.655 93.0607 343.026C93.1101 343.391 93.1782 343.681 93.2648 343.898V344H92.3834C92.3154 343.771 92.2628 343.487 92.2257 343.146C92.1948 342.806 92.1793 342.475 92.1793 342.154V336.977ZM92.4391 338.962H90.0455C88.8271 338.962 87.8715 339.182 87.1788 339.621C86.4923 340.06 86.149 340.642 86.149 341.365C86.149 341.94 86.3686 342.432 86.8077 342.84C87.253 343.249 87.8406 343.453 88.5704 343.453C89.2322 343.453 89.8167 343.338 90.3238 343.109C90.831 342.874 91.2547 342.559 91.5948 342.163C91.9412 341.767 92.1917 341.316 92.3463 340.809L92.6988 341.356C92.5999 341.684 92.4391 342.015 92.2164 342.349C91.9938 342.676 91.7062 342.979 91.3536 343.258C91.0073 343.536 90.596 343.762 90.1197 343.935C89.6497 344.102 89.1116 344.186 88.5055 344.186C87.8684 344.186 87.3118 344.068 86.8356 343.833C86.3593 343.592 85.9913 343.261 85.7316 342.84C85.4718 342.414 85.3419 341.934 85.3419 341.402C85.3419 340.456 85.7501 339.698 86.5665 339.129C87.3891 338.56 88.5179 338.276 89.9528 338.276H92.4205L92.4391 338.962ZM97.4622 344H96.6551V333.962H97.4529L97.4622 335.669V344ZM101.192 334.611C101.08 334.593 100.966 334.58 100.848 334.574C100.737 334.562 100.62 334.556 100.496 334.556C99.797 334.556 99.2156 334.732 98.7518 335.084C98.2879 335.431 97.9353 335.901 97.6941 336.495C97.4591 337.082 97.3354 337.735 97.323 338.452L96.952 338.545C96.952 337.636 97.0787 336.822 97.3323 336.105C97.5921 335.388 97.9848 334.822 98.5105 334.407C99.0363 333.987 99.7042 333.776 100.514 333.776C100.657 333.776 100.793 333.789 100.923 333.813C101.053 333.832 101.155 333.857 101.229 333.888L101.192 334.611ZM109.462 336.977C109.462 336.198 109.218 335.589 108.729 335.149C108.24 334.71 107.541 334.491 106.632 334.491C106.076 334.491 105.572 334.59 105.12 334.788C104.675 334.986 104.325 335.255 104.072 335.595C103.818 335.935 103.691 336.312 103.691 336.727L102.884 336.717C102.884 336.204 103.042 335.725 103.357 335.279C103.679 334.834 104.124 334.472 104.693 334.194C105.262 333.916 105.918 333.776 106.66 333.776C107.365 333.776 107.99 333.897 108.534 334.138C109.078 334.373 109.502 334.729 109.805 335.205C110.114 335.681 110.269 336.278 110.269 336.996V341.94C110.269 342.293 110.294 342.655 110.343 343.026C110.393 343.391 110.461 343.681 110.547 343.898V344H109.666C109.598 343.771 109.545 343.487 109.508 343.146C109.477 342.806 109.462 342.475 109.462 342.154V336.977ZM109.722 338.962H107.328C106.11 338.962 105.154 339.182 104.461 339.621C103.775 340.06 103.432 340.642 103.432 341.365C103.432 341.94 103.651 342.432 104.09 342.84C104.536 343.249 105.123 343.453 105.853 343.453C106.515 343.453 107.099 343.338 107.606 343.109C108.114 342.874 108.537 342.559 108.877 342.163C109.224 341.767 109.474 341.316 109.629 340.809L109.981 341.356C109.882 341.684 109.722 342.015 109.499 342.349C109.276 342.676 108.989 342.979 108.636 343.258C108.29 343.536 107.879 343.762 107.402 343.935C106.932 344.102 106.394 344.186 105.788 344.186C105.151 344.186 104.594 344.068 104.118 343.833C103.642 343.592 103.274 343.261 103.014 342.84C102.754 342.414 102.624 341.934 102.624 341.402C102.624 340.456 103.033 339.698 103.849 339.129C104.672 338.56 105.8 338.276 107.235 338.276H109.703L109.722 338.962ZM122.653 343.462C123.148 343.462 123.615 343.372 124.054 343.193C124.499 343.007 124.867 342.726 125.158 342.349C125.455 341.971 125.622 341.498 125.659 340.929H126.438C126.407 341.585 126.216 342.157 125.863 342.646C125.511 343.134 125.053 343.514 124.49 343.787C123.933 344.053 123.321 344.186 122.653 344.186C121.75 344.186 120.986 343.969 120.362 343.536C119.737 343.097 119.264 342.5 118.942 341.746C118.621 340.991 118.46 340.134 118.46 339.176V338.786C118.46 337.821 118.621 336.965 118.942 336.216C119.264 335.462 119.734 334.868 120.352 334.435C120.977 333.996 121.738 333.776 122.635 333.776C123.321 333.776 123.946 333.916 124.509 334.194C125.071 334.466 125.526 334.868 125.872 335.4C126.219 335.926 126.407 336.563 126.438 337.311H125.659C125.628 336.705 125.47 336.195 125.186 335.78C124.908 335.36 124.543 335.041 124.091 334.825C123.646 334.608 123.16 334.5 122.635 334.5C121.849 334.5 121.206 334.698 120.705 335.094C120.21 335.483 119.845 336.003 119.61 336.652C119.381 337.302 119.267 338.013 119.267 338.786V339.176C119.267 339.949 119.381 340.663 119.61 341.319C119.845 341.968 120.21 342.488 120.705 342.877C121.206 343.267 121.855 343.462 122.653 343.462ZM135.59 336.977C135.59 336.198 135.346 335.589 134.857 335.149C134.368 334.71 133.669 334.491 132.76 334.491C132.204 334.491 131.7 334.59 131.248 334.788C130.803 334.986 130.453 335.255 130.2 335.595C129.946 335.935 129.819 336.312 129.819 336.727L129.012 336.717C129.012 336.204 129.17 335.725 129.485 335.279C129.807 334.834 130.252 334.472 130.821 334.194C131.39 333.916 132.046 333.776 132.788 333.776C133.493 333.776 134.118 333.897 134.662 334.138C135.206 334.373 135.63 334.729 135.933 335.205C136.242 335.681 136.397 336.278 136.397 336.996V341.94C136.397 342.293 136.422 342.655 136.471 343.026C136.521 343.391 136.589 343.681 136.675 343.898V344H135.794C135.726 343.771 135.673 343.487 135.636 343.146C135.605 342.806 135.59 342.475 135.59 342.154V336.977ZM135.85 338.962H133.456C132.238 338.962 131.282 339.182 130.589 339.621C129.903 340.06 129.56 340.642 129.56 341.365C129.56 341.94 129.779 342.432 130.218 342.84C130.664 343.249 131.251 343.453 131.981 343.453C132.643 343.453 133.227 343.338 133.734 343.109C134.242 342.874 134.665 342.559 135.005 342.163C135.352 341.767 135.602 341.316 135.757 340.809L136.109 341.356C136.01 341.684 135.85 342.015 135.627 342.349C135.404 342.676 135.117 342.979 134.764 343.258C134.418 343.536 134.007 343.762 133.53 343.935C133.06 344.102 132.522 344.186 131.916 344.186C131.279 344.186 130.722 344.068 130.246 343.833C129.77 343.592 129.402 343.261 129.142 342.84C128.882 342.414 128.752 341.934 128.752 341.402C128.752 340.456 129.161 339.698 129.977 339.129C130.8 338.56 131.928 338.276 133.363 338.276H135.831L135.85 338.962ZM143.628 343.462C144.123 343.462 144.59 343.372 145.029 343.193C145.474 343.007 145.842 342.726 146.133 342.349C146.43 341.971 146.597 341.498 146.634 340.929H147.413C147.382 341.585 147.191 342.157 146.838 342.646C146.486 343.134 146.028 343.514 145.465 343.787C144.908 344.053 144.296 344.186 143.628 344.186C142.725 344.186 141.961 343.969 141.337 343.536C140.712 343.097 140.239 342.5 139.917 341.746C139.596 340.991 139.435 340.134 139.435 339.176V338.786C139.435 337.821 139.596 336.965 139.917 336.216C140.239 335.462 140.709 334.868 141.327 334.435C141.952 333.996 142.713 333.776 143.61 333.776C144.296 333.776 144.921 333.916 145.484 334.194C146.046 334.466 146.501 334.868 146.847 335.4C147.194 335.926 147.382 336.563 147.413 337.311H146.634C146.603 336.705 146.445 336.195 146.161 335.78C145.883 335.36 145.518 335.041 145.066 334.825C144.621 334.608 144.135 334.5 143.61 334.5C142.824 334.5 142.181 334.698 141.68 335.094C141.185 335.483 140.82 336.003 140.585 336.652C140.356 337.302 140.242 338.013 140.242 338.786V339.176C140.242 339.949 140.356 340.663 140.585 341.319C140.82 341.968 141.185 342.488 141.68 342.877C142.181 343.267 142.83 343.462 143.628 343.462ZM151.165 344H150.358V329.75H151.165V344ZM150.618 337.831C150.686 337.107 150.89 336.439 151.23 335.827C151.571 335.208 152.025 334.713 152.594 334.342C153.163 333.965 153.825 333.776 154.579 333.776C155.254 333.776 155.826 333.903 156.296 334.157C156.772 334.404 157.137 334.8 157.391 335.344C157.644 335.882 157.771 336.597 157.771 337.487V344H156.973V337.478C156.973 336.705 156.865 336.105 156.648 335.678C156.438 335.245 156.141 334.942 155.758 334.769C155.38 334.59 154.938 334.5 154.431 334.5C153.85 334.5 153.346 334.63 152.919 334.89C152.498 335.143 152.149 335.468 151.87 335.864C151.592 336.26 151.382 336.671 151.24 337.098C151.097 337.518 151.017 337.899 150.998 338.239L150.618 337.831ZM160.669 338.805C160.669 337.827 160.855 336.962 161.226 336.207C161.597 335.452 162.114 334.859 162.775 334.426C163.443 333.993 164.22 333.776 165.104 333.776C166.001 333.776 166.78 333.993 167.442 334.426C168.11 334.859 168.626 335.452 168.991 336.207C169.362 336.962 169.548 337.827 169.548 338.805V339.157C169.548 340.128 169.362 340.994 168.991 341.755C168.626 342.516 168.113 343.112 167.451 343.545C166.789 343.972 166.013 344.186 165.123 344.186C164.232 344.186 163.453 343.972 162.785 343.545C162.117 343.112 161.597 342.516 161.226 341.755C160.855 340.994 160.669 340.128 160.669 339.157V338.805ZM161.477 339.157C161.477 339.918 161.619 340.626 161.903 341.282C162.188 341.937 162.599 342.466 163.137 342.868C163.682 343.264 164.343 343.462 165.123 343.462C165.896 343.462 166.551 343.264 167.089 342.868C167.628 342.466 168.036 341.937 168.314 341.282C168.599 340.626 168.741 339.918 168.741 339.157V338.805C168.741 338.05 168.599 337.348 168.314 336.699C168.03 336.043 167.618 335.514 167.08 335.112C166.542 334.704 165.883 334.5 165.104 334.5C164.337 334.5 163.682 334.704 163.137 335.112C162.599 335.514 162.188 336.043 161.903 336.699C161.619 337.348 161.477 338.05 161.477 338.805V339.157ZM173.291 344H172.484V333.962H173.281L173.291 335.669V344ZM177.02 334.611C176.909 334.593 176.794 334.58 176.677 334.574C176.566 334.562 176.448 334.556 176.324 334.556C175.626 334.556 175.044 334.732 174.58 335.084C174.116 335.431 173.764 335.901 173.523 336.495C173.288 337.082 173.164 337.735 173.152 338.452L172.781 338.545C172.781 337.636 172.907 336.822 173.161 336.105C173.421 335.388 173.813 334.822 174.339 334.407C174.865 333.987 175.533 333.776 176.343 333.776C176.485 333.776 176.621 333.789 176.751 333.813C176.881 333.832 176.983 333.857 177.057 333.888L177.02 334.611ZM180.244 344H179.436V333.962H180.234L180.244 335.669V344ZM183.973 334.611C183.862 334.593 183.747 334.58 183.63 334.574C183.518 334.562 183.401 334.556 183.277 334.556C182.578 334.556 181.997 334.732 181.533 335.084C181.069 335.431 180.717 335.901 180.476 336.495C180.24 337.082 180.117 337.735 180.104 338.452L179.733 338.545C179.733 337.636 179.86 336.822 180.114 336.105C180.373 335.388 180.766 334.822 181.292 334.407C181.818 333.987 182.486 333.776 183.296 333.776C183.438 333.776 183.574 333.789 183.704 333.813C183.834 333.832 183.936 333.857 184.01 333.888L183.973 334.611ZM185.48 338.805C185.48 337.827 185.666 336.962 186.037 336.207C186.408 335.452 186.924 334.859 187.586 334.426C188.254 333.993 189.03 333.776 189.915 333.776C190.811 333.776 191.591 333.993 192.253 334.426C192.921 334.859 193.437 335.452 193.802 336.207C194.173 336.962 194.358 337.827 194.358 338.805V339.157C194.358 340.128 194.173 340.994 193.802 341.755C193.437 342.516 192.924 343.112 192.262 343.545C191.6 343.972 190.824 344.186 189.933 344.186C189.043 344.186 188.263 343.972 187.595 343.545C186.927 343.112 186.408 342.516 186.037 341.755C185.666 340.994 185.48 340.128 185.48 339.157V338.805ZM186.287 339.157C186.287 339.918 186.429 340.626 186.714 341.282C186.998 341.937 187.41 342.466 187.948 342.868C188.492 343.264 189.154 343.462 189.933 343.462C190.706 343.462 191.362 343.264 191.9 342.868C192.438 342.466 192.846 341.937 193.125 341.282C193.409 340.626 193.551 339.918 193.551 339.157V338.805C193.551 338.05 193.409 337.348 193.125 336.699C192.84 336.043 192.429 335.514 191.891 335.112C191.353 334.704 190.694 334.5 189.915 334.5C189.148 334.5 188.492 334.704 187.948 335.112C187.41 335.514 186.998 336.043 186.714 336.699C186.429 337.348 186.287 338.05 186.287 338.805V339.157ZM203.399 341.495C203.399 341.204 203.321 340.917 203.167 340.632C203.018 340.342 202.737 340.073 202.323 339.825C201.914 339.572 201.314 339.361 200.523 339.194C199.774 339.034 199.144 338.845 198.63 338.628C198.117 338.406 197.727 338.118 197.461 337.766C197.201 337.407 197.072 336.955 197.072 336.411C197.072 335.923 197.211 335.48 197.489 335.084C197.767 334.689 198.163 334.373 198.677 334.138C199.196 333.897 199.811 333.776 200.523 333.776C201.283 333.776 201.936 333.903 202.48 334.157C203.025 334.404 203.442 334.75 203.733 335.196C204.023 335.635 204.169 336.139 204.169 336.708H203.362C203.362 336.133 203.117 335.623 202.629 335.177C202.14 334.726 201.438 334.5 200.523 334.5C199.898 334.5 199.391 334.596 199.001 334.788C198.612 334.973 198.327 335.211 198.148 335.502C197.968 335.786 197.879 336.08 197.879 336.383C197.879 336.699 197.947 336.986 198.083 337.246C198.225 337.5 198.5 337.732 198.908 337.942C199.323 338.146 199.935 338.341 200.745 338.526C201.549 338.706 202.205 338.925 202.712 339.185C203.219 339.439 203.594 339.751 203.835 340.122C204.082 340.487 204.206 340.935 204.206 341.467C204.206 341.999 204.057 342.472 203.761 342.887C203.464 343.295 203.046 343.613 202.508 343.842C201.97 344.071 201.33 344.186 200.588 344.186C199.759 344.186 199.057 344.053 198.482 343.787C197.913 343.521 197.48 343.168 197.183 342.729C196.892 342.29 196.747 341.82 196.747 341.319H197.554C197.591 341.863 197.767 342.293 198.083 342.608C198.398 342.918 198.782 343.137 199.233 343.267C199.685 343.397 200.136 343.462 200.588 343.462C201.206 343.462 201.723 343.369 202.137 343.184C202.551 342.992 202.864 342.744 203.074 342.441C203.29 342.138 203.399 341.823 203.399 341.495ZM216.302 344.186C215.461 344.186 214.704 343.975 214.029 343.555C213.355 343.128 212.823 342.54 212.434 341.792C212.044 341.044 211.849 340.19 211.849 339.231V338.823C211.849 337.821 212.044 336.94 212.434 336.179C212.823 335.418 213.34 334.828 213.983 334.407C214.632 333.987 215.341 333.776 216.108 333.776C216.905 333.776 217.595 333.965 218.176 334.342C218.764 334.72 219.215 335.242 219.531 335.91C219.846 336.572 220.004 337.342 220.004 338.22V338.851H212.35V338.127H219.197V338.007C219.191 337.388 219.064 336.813 218.817 336.281C218.575 335.749 218.226 335.319 217.768 334.992C217.317 334.664 216.763 334.5 216.108 334.5C215.427 334.5 214.827 334.689 214.308 335.066C213.788 335.443 213.383 335.96 213.092 336.615C212.802 337.265 212.656 338.001 212.656 338.823V339.231C212.656 340.017 212.814 340.731 213.13 341.375C213.451 342.012 213.887 342.522 214.438 342.905C214.988 343.283 215.619 343.471 216.33 343.471C216.912 343.471 217.44 343.369 217.917 343.165C218.399 342.961 218.835 342.605 219.225 342.098L219.744 342.488C219.416 342.964 218.974 343.366 218.418 343.694C217.861 344.022 217.156 344.186 216.302 344.186ZM228.933 341.495C228.933 341.204 228.856 340.917 228.701 340.632C228.553 340.342 228.271 340.073 227.857 339.825C227.449 339.572 226.849 339.361 226.057 339.194C225.309 339.034 224.678 338.845 224.164 338.628C223.651 338.406 223.261 338.118 222.995 337.766C222.736 337.407 222.606 336.955 222.606 336.411C222.606 335.923 222.745 335.48 223.023 335.084C223.302 334.689 223.697 334.373 224.211 334.138C224.73 333.897 225.346 333.776 226.057 333.776C226.818 333.776 227.47 333.903 228.014 334.157C228.559 334.404 228.976 334.75 229.267 335.196C229.558 335.635 229.703 336.139 229.703 336.708H228.896C228.896 336.133 228.652 335.623 228.163 335.177C227.674 334.726 226.972 334.5 226.057 334.5C225.432 334.5 224.925 334.596 224.535 334.788C224.146 334.973 223.861 335.211 223.682 335.502C223.503 335.786 223.413 336.08 223.413 336.383C223.413 336.699 223.481 336.986 223.617 337.246C223.759 337.5 224.034 337.732 224.443 337.942C224.857 338.146 225.469 338.341 226.28 338.526C227.084 338.706 227.739 338.925 228.246 339.185C228.754 339.439 229.128 339.751 229.369 340.122C229.616 340.487 229.74 340.935 229.74 341.467C229.74 341.999 229.592 342.472 229.295 342.887C228.998 343.295 228.58 343.613 228.042 343.842C227.504 344.071 226.864 344.186 226.122 344.186C225.293 344.186 224.591 344.053 224.016 343.787C223.447 343.521 223.014 343.168 222.717 342.729C222.426 342.29 222.281 341.82 222.281 341.319H223.088C223.125 341.863 223.302 342.293 223.617 342.608C223.932 342.918 224.316 343.137 224.767 343.267C225.219 343.397 225.67 343.462 226.122 343.462C226.74 343.462 227.257 343.369 227.671 343.184C228.086 342.992 228.398 342.744 228.608 342.441C228.825 342.138 228.933 341.823 228.933 341.495ZM236.544 334.667H231.702V333.962H236.544V334.667ZM234.364 331.318V341.579C234.364 342.104 234.429 342.503 234.559 342.775C234.689 343.041 234.862 343.221 235.079 343.313C235.295 343.4 235.527 343.443 235.774 343.443C235.954 343.443 236.118 343.437 236.266 343.425C236.421 343.406 236.572 343.385 236.721 343.36L236.786 344.056C236.65 344.099 236.47 344.13 236.248 344.148C236.031 344.173 235.836 344.186 235.663 344.186C235.243 344.186 234.871 344.108 234.55 343.954C234.234 343.799 233.987 343.533 233.808 343.156C233.634 342.772 233.548 342.247 233.548 341.579V331.318H234.364ZM245.779 336.977C245.779 336.198 245.535 335.589 245.047 335.149C244.558 334.71 243.859 334.491 242.95 334.491C242.393 334.491 241.889 334.59 241.438 334.788C240.992 334.986 240.643 335.255 240.389 335.595C240.136 335.935 240.009 336.312 240.009 336.727L239.202 336.717C239.202 336.204 239.36 335.725 239.675 335.279C239.997 334.834 240.442 334.472 241.011 334.194C241.58 333.916 242.236 333.776 242.978 333.776C243.683 333.776 244.307 333.897 244.852 334.138C245.396 334.373 245.82 334.729 246.123 335.205C246.432 335.681 246.587 336.278 246.587 336.996V341.94C246.587 342.293 246.611 342.655 246.661 343.026C246.71 343.391 246.778 343.681 246.865 343.898V344H245.984C245.916 343.771 245.863 343.487 245.826 343.146C245.795 342.806 245.779 342.475 245.779 342.154V336.977ZM246.039 338.962H243.646C242.427 338.962 241.472 339.182 240.779 339.621C240.092 340.06 239.749 340.642 239.749 341.365C239.749 341.94 239.969 342.432 240.408 342.84C240.853 343.249 241.441 343.453 242.171 343.453C242.832 343.453 243.417 343.338 243.924 343.109C244.431 342.874 244.855 342.559 245.195 342.163C245.541 341.767 245.792 341.316 245.946 340.809L246.299 341.356C246.2 341.684 246.039 342.015 245.817 342.349C245.594 342.676 245.306 342.979 244.954 343.258C244.607 343.536 244.196 343.762 243.72 343.935C243.25 344.102 242.712 344.186 242.106 344.186C241.469 344.186 240.912 344.068 240.436 343.833C239.959 343.592 239.591 343.261 239.332 342.84C239.072 342.414 238.942 341.934 238.942 341.402C238.942 340.456 239.35 339.698 240.167 339.129C240.989 338.56 242.118 338.276 243.553 338.276H246.021L246.039 338.962ZM250.988 344H250.181V333.962H250.97L250.988 336.077V344ZM250.45 337.831C250.518 337.107 250.716 336.439 251.044 335.827C251.378 335.208 251.826 334.713 252.389 334.342C252.952 333.965 253.617 333.776 254.384 333.776C255.379 333.776 256.165 334.052 256.74 334.602C257.321 335.146 257.612 336.052 257.612 337.32V344H256.805V337.339C256.805 336.603 256.694 336.031 256.471 335.623C256.255 335.214 255.948 334.927 255.553 334.76C255.163 334.587 254.715 334.5 254.207 334.5C253.614 334.5 253.106 334.63 252.686 334.89C252.265 335.143 251.922 335.468 251.656 335.864C251.396 336.26 251.202 336.671 251.072 337.098C250.942 337.518 250.871 337.899 250.858 338.239L250.45 337.831ZM257.065 337.255C257.133 336.649 257.334 336.083 257.668 335.558C258.002 335.026 258.453 334.596 259.022 334.268C259.591 333.94 260.253 333.776 261.008 333.776C261.7 333.776 262.288 333.903 262.77 334.157C263.259 334.404 263.63 334.8 263.884 335.344C264.137 335.889 264.264 336.6 264.264 337.478V344H263.457V337.478C263.457 336.693 263.346 336.086 263.123 335.66C262.906 335.227 262.603 334.924 262.214 334.75C261.824 334.577 261.373 334.494 260.859 334.5C260.321 334.506 259.851 334.605 259.449 334.797C259.053 334.989 258.722 335.236 258.456 335.539C258.19 335.836 257.986 336.148 257.844 336.476C257.708 336.804 257.631 337.113 257.612 337.404L257.065 337.255ZM268.554 347.859H267.756V333.962H268.517L268.554 335.892V347.859ZM275.642 339.074C275.642 340.088 275.491 340.979 275.188 341.746C274.891 342.513 274.458 343.112 273.889 343.545C273.326 343.972 272.646 344.186 271.848 344.186C271.062 344.186 270.391 344.034 269.835 343.731C269.284 343.428 268.842 343.02 268.508 342.506C268.18 341.993 267.964 341.421 267.858 340.79V337.45C267.994 336.733 268.23 336.099 268.564 335.548C268.897 334.998 269.334 334.565 269.872 334.25C270.416 333.934 271.065 333.776 271.82 333.776C272.63 333.776 273.32 333.984 273.889 334.398C274.458 334.812 274.891 335.403 275.188 336.17C275.491 336.931 275.642 337.834 275.642 338.879V339.074ZM274.826 338.879C274.826 338.044 274.711 337.299 274.482 336.643C274.26 335.981 273.917 335.462 273.453 335.084C272.995 334.701 272.411 334.509 271.699 334.509C271.118 334.509 270.626 334.605 270.224 334.797C269.828 334.989 269.501 335.239 269.241 335.548C268.981 335.851 268.78 336.179 268.638 336.532C268.495 336.884 268.39 337.218 268.322 337.534V340.781C268.434 341.269 268.628 341.718 268.907 342.126C269.185 342.528 269.556 342.853 270.02 343.1C270.49 343.341 271.056 343.462 271.718 343.462C272.423 343.462 273.004 343.27 273.462 342.887C273.92 342.503 274.26 341.984 274.482 341.328C274.711 340.666 274.826 339.915 274.826 339.074V338.879ZM285.007 336.977C285.007 336.198 284.763 335.589 284.274 335.149C283.786 334.71 283.087 334.491 282.177 334.491C281.621 334.491 281.117 334.59 280.665 334.788C280.22 334.986 279.87 335.255 279.617 335.595C279.363 335.935 279.237 336.312 279.237 336.727L278.429 336.717C278.429 336.204 278.587 335.725 278.903 335.279C279.224 334.834 279.669 334.472 280.238 334.194C280.808 333.916 281.463 333.776 282.205 333.776C282.91 333.776 283.535 333.897 284.079 334.138C284.624 334.373 285.047 334.729 285.35 335.205C285.66 335.681 285.814 336.278 285.814 336.996V341.94C285.814 342.293 285.839 342.655 285.888 343.026C285.938 343.391 286.006 343.681 286.092 343.898V344H285.211C285.143 343.771 285.091 343.487 285.053 343.146C285.023 342.806 285.007 342.475 285.007 342.154V336.977ZM285.267 338.962H282.873C281.655 338.962 280.699 339.182 280.007 339.621C279.32 340.06 278.977 340.642 278.977 341.365C278.977 341.94 279.196 342.432 279.635 342.84C280.081 343.249 280.668 343.453 281.398 343.453C282.06 343.453 282.644 343.338 283.152 343.109C283.659 342.874 284.082 342.559 284.423 342.163C284.769 341.767 285.019 341.316 285.174 340.809L285.527 341.356C285.428 341.684 285.267 342.015 285.044 342.349C284.822 342.676 284.534 342.979 284.181 343.258C283.835 343.536 283.424 343.762 282.947 343.935C282.477 344.102 281.939 344.186 281.333 344.186C280.696 344.186 280.14 344.068 279.663 343.833C279.187 343.592 278.819 343.261 278.559 342.84C278.3 342.414 278.17 341.934 278.17 341.402C278.17 340.456 278.578 339.698 279.394 339.129C280.217 338.56 281.346 338.276 282.78 338.276H285.248L285.267 338.962ZM2.30078 367V355.626C2.30078 354.636 2.54818 353.879 3.04297 353.353C3.54395 352.821 4.23047 352.555 5.10254 352.555C5.29427 352.555 5.4891 352.568 5.68701 352.592C5.89111 352.611 6.08903 352.651 6.28076 352.713L6.20654 353.418C6.04574 353.375 5.88493 353.344 5.72412 353.325C5.5695 353.3 5.37777 353.288 5.14893 353.288C4.51807 353.288 4.02018 353.492 3.65527 353.9C3.29036 354.309 3.10791 354.884 3.10791 355.626V367H2.30078ZM5.63135 357.667H0.603027V356.962H5.63135V357.667ZM9.1701 367H8.36297V352.75H9.1701V367ZM12.2171 361.805C12.2171 360.827 12.4027 359.962 12.7738 359.207C13.1449 358.452 13.6613 357.859 14.3231 357.426C14.9911 356.993 15.7673 356.776 16.6517 356.776C17.5485 356.776 18.3278 356.993 18.9896 357.426C19.6576 357.859 20.174 358.452 20.5389 359.207C20.91 359.962 21.0956 360.827 21.0956 361.805V362.157C21.0956 363.128 20.91 363.994 20.5389 364.755C20.174 365.516 19.6607 366.112 18.9989 366.545C18.3371 366.972 17.5609 367.186 16.6703 367.186C15.7796 367.186 15.0004 366.972 14.3324 366.545C13.6644 366.112 13.1449 365.516 12.7738 364.755C12.4027 363.994 12.2171 363.128 12.2171 362.157V361.805ZM13.0243 362.157C13.0243 362.918 13.1665 363.626 13.451 364.282C13.7355 364.937 14.1468 365.466 14.6849 365.868C15.2292 366.264 15.891 366.462 16.6703 366.462C17.4434 366.462 18.099 366.264 18.6371 365.868C19.1752 365.466 19.5834 364.937 19.8617 364.282C20.1462 363.626 20.2884 362.918 20.2884 362.157V361.805C20.2884 361.05 20.1462 360.348 19.8617 359.699C19.5772 359.043 19.1659 358.514 18.6278 358.112C18.0897 357.704 17.431 357.5 16.6517 357.5C15.8848 357.5 15.2292 357.704 14.6849 358.112C14.1468 358.514 13.7355 359.043 13.451 359.699C13.1665 360.348 13.0243 361.05 13.0243 361.805V362.157ZM24.8384 367H24.0313V356.962H24.8291L24.8384 358.669V367ZM28.5679 357.611C28.4566 357.593 28.3422 357.58 28.2246 357.574C28.1133 357.562 27.9958 357.556 27.8721 357.556C27.1732 357.556 26.5918 357.732 26.128 358.084C25.6641 358.431 25.3116 358.901 25.0704 359.495C24.8353 360.082 24.7116 360.735 24.6993 361.452L24.3282 361.545C24.3282 360.636 24.455 359.822 24.7085 359.105C24.9683 358.388 25.361 357.822 25.8868 357.407C26.4125 356.987 27.0804 356.776 27.8907 356.776C28.0329 356.776 28.169 356.789 28.2989 356.813C28.4287 356.832 28.5308 356.857 28.605 356.888L28.5679 357.611ZM36.8381 359.977C36.8381 359.198 36.5938 358.589 36.1052 358.149C35.6166 357.71 34.9177 357.491 34.0085 357.491C33.4519 357.491 32.9478 357.59 32.4963 357.788C32.051 357.986 31.7016 358.255 31.448 358.595C31.1944 358.935 31.0676 359.312 31.0676 359.727L30.2605 359.717C30.2605 359.204 30.4182 358.725 30.7336 358.279C31.0552 357.834 31.5005 357.472 32.0696 357.194C32.6386 356.916 33.2942 356.776 34.0363 356.776C34.7414 356.776 35.3661 356.897 35.9104 357.138C36.4546 357.373 36.8783 357.729 37.1814 358.205C37.4906 358.681 37.6452 359.278 37.6452 359.996V364.94C37.6452 365.293 37.67 365.655 37.7195 366.026C37.7689 366.391 37.837 366.681 37.9236 366.898V367H37.0422C36.9742 366.771 36.9216 366.487 36.8845 366.146C36.8536 365.806 36.8381 365.475 36.8381 365.154V359.977ZM37.0979 361.962H34.7043C33.4859 361.962 32.5303 362.182 31.8376 362.621C31.1511 363.06 30.8078 363.642 30.8078 364.365C30.8078 364.94 31.0274 365.432 31.4665 365.84C31.9118 366.249 32.4994 366.453 33.2292 366.453C33.891 366.453 34.4755 366.338 34.9826 366.109C35.4898 365.874 35.9135 365.559 36.2536 365.163C36.6 364.767 36.8505 364.316 37.0051 363.809L37.3576 364.356C37.2587 364.684 37.0979 365.015 36.8752 365.349C36.6526 365.676 36.365 365.979 36.0124 366.258C35.6661 366.536 35.2548 366.762 34.7785 366.935C34.3085 367.102 33.7704 367.186 33.1643 367.186C32.5272 367.186 31.9706 367.068 31.4944 366.833C31.0181 366.592 30.6501 366.261 30.3904 365.84C30.1306 365.414 30.0007 364.934 30.0007 364.402C30.0007 363.456 30.4089 362.698 31.2253 362.129C32.0479 361.56 33.1766 361.276 34.6115 361.276H37.0793L37.0979 361.962ZM42.2509 367H41.4437V352.75H42.2509V367Z" fill="#43444A"/>
<path d="M6.09521 394.492C6.99202 394.492 7.77751 394.644 8.45166 394.947C9.132 395.25 9.66081 395.695 10.0381 396.283C10.4154 396.864 10.604 397.578 10.604 398.426C10.604 399.075 10.4648 399.663 10.1865 400.188C9.91439 400.708 9.5402 401.141 9.06396 401.487C8.58773 401.827 8.04964 402.053 7.44971 402.165L7.10645 402.294H2.18018L2.16162 401.562H6.44775C7.18994 401.562 7.80534 401.413 8.29395 401.116C8.78874 400.813 9.15983 400.424 9.40723 399.947C9.65462 399.465 9.77832 398.958 9.77832 398.426C9.77832 397.43 9.45361 396.648 8.8042 396.079C8.15479 395.51 7.25179 395.225 6.09521 395.225H2.56982V408H1.75342V394.492H6.09521ZM6.70752 402.007L7.6167 401.988L11.1792 407.87V408H10.3071L6.70752 402.007ZM18.6144 394.78H17.8908V392.507H18.6144V394.78ZM18.6515 409.93H17.9279V407.731H18.6515V409.93ZM21.3884 404.734C21.3884 404.24 21.2894 403.813 21.0915 403.454C20.8936 403.095 20.5596 402.774 20.0895 402.489C19.6195 402.199 18.9762 401.908 18.1598 401.617C17.3805 401.357 16.7064 401.073 16.1374 400.764C15.5746 400.454 15.1385 400.065 14.8293 399.595C14.5262 399.118 14.3747 398.509 14.3747 397.767C14.3747 397.062 14.5324 396.45 14.8478 395.93C15.1633 395.411 15.6086 395.009 16.1838 394.724C16.7651 394.44 17.4455 394.297 18.2248 394.297C19.035 394.297 19.7308 394.455 20.3122 394.771C20.8936 395.086 21.3389 395.547 21.6481 396.153C21.9574 396.753 22.112 397.492 22.112 398.37H21.3049C21.3049 397.418 21.042 396.623 20.5163 395.986C19.9968 395.349 19.2329 395.03 18.2248 395.03C17.5321 395.03 16.9569 395.16 16.4992 395.42C16.0477 395.674 15.7137 396.007 15.4972 396.422C15.2808 396.83 15.1725 397.272 15.1725 397.749C15.1725 398.231 15.256 398.652 15.423 399.01C15.5962 399.363 15.9178 399.688 16.3879 399.984C16.8579 400.281 17.5352 400.578 18.4196 400.875C19.1927 401.135 19.8607 401.422 20.4235 401.738C20.9863 402.047 21.4224 402.437 21.7316 402.907C22.0409 403.377 22.1955 403.98 22.1955 404.716C22.1955 405.439 22.0285 406.061 21.6945 406.581C21.3667 407.1 20.9059 407.499 20.3122 407.777C19.7184 408.056 19.0226 408.195 18.2248 408.195C17.6991 408.195 17.1795 408.127 16.6662 407.991C16.1528 407.855 15.689 407.632 15.2746 407.323C14.8602 407.007 14.5293 406.593 14.2819 406.08C14.0345 405.56 13.9108 404.92 13.9108 404.159H14.7179C14.7179 404.79 14.8231 405.319 15.0334 405.746C15.2437 406.172 15.5189 406.513 15.8591 406.766C16.2054 407.014 16.5858 407.193 17.0002 407.304C17.4146 407.409 17.8228 407.462 18.2248 407.462C18.8928 407.462 19.4618 407.335 19.9318 407.082C20.4019 406.828 20.7606 406.494 21.008 406.08C21.2616 405.665 21.3884 405.217 21.3884 404.734ZM38.6245 408H30.3492V407.323L34.7745 402.257C35.3373 401.62 35.7888 401.054 36.1289 400.56C36.4691 400.059 36.7165 399.601 36.8711 399.187C37.0319 398.766 37.1123 398.364 37.1123 397.98C37.1123 397.096 36.8526 396.385 36.333 395.847C35.8135 395.302 35.0528 395.03 34.0508 395.03C33.42 395.03 32.8602 395.173 32.3716 395.457C31.8892 395.742 31.5119 396.134 31.2398 396.635C30.9738 397.136 30.8409 397.705 30.8409 398.342H30.0337C30.0337 397.606 30.1976 396.932 30.5254 396.32C30.8594 395.708 31.3264 395.219 31.9263 394.854C32.5262 394.489 33.2344 394.307 34.0508 394.307C35.2445 394.307 36.1877 394.622 36.8804 395.253C37.5793 395.878 37.9287 396.771 37.9287 397.934C37.9287 398.485 37.7958 399.038 37.5298 399.595C37.2701 400.151 36.933 400.705 36.5186 401.255C36.1042 401.8 35.6651 402.338 35.2012 402.87L31.3604 407.276H38.6245V408ZM43.1003 407.406C44.0775 407.406 44.9094 407.264 45.5959 406.979C46.2824 406.689 46.8391 406.278 47.2658 405.746C47.6926 405.214 48.0049 404.58 48.2029 403.844C48.4008 403.108 48.4997 402.294 48.4997 401.404V399.613C48.4997 398.599 48.3575 397.755 48.073 397.081C47.7946 396.4 47.3957 395.89 46.8762 395.55C46.3567 395.203 45.7444 395.03 45.0393 395.03C44.3713 395.03 43.793 395.222 43.3044 395.605C42.8158 395.983 42.4385 396.478 42.1726 397.09C41.9128 397.702 41.7829 398.358 41.7829 399.057C41.7829 399.706 41.9066 400.325 42.154 400.912C42.4014 401.493 42.7601 401.97 43.2302 402.341C43.7002 402.706 44.2723 402.888 44.9465 402.888C45.5526 402.888 46.0845 402.774 46.5422 402.545C46.9999 402.316 47.3834 402.022 47.6926 401.664C48.0018 401.305 48.2369 400.924 48.3977 400.522C48.5585 400.114 48.642 399.734 48.6482 399.381L49.0749 399.363C49.0749 399.957 48.9667 400.513 48.7502 401.033C48.5399 401.546 48.2431 401.998 47.8596 402.387C47.4761 402.771 47.0308 403.071 46.5237 403.287C46.0165 403.504 45.466 403.612 44.8723 403.612C44.0559 403.612 43.357 403.402 42.7756 402.981C42.2004 402.554 41.7582 401.994 41.4489 401.302C41.1397 400.609 40.9851 399.867 40.9851 399.075C40.9851 398.209 41.149 397.418 41.4768 396.7C41.8046 395.977 42.2684 395.398 42.8684 394.965C43.4745 394.526 44.1889 394.307 45.0114 394.307C45.7103 394.307 46.3257 394.427 46.8576 394.668C47.3957 394.91 47.8441 395.262 48.2029 395.726C48.5678 396.184 48.843 396.743 49.0285 397.405C49.2141 398.067 49.3069 398.819 49.3069 399.66V400.949C49.3069 401.803 49.2357 402.597 49.0935 403.333C48.9512 404.063 48.7255 404.725 48.4162 405.319C48.1132 405.913 47.7173 406.42 47.2287 406.84C46.7463 407.261 46.1618 407.586 45.4753 407.814C44.795 408.037 44.0033 408.148 43.1003 408.148H42.822L42.8313 407.406H43.1003ZM53.4301 407.647C53.4301 408.216 53.3249 408.739 53.1146 409.215C52.9044 409.698 52.626 410.109 52.2797 410.449L51.7787 410.06C51.9704 409.812 52.1282 409.565 52.2519 409.317C52.3817 409.076 52.4776 408.819 52.5395 408.547C52.6013 408.281 52.6322 407.988 52.6322 407.666V406.386H53.4301V407.647ZM58.3048 407.406C59.282 407.406 60.1138 407.264 60.8004 406.979C61.4869 406.689 62.0435 406.278 62.4703 405.746C62.897 405.214 63.2094 404.58 63.4073 403.844C63.6052 403.108 63.7042 402.294 63.7042 401.404V399.613C63.7042 398.599 63.5619 397.755 63.2774 397.081C62.9991 396.4 62.6002 395.89 62.0806 395.55C61.5611 395.203 60.9488 395.03 60.2437 395.03C59.5758 395.03 58.9975 395.222 58.5089 395.605C58.0203 395.983 57.643 396.478 57.377 397.09C57.1173 397.702 56.9874 398.358 56.9874 399.057C56.9874 399.706 57.1111 400.325 57.3585 400.912C57.6059 401.493 57.9646 401.97 58.4346 402.341C58.9047 402.706 59.4768 402.888 60.151 402.888C60.7571 402.888 61.289 402.774 61.7467 402.545C62.2043 402.316 62.5878 402.022 62.897 401.664C63.2063 401.305 63.4413 400.924 63.6021 400.522C63.7629 400.114 63.8464 399.734 63.8526 399.381L64.2794 399.363C64.2794 399.957 64.1711 400.513 63.9547 401.033C63.7444 401.546 63.4475 401.998 63.064 402.387C62.6806 402.771 62.2353 403.071 61.7281 403.287C61.2209 403.504 60.6705 403.612 60.0767 403.612C59.2603 403.612 58.5614 403.402 57.9801 402.981C57.4049 402.554 56.9626 401.994 56.6534 401.302C56.3442 400.609 56.1895 399.867 56.1895 399.075C56.1895 398.209 56.3534 397.418 56.6812 396.7C57.009 395.977 57.4729 395.398 58.0728 394.965C58.6789 394.526 59.3933 394.307 60.2159 394.307C60.9148 394.307 61.5302 394.427 62.0621 394.668C62.6002 394.91 63.0486 395.262 63.4073 395.726C63.7722 396.184 64.0474 396.743 64.233 397.405C64.4185 398.067 64.5113 398.819 64.5113 399.66V400.949C64.5113 401.803 64.4402 402.597 64.2979 403.333C64.1557 404.063 63.9299 404.725 63.6207 405.319C63.3176 405.913 62.9218 406.42 62.4332 406.84C61.9508 407.261 61.3663 407.586 60.6798 407.814C59.9994 408.037 59.2078 408.148 58.3048 408.148H58.0264L58.0357 407.406H58.3048ZM75.6111 402.424C75.6111 403.674 75.4534 404.725 75.1379 405.579C74.8225 406.432 74.3587 407.082 73.7463 407.527C73.1402 407.966 72.4011 408.186 71.5291 408.186C70.6694 408.186 69.9303 407.966 69.3118 407.527C68.6995 407.082 68.2294 406.432 67.9016 405.579C67.58 404.725 67.4192 403.674 67.4192 402.424V400.04C67.4192 398.797 67.5769 397.749 67.8923 396.895C68.214 396.042 68.6809 395.395 69.2932 394.956C69.9055 394.517 70.6446 394.297 71.5105 394.297C72.3826 394.297 73.1217 394.517 73.7278 394.956C74.3401 395.395 74.8071 396.042 75.1287 396.895C75.4503 397.749 75.6111 398.797 75.6111 400.04V402.424ZM74.804 399.975C74.804 398.948 74.6803 398.064 74.4329 397.322C74.1917 396.58 73.8267 396.011 73.3381 395.615C72.8557 395.219 72.2465 395.021 71.5105 395.021C70.7807 395.021 70.1684 395.219 69.6736 395.615C69.185 396.011 68.8201 396.58 68.5789 397.322C68.3377 398.064 68.217 398.948 68.217 399.975V402.48C68.217 403.494 68.3377 404.376 68.5789 405.124C68.8263 405.866 69.1974 406.441 69.6921 406.85C70.1869 407.258 70.7992 407.462 71.5291 407.462C72.2651 407.462 72.8743 407.258 73.3567 406.85C73.8391 406.441 74.2009 405.866 74.4421 405.124C74.6834 404.376 74.804 403.494 74.804 402.48V399.975Z" fill="#7E8089"/>
<path d="M0 401.441H76.7429V402.369H0V401.441Z" fill="#7E8089"/>
<path d="M7.4458 423.648C8.69613 423.648 9.76302 423.836 10.6465 424.21C11.5299 424.584 12.2038 425.138 12.668 425.872C13.1396 426.606 13.3755 427.508 13.3755 428.579C13.3755 429.402 13.2257 430.125 12.9263 430.746C12.6268 431.368 12.2 431.892 11.646 432.318C11.0994 432.738 10.4518 433.063 9.70312 433.295L8.82715 433.745H3.6499L3.62744 431.42H7.46826C8.1346 431.42 8.68864 431.304 9.13037 431.072C9.57959 430.84 9.91276 430.521 10.1299 430.117C10.3545 429.713 10.4668 429.252 10.4668 428.736C10.4668 427.897 10.2235 427.231 9.73682 426.737C9.25765 426.235 8.49398 425.984 7.4458 425.984H4.53711V440H1.63965V423.648H7.4458ZM7.10889 432.667L10.1523 432.655L14.0269 439.854V440H10.9272L7.10889 432.667ZM22.2363 424.401H20.4731V421.021H22.2363V424.401ZM22.0117 442.381H20.2598V439.371H22.0117V442.381ZM23.6289 435.732C23.6289 435.306 23.5428 434.931 23.3706 434.609C23.1984 434.287 22.9176 433.999 22.5283 433.745C22.1465 433.483 21.6261 433.239 20.9673 433.015C20.009 432.67 19.1704 432.288 18.4517 431.869C17.7404 431.442 17.1864 430.915 16.7896 430.286C16.4002 429.657 16.2056 428.874 16.2056 427.938C16.2056 427.01 16.4152 426.209 16.8345 425.535C17.2537 424.854 17.8452 424.33 18.6089 423.963C19.3726 423.596 20.2598 423.413 21.2705 423.413C22.3112 423.413 23.2096 423.618 23.9658 424.03C24.7295 424.442 25.3172 425.041 25.729 425.827C26.1483 426.613 26.3579 427.568 26.3579 428.691H23.584C23.584 427.755 23.3743 427.021 22.9551 426.49C22.5433 425.958 21.9743 425.692 21.248 425.692C20.7314 425.692 20.3047 425.79 19.9678 425.984C19.6309 426.179 19.3838 426.445 19.2266 426.782C19.0693 427.111 18.9907 427.493 18.9907 427.927C18.9907 428.339 19.0731 428.702 19.2378 429.017C19.4025 429.324 19.6795 429.604 20.0688 429.859C20.4657 430.113 21.0085 430.368 21.6973 430.623C22.6631 430.974 23.4979 431.364 24.2017 431.791C24.9129 432.217 25.4595 432.745 25.8413 433.374C26.2306 433.995 26.4253 434.774 26.4253 435.71C26.4253 436.676 26.2007 437.496 25.7515 438.169C25.3097 438.843 24.6883 439.356 23.8872 439.708C23.0936 440.06 22.1615 440.236 21.0908 440.236C20.4245 440.236 19.7619 440.146 19.103 439.966C18.4517 439.787 17.8602 439.495 17.3286 439.09C16.797 438.686 16.3703 438.151 16.0483 437.484C15.7339 436.811 15.5767 435.979 15.5767 434.991H18.3618C18.3618 435.568 18.4404 436.047 18.5977 436.429C18.7549 436.811 18.9645 437.114 19.2266 437.338C19.4961 437.556 19.7918 437.713 20.1138 437.81C20.4357 437.907 20.7614 437.956 21.0908 437.956C21.6449 437.956 22.109 437.862 22.4834 437.675C22.8577 437.488 23.1423 437.226 23.3369 436.889C23.5316 436.552 23.6289 436.167 23.6289 435.732ZM45.5171 440H34.5V438.08L39.8232 432.296C40.4072 431.652 40.8639 431.094 41.1934 430.623C41.5303 430.151 41.7661 429.728 41.9009 429.354C42.0356 428.972 42.103 428.601 42.103 428.242C42.103 427.486 41.8934 426.868 41.4741 426.389C41.0623 425.902 40.4709 425.659 39.6997 425.659C39.1007 425.659 38.5954 425.79 38.1836 426.052C37.7793 426.306 37.4761 426.658 37.2739 427.107C37.0718 427.557 36.9707 428.073 36.9707 428.657H34.1855C34.1855 427.699 34.4027 426.823 34.8369 426.029C35.2712 425.236 35.9038 424.603 36.7349 424.131C37.5659 423.66 38.5654 423.424 39.7334 423.424C41.3805 423.424 42.6533 423.832 43.5518 424.648C44.4502 425.464 44.8994 426.565 44.8994 427.95C44.8994 428.639 44.7534 429.316 44.4614 429.982C44.1694 430.649 43.7689 431.315 43.2598 431.981C42.7507 432.64 42.1667 433.318 41.5078 434.014L38.0151 437.765H45.5171V440ZM58.6118 440H47.5947V438.08L52.918 432.296C53.502 431.652 53.9587 431.094 54.2881 430.623C54.625 430.151 54.8608 429.728 54.9956 429.354C55.1304 428.972 55.1978 428.601 55.1978 428.242C55.1978 427.486 54.9881 426.868 54.5688 426.389C54.1571 425.902 53.5656 425.659 52.7944 425.659C52.1955 425.659 51.6901 425.79 51.2783 426.052C50.874 426.306 50.5708 426.658 50.3687 427.107C50.1665 427.557 50.0654 428.073 50.0654 428.657H47.2803C47.2803 427.699 47.4974 426.823 47.9316 426.029C48.3659 425.236 48.9985 424.603 49.8296 424.131C50.6606 423.66 51.6602 423.424 52.8281 423.424C54.4753 423.424 55.748 423.832 56.6465 424.648C57.5449 425.464 57.9941 426.565 57.9941 427.95C57.9941 428.639 57.8481 429.316 57.5562 429.982C57.2642 430.649 56.8636 431.315 56.3545 431.981C55.8454 432.64 55.2614 433.318 54.6025 434.014L51.1099 437.765H58.6118V440ZM63.4521 439.337C63.4521 440.116 63.2575 440.913 62.8682 441.729C62.4788 442.546 61.966 443.223 61.3296 443.762L59.8359 442.909C60.0456 442.572 60.2365 442.231 60.4087 441.887C60.5809 441.542 60.7194 441.172 60.8242 440.775C60.929 440.378 60.9814 439.936 60.9814 439.45V437.361H63.4521V439.337ZM76.5806 433.149C76.5806 434.841 76.3597 436.208 75.918 437.249C75.4762 438.282 74.8548 439.038 74.0537 439.517C73.2526 439.989 72.3092 440.225 71.2236 440.225C70.153 440.225 69.2096 439.989 68.3936 439.517C67.585 439.038 66.9561 438.282 66.5068 437.249C66.0576 436.208 65.833 434.841 65.833 433.149V430.443C65.833 428.743 66.0539 427.381 66.4956 426.355C66.9448 425.329 67.5737 424.584 68.3823 424.12C69.1909 423.656 70.1305 423.424 71.2012 423.424C72.2868 423.424 73.2301 423.656 74.0312 424.12C74.8398 424.584 75.465 425.329 75.9067 426.355C76.356 427.381 76.5806 428.743 76.5806 430.443V433.149ZM73.7954 430.027C73.7954 428.957 73.6943 428.103 73.4922 427.467C73.2975 426.83 73.0055 426.374 72.6162 426.097C72.2344 425.812 71.7627 425.67 71.2012 425.67C70.6546 425.67 70.1867 425.812 69.7974 426.097C69.4155 426.374 69.1235 426.83 68.9214 427.467C68.7192 428.103 68.6182 428.957 68.6182 430.027V433.542C68.6182 434.613 68.7192 435.474 68.9214 436.125C69.131 436.777 69.4305 437.252 69.8198 437.552C70.2091 437.844 70.6771 437.99 71.2236 437.99C71.7852 437.99 72.2568 437.844 72.6387 437.552C73.0205 437.252 73.3088 436.777 73.5034 436.125C73.6981 435.474 73.7954 434.613 73.7954 433.542V430.027ZM89.6753 433.149C89.6753 434.841 89.4544 436.208 89.0127 437.249C88.571 438.282 87.9495 439.038 87.1484 439.517C86.3473 439.989 85.404 440.225 84.3184 440.225C83.2477 440.225 82.3044 439.989 81.4883 439.517C80.6797 439.038 80.0508 438.282 79.6016 437.249C79.1523 436.208 78.9277 434.841 78.9277 433.149V430.443C78.9277 428.743 79.1486 427.381 79.5903 426.355C80.0396 425.329 80.6685 424.584 81.4771 424.12C82.2856 423.656 83.2253 423.424 84.2959 423.424C85.3815 423.424 86.3249 423.656 87.126 424.12C87.9346 424.584 88.5597 425.329 89.0015 426.355C89.4507 427.381 89.6753 428.743 89.6753 430.443V433.149ZM86.8901 430.027C86.8901 428.957 86.7891 428.103 86.5869 427.467C86.3923 426.83 86.1003 426.374 85.7109 426.097C85.3291 425.812 84.8574 425.67 84.2959 425.67C83.7493 425.67 83.2814 425.812 82.8921 426.097C82.5103 426.374 82.2183 426.83 82.0161 427.467C81.814 428.103 81.7129 428.957 81.7129 430.027V433.542C81.7129 434.613 81.814 435.474 82.0161 436.125C82.2257 436.777 82.5252 437.252 82.9146 437.552C83.3039 437.844 83.7718 437.99 84.3184 437.99C84.8799 437.99 85.3516 437.844 85.7334 437.552C86.1152 437.252 86.4035 436.777 86.5981 436.125C86.7928 435.474 86.8901 434.613 86.8901 433.542V430.027Z" fill="#43444A"/>
<rect x="17" y="17" width="46" height="46" rx="3" fill="white"/>
<path d="M46.4359 35.5623L43.6812 31.583C43.477 31.2887 43.2056 31.0473 42.8896 30.8787C42.5735 30.7102 42.2218 30.6194 41.8636 30.6139L36.6358 30.5389H36.625C33.926 30.5389 31.8551 30.9904 30.5214 33.1937C29.2797 35.2445 28.75 38.7381 28.75 44.875V45.625H30.4636L29.3605 51.25H30.8891L31.9922 45.625H32.5C33.7249 45.6359 34.905 45.1646 35.7854 44.3128C36.5813 43.5513 37.1553 42.5095 37.4456 41.3L37.4483 41.2891L38.7347 35.125H37.2023L35.9845 40.9603C35.6137 42.4922 34.5047 44.125 32.5 44.125H30.2528C30.2935 38.8156 30.777 35.6678 31.8046 33.9702C32.6671 32.5452 33.9278 32.0394 36.6198 32.0387L41.842 32.1137C41.9614 32.1155 42.0787 32.1458 42.184 32.2019C42.2894 32.2581 42.3799 32.3386 42.4479 32.4367L45.5641 36.9376L49.75 37.6353V38.4303L49.0519 42.1531C48.8459 43.2519 48.4938 43.8054 47.0495 43.9789L41.1289 44.9918L41.0898 51.25H42.5898L42.6211 46.2581L47.2476 45.4659C48.2957 45.337 49.069 44.9993 49.6113 44.4336C50.0749 43.9499 50.3571 43.332 50.5263 42.4296L51.25 38.5697V36.3646L46.4359 35.5623Z" fill="#7E8089"/>
<rect x="76" y="17" width="46" height="46" rx="3" fill="white"/>
<path d="M106.442 36.7491C106.271 36.2468 105.947 35.8106 105.516 35.502C105.085 35.1933 104.567 35.0277 104.037 35.0285H102V29L101.144 29.1223C99.2017 29.3997 97.689 30.3838 96.648 32.0473C95.8975 33.2464 95.5486 34.5692 95.3867 35.5585C94.2689 36.4186 93.2964 37.6028 92.4928 39.0835C91.8155 40.3312 91.2548 41.7936 90.8263 43.4302C90.1022 46.1953 90.0042 48.489 90.0004 48.5853L90 51.2397H91.4998V48.6318C91.5185 48.246 91.9908 39.8029 96.5169 36.5879L96.7822 36.3995L96.8258 36.0769C97.0515 34.4069 97.8315 31.6487 100.5 30.8009V36.5285H104.037C104.254 36.5279 104.465 36.5952 104.642 36.7211C104.818 36.847 104.951 37.0252 105.021 37.2304C105.619 38.9955 106.647 41.2043 108.248 42.2423L107.766 44.0483C107.599 44.6924 107.217 45.2605 106.685 45.6596C106.152 46.0587 105.5 46.2652 104.835 46.2454C103.491 46.205 102.092 46.3804 100.678 46.7662L100.125 46.9169V51.2397H101.625V48.0742C102.661 47.8293 103.725 47.7185 104.79 47.7447C105.792 47.7723 106.775 47.4604 107.578 46.8597C108.382 46.2589 108.959 45.4045 109.216 44.4348L110.017 41.431L109.42 41.1754C108.304 40.6972 107.247 39.1253 106.442 36.7491Z" fill="#7E8089"/>
<path d="M203 20C203 18.3431 204.343 17 206 17H268C269.657 17 271 18.3431 271 20V60C271 61.6569 269.657 63 268 63H206C204.343 63 203 61.6569 203 60V20Z" fill="#141518"/>
<path d="M220.401 42.3428H215.104V40.0791H220.401V42.3428ZM229.711 47H226.909V36.8042L223.745 37.7598V35.4961L229.423 33.4736H229.711V47ZM234.947 40.376L235.736 33.4922H243.38V35.8022H238.036L237.712 38.604C237.885 38.5112 238.148 38.4061 238.5 38.2886C238.859 38.1711 239.261 38.1123 239.706 38.1123C240.585 38.1123 241.33 38.2917 241.942 38.6504C242.555 39.0091 243.022 39.5286 243.343 40.209C243.671 40.8831 243.835 41.6995 243.835 42.6582C243.835 43.4499 243.668 44.1921 243.334 44.8848C243.006 45.5713 242.502 46.1279 241.822 46.5547C241.141 46.9753 240.282 47.1855 239.243 47.1855C238.649 47.1855 238.077 47.0959 237.526 46.9165C236.982 46.7371 236.493 46.4774 236.06 46.1372C235.627 45.7909 235.281 45.3734 235.021 44.8848C234.768 44.39 234.635 43.8333 234.622 43.2148H237.406C237.455 43.7467 237.641 44.1673 237.962 44.4766C238.284 44.7796 238.704 44.9312 239.224 44.9312C239.663 44.9312 240.016 44.8229 240.282 44.6064C240.548 44.3838 240.739 44.0869 240.857 43.7158C240.974 43.3447 241.033 42.9334 241.033 42.4819C241.033 42.0243 240.956 41.6253 240.801 41.2852C240.653 40.9388 240.424 40.6698 240.115 40.478C239.805 40.2863 239.41 40.1904 238.927 40.1904C238.451 40.1904 238.083 40.2677 237.823 40.4224C237.563 40.577 237.35 40.744 237.183 40.9233L234.947 40.376ZM246.065 36.0898C246.065 35.5765 246.177 35.1095 246.399 34.689C246.628 34.2684 246.959 33.9313 247.392 33.6777C247.831 33.4242 248.372 33.2974 249.016 33.2974C249.671 33.2974 250.219 33.4242 250.658 33.6777C251.097 33.9313 251.425 34.2684 251.641 34.689C251.864 35.1095 251.975 35.5765 251.975 36.0898V36.8042C251.975 37.3052 251.864 37.766 251.641 38.1865C251.425 38.6071 251.097 38.9442 250.658 39.1978C250.225 39.4513 249.684 39.5781 249.034 39.5781C248.385 39.5781 247.841 39.4513 247.401 39.1978C246.962 38.9442 246.628 38.6071 246.399 38.1865C246.177 37.766 246.065 37.3052 246.065 36.8042V36.0898ZM247.912 36.8042C247.912 37.0083 247.952 37.2 248.032 37.3794C248.119 37.5526 248.246 37.6948 248.413 37.8062C248.58 37.9175 248.787 37.9731 249.034 37.9731C249.282 37.9731 249.486 37.9175 249.647 37.8062C249.807 37.6948 249.925 37.5526 249.999 37.3794C250.079 37.2 250.12 37.0083 250.12 36.8042V36.0898C250.12 35.8796 250.079 35.6847 249.999 35.5054C249.919 35.326 249.795 35.1807 249.628 35.0693C249.467 34.958 249.263 34.9023 249.016 34.9023C248.774 34.9023 248.57 34.958 248.403 35.0693C248.243 35.1807 248.119 35.326 248.032 35.5054C247.952 35.6847 247.912 35.8796 247.912 36.0898V36.8042ZM252.504 43.688C252.504 43.1808 252.615 42.717 252.838 42.2964C253.067 41.8758 253.401 41.5387 253.84 41.2852C254.279 41.0316 254.82 40.9048 255.463 40.9048C256.119 40.9048 256.663 41.0316 257.096 41.2852C257.535 41.5387 257.866 41.8758 258.089 42.2964C258.312 42.717 258.423 43.1808 258.423 43.688V44.4023C258.423 44.9095 258.312 45.3734 258.089 45.7939C257.872 46.2145 257.545 46.5516 257.106 46.8052C256.673 47.0588 256.131 47.1855 255.482 47.1855C254.833 47.1855 254.285 47.0588 253.84 46.8052C253.401 46.5516 253.067 46.2145 252.838 45.7939C252.615 45.3734 252.504 44.9095 252.504 44.4023V43.688ZM254.359 44.4023C254.359 44.6126 254.406 44.8075 254.499 44.9868C254.591 45.16 254.721 45.3022 254.888 45.4136C255.061 45.5249 255.259 45.5806 255.482 45.5806C255.773 45.5806 255.995 45.5249 256.15 45.4136C256.311 45.3022 256.419 45.16 256.475 44.9868C256.536 44.8075 256.567 44.6126 256.567 44.4023V43.688C256.567 43.3787 256.475 43.1066 256.289 42.8716C256.11 42.6304 255.835 42.5098 255.463 42.5098C255.092 42.5098 254.814 42.6304 254.628 42.8716C254.449 43.1066 254.359 43.3787 254.359 43.688V44.4023ZM249.572 45.998L248.227 45.2744L254.823 34.7168L256.168 35.4404L249.572 45.998Z" fill="white"/>
</svg>
