<svg width="290" height="477" viewBox="0 0 290 477" fill="none" xmlns="http://www.w3.org/2000/svg">
<rect width="288" height="305" rx="3" fill="#F5F5F5"/>
<path d="M2.60693 344H1.78125V330.492H2.60693V344ZM5.13037 336.625L2.30078 339.315L2.28223 338.359L4.62939 335.994L9.98242 330.492H11.0586L5.13037 336.625ZM4.4624 336.894L4.96338 336.207L11.5132 344H10.4927L4.4624 336.894ZM15.0519 344H14.2448V333.962H15.0519V344ZM14.0129 330.947C14.0129 330.767 14.0716 330.616 14.1891 330.492C14.3067 330.368 14.4613 330.307 14.653 330.307C14.8386 330.307 14.9901 330.368 15.1076 330.492C15.2313 330.616 15.2931 330.767 15.2931 330.947C15.2931 331.114 15.2313 331.259 15.1076 331.383C14.9901 331.5 14.8386 331.559 14.653 331.559C14.4613 331.559 14.3067 331.5 14.1891 331.383C14.0716 331.259 14.0129 331.114 14.0129 330.947ZM22.3944 334.667H17.5516V333.962H22.3944V334.667ZM20.2142 331.318V341.579C20.2142 342.104 20.2792 342.503 20.409 342.775C20.5389 343.041 20.7121 343.221 20.9286 343.313C21.145 343.4 21.377 343.443 21.6244 343.443C21.8037 343.443 21.9676 343.437 22.1161 343.425C22.2707 343.406 22.4222 343.385 22.5707 343.36L22.6356 344.056C22.4995 344.099 22.3202 344.13 22.0975 344.148C21.881 344.173 21.6862 344.186 21.513 344.186C21.0925 344.186 20.7214 344.108 20.3998 343.954C20.0843 343.799 19.8369 343.533 19.6576 343.156C19.4844 342.772 19.3978 342.247 19.3978 341.579V331.318H20.2142ZM31.6613 344H30.8357V330.492H31.6613V344ZM38.2668 337.524H31.2903V336.773H38.2668V337.524ZM39.2038 331.225H31.2903V330.492H39.2038V331.225ZM42.8632 344H42.0561V329.75H42.8632V344ZM52.8033 336.977C52.8033 336.198 52.559 335.589 52.0704 335.149C51.5818 334.71 50.8829 334.491 49.9737 334.491C49.4171 334.491 48.913 334.59 48.4615 334.788C48.0162 334.986 47.6667 335.255 47.4132 335.595C47.1596 335.935 47.0328 336.312 47.0328 336.727L46.2257 336.717C46.2257 336.204 46.3834 335.725 46.6988 335.279C47.0204 334.834 47.4657 334.472 48.0347 334.194C48.6038 333.916 49.2594 333.776 50.0015 333.776C50.7066 333.776 51.3313 333.897 51.8756 334.138C52.4198 334.373 52.8435 334.729 53.1466 335.205C53.4558 335.681 53.6104 336.278 53.6104 336.996V341.94C53.6104 342.293 53.6352 342.655 53.6846 343.026C53.7341 343.391 53.8022 343.681 53.8887 343.898V344H53.0074C52.9394 343.771 52.8868 343.487 52.8497 343.146C52.8188 342.806 52.8033 342.475 52.8033 342.154V336.977ZM53.0631 338.962H50.6695C49.4511 338.962 48.4955 339.182 47.8028 339.621C47.1163 340.06 46.773 340.642 46.773 341.365C46.773 341.94 46.9926 342.432 47.4317 342.84C47.877 343.249 48.4646 343.453 49.1944 343.453C49.8562 343.453 50.4407 343.338 50.9478 343.109C51.455 342.874 51.8787 342.559 52.2188 342.163C52.5652 341.767 52.8157 341.316 52.9703 340.809L53.3228 341.356C53.2239 341.684 53.0631 342.015 52.8404 342.349C52.6178 342.676 52.3302 342.979 51.9776 343.258C51.6313 343.536 51.22 343.762 50.7437 343.935C50.2737 344.102 49.7356 344.186 49.1295 344.186C48.4924 344.186 47.9358 344.068 47.4595 343.833C46.9833 343.592 46.6153 343.261 46.3555 342.84C46.0958 342.414 45.9659 341.934 45.9659 341.402C45.9659 340.456 46.3741 339.698 47.1905 339.129C48.0131 338.56 49.1418 338.276 50.5767 338.276H53.0445L53.0631 338.962ZM58.012 344H57.2048V333.962H57.9934L58.012 336.077V344ZM57.4739 337.831C57.5419 337.107 57.7398 336.439 58.0676 335.827C58.4016 335.208 58.85 334.713 59.4129 334.342C59.9757 333.965 60.6406 333.776 61.4075 333.776C62.4033 333.776 63.1887 334.052 63.7639 334.602C64.3453 335.146 64.636 336.052 64.636 337.32V344H63.8289V337.339C63.8289 336.603 63.7175 336.031 63.4949 335.623C63.2784 335.214 62.9723 334.927 62.5764 334.76C62.1868 334.587 61.7384 334.5 61.2312 334.5C60.6375 334.5 60.1303 334.63 59.7097 334.89C59.2892 335.143 58.9459 335.468 58.6799 335.864C58.4202 336.26 58.2254 336.671 58.0955 337.098C57.9656 337.518 57.8945 337.899 57.8821 338.239L57.4739 337.831ZM64.0886 337.255C64.1567 336.649 64.3577 336.083 64.6917 335.558C65.0256 335.026 65.4771 334.596 66.0462 334.268C66.6152 333.94 67.2769 333.776 68.0315 333.776C68.7242 333.776 69.3118 333.903 69.7942 334.157C70.2828 334.404 70.6539 334.8 70.9075 335.344C71.1611 335.889 71.2879 336.6 71.2879 337.478V344H70.4807V337.478C70.4807 336.693 70.3694 336.086 70.1467 335.66C69.9303 335.227 69.6272 334.924 69.2376 334.75C68.8479 334.577 68.3964 334.494 67.8831 334.5C67.345 334.506 66.8749 334.605 66.4729 334.797C66.0771 334.989 65.7462 335.236 65.4802 335.539C65.2143 335.836 65.0102 336.148 64.8679 336.476C64.7319 336.804 64.6546 337.113 64.636 337.404L64.0886 337.255ZM78.5375 344.186C77.6964 344.186 76.9387 343.975 76.2646 343.555C75.5904 343.128 75.0585 342.54 74.6689 341.792C74.2792 341.044 74.0844 340.19 74.0844 339.231V338.823C74.0844 337.821 74.2792 336.94 74.6689 336.179C75.0585 335.418 75.575 334.828 76.2182 334.407C76.8676 333.987 77.5758 333.776 78.3427 333.776C79.1406 333.776 79.8302 333.965 80.4116 334.342C80.9991 334.72 81.4506 335.242 81.7661 335.91C82.0815 336.572 82.2392 337.342 82.2392 338.22V338.851H74.5854V338.127H81.4321V338.007C81.4259 337.388 81.2991 336.813 81.0517 336.281C80.8105 335.749 80.461 335.319 80.0034 334.992C79.5519 334.664 78.9983 334.5 78.3427 334.5C77.6624 334.5 77.0624 334.689 76.5429 335.066C76.0234 335.443 75.6183 335.96 75.3276 336.615C75.0369 337.265 74.8915 338.001 74.8915 338.823V339.231C74.8915 340.017 75.0493 340.731 75.3647 341.375C75.6863 342.012 76.1223 342.522 76.6728 342.905C77.2232 343.283 77.8541 343.471 78.5654 343.471C79.1467 343.471 79.6756 343.369 80.1518 343.165C80.6342 342.961 81.0703 342.605 81.4599 342.098L81.9794 342.488C81.6516 342.964 81.2094 343.366 80.6528 343.694C80.0961 344.022 79.3911 344.186 78.5375 344.186ZM85.8707 344H85.0636V333.962H85.8522L85.8707 336.105V344ZM85.3234 337.831C85.3914 337.107 85.5955 336.439 85.9357 335.827C86.2758 335.208 86.7304 334.713 87.2994 334.342C87.8684 333.965 88.5302 333.776 89.2848 333.776C89.9589 333.776 90.531 333.903 91.0011 334.157C91.4773 334.404 91.8422 334.8 92.0958 335.344C92.3494 335.882 92.4762 336.597 92.4762 337.487V344H91.6783V337.478C91.6783 336.705 91.5701 336.105 91.3536 335.678C91.1433 335.245 90.8465 334.942 90.463 334.769C90.0857 334.59 89.6435 334.5 89.1363 334.5C88.555 334.5 88.0509 334.63 87.6241 334.89C87.2036 335.143 86.8541 335.468 86.5758 335.864C86.2975 336.26 86.0872 336.671 85.9449 337.098C85.8027 337.518 85.7223 337.899 85.7037 338.239L85.3234 337.831ZM103.492 333.962V343.842C103.492 344.702 103.332 345.444 103.01 346.069C102.695 346.7 102.243 347.182 101.656 347.516C101.074 347.856 100.385 348.026 99.5867 348.026C99.129 348.026 98.6899 347.958 98.2693 347.822C97.8488 347.686 97.4622 347.488 97.1097 347.229C96.7571 346.975 96.451 346.672 96.1912 346.319L96.6829 345.818C97.0787 346.313 97.5086 346.684 97.9725 346.932C98.4363 347.185 98.9589 347.312 99.5403 347.312C100.561 347.312 101.337 347.003 101.869 346.384C102.407 345.766 102.676 344.925 102.676 343.861V336.17L102.722 333.962H103.492ZM95.6067 338.879C95.6067 337.834 95.7583 336.931 96.0613 336.17C96.3706 335.403 96.8097 334.812 97.3787 334.398C97.9539 333.984 98.6404 333.776 99.4383 333.776C100.001 333.776 100.502 333.866 100.941 334.045C101.387 334.225 101.77 334.478 102.092 334.806C102.413 335.134 102.676 335.524 102.88 335.975C103.09 336.42 103.248 336.912 103.353 337.45V340.753C103.248 341.39 103.035 341.968 102.713 342.488C102.392 343.007 101.956 343.422 101.405 343.731C100.855 344.034 100.193 344.186 99.4197 344.186C98.6219 344.186 97.9384 343.972 97.3694 343.545C96.8004 343.112 96.3644 342.513 96.0613 341.746C95.7583 340.979 95.6067 340.088 95.6067 339.074V338.879ZM96.4139 339.074C96.4139 339.915 96.5252 340.663 96.7478 341.319C96.9767 341.974 97.32 342.494 97.7776 342.877C98.2353 343.261 98.8136 343.453 99.5125 343.453C100.187 343.453 100.753 343.329 101.21 343.082C101.668 342.834 102.033 342.506 102.305 342.098C102.583 341.69 102.778 341.238 102.889 340.744V337.534C102.821 337.218 102.716 336.884 102.574 336.532C102.432 336.179 102.234 335.851 101.98 335.548C101.727 335.239 101.399 334.989 100.997 334.797C100.601 334.605 100.112 334.509 99.5311 334.509C98.826 334.509 98.2415 334.701 97.7776 335.084C97.32 335.462 96.9767 335.981 96.7478 336.643C96.5252 337.299 96.4139 338.044 96.4139 338.879V339.074ZM106.428 338.805C106.428 337.827 106.614 336.962 106.985 336.207C107.356 335.452 107.872 334.859 108.534 334.426C109.202 333.993 109.978 333.776 110.863 333.776C111.76 333.776 112.539 333.993 113.201 334.426C113.869 334.859 114.385 335.452 114.75 336.207C115.121 336.962 115.307 337.827 115.307 338.805V339.157C115.307 340.128 115.121 340.994 114.75 341.755C114.385 342.516 113.872 343.112 113.21 343.545C112.548 343.972 111.772 344.186 110.881 344.186C109.991 344.186 109.211 343.972 108.543 343.545C107.875 343.112 107.356 342.516 106.985 341.755C106.614 340.994 106.428 340.128 106.428 339.157V338.805ZM107.235 339.157C107.235 339.918 107.378 340.626 107.662 341.282C107.947 341.937 108.358 342.466 108.896 342.868C109.44 343.264 110.102 343.462 110.881 343.462C111.654 343.462 112.31 343.264 112.848 342.868C113.386 342.466 113.794 341.937 114.073 341.282C114.357 340.626 114.499 339.918 114.499 339.157V338.805C114.499 338.05 114.357 337.348 114.073 336.699C113.788 336.043 113.377 335.514 112.839 335.112C112.301 334.704 111.642 334.5 110.863 334.5C110.096 334.5 109.44 334.704 108.896 335.112C108.358 335.514 107.947 336.043 107.662 336.699C107.378 337.348 107.235 338.05 107.235 338.805V339.157ZM124.184 347.859H123.386V333.962H124.147L124.184 335.892V347.859ZM131.272 339.074C131.272 340.088 131.12 340.979 130.817 341.746C130.52 342.513 130.087 343.112 129.518 343.545C128.956 343.972 128.275 344.186 127.477 344.186C126.692 344.186 126.021 344.034 125.464 343.731C124.914 343.428 124.472 343.02 124.138 342.506C123.81 341.993 123.593 341.421 123.488 340.79V337.45C123.624 336.733 123.859 336.099 124.193 335.548C124.527 334.998 124.963 334.565 125.501 334.25C126.046 333.934 126.695 333.776 127.45 333.776C128.26 333.776 128.949 333.984 129.518 334.398C130.087 334.812 130.52 335.403 130.817 336.17C131.12 336.931 131.272 337.834 131.272 338.879V339.074ZM130.455 338.879C130.455 338.044 130.341 337.299 130.112 336.643C129.889 335.981 129.546 335.462 129.082 335.084C128.625 334.701 128.04 334.509 127.329 334.509C126.748 334.509 126.256 334.605 125.854 334.797C125.458 334.989 125.13 335.239 124.87 335.548C124.611 335.851 124.41 336.179 124.267 336.532C124.125 336.884 124.02 337.218 123.952 337.534V340.781C124.063 341.269 124.258 341.718 124.536 342.126C124.815 342.528 125.186 342.853 125.65 343.1C126.12 343.341 126.686 343.462 127.348 343.462C128.053 343.462 128.634 343.27 129.092 342.887C129.549 342.503 129.889 341.984 130.112 341.328C130.341 340.666 130.455 339.915 130.455 339.074V338.879ZM140.637 336.977C140.637 336.198 140.392 335.589 139.904 335.149C139.415 334.71 138.716 334.491 137.807 334.491C137.251 334.491 136.746 334.59 136.295 334.788C135.85 334.986 135.5 335.255 135.247 335.595C134.993 335.935 134.866 336.312 134.866 336.727L134.059 336.717C134.059 336.204 134.217 335.725 134.532 335.279C134.854 334.834 135.299 334.472 135.868 334.194C136.437 333.916 137.093 333.776 137.835 333.776C138.54 333.776 139.165 333.897 139.709 334.138C140.253 334.373 140.677 334.729 140.98 335.205C141.289 335.681 141.444 336.278 141.444 336.996V341.94C141.444 342.293 141.469 342.655 141.518 343.026C141.568 343.391 141.636 343.681 141.722 343.898V344H140.841C140.773 343.771 140.72 343.487 140.683 343.146C140.652 342.806 140.637 342.475 140.637 342.154V336.977ZM140.896 338.962H138.503C137.285 338.962 136.329 339.182 135.636 339.621C134.95 340.06 134.606 340.642 134.606 341.365C134.606 341.94 134.826 342.432 135.265 342.84C135.71 343.249 136.298 343.453 137.028 343.453C137.69 343.453 138.274 343.338 138.781 343.109C139.288 342.874 139.712 342.559 140.052 342.163C140.399 341.767 140.649 341.316 140.804 340.809L141.156 341.356C141.057 341.684 140.896 342.015 140.674 342.349C140.451 342.676 140.164 342.979 139.811 343.258C139.465 343.536 139.053 343.762 138.577 343.935C138.107 344.102 137.569 344.186 136.963 344.186C136.326 344.186 135.769 344.068 135.293 343.833C134.817 343.592 134.449 343.261 134.189 342.84C133.929 342.414 133.799 341.934 133.799 341.402C133.799 340.456 134.208 339.698 135.024 339.129C135.847 338.56 136.975 338.276 138.41 338.276H140.878L140.896 338.962ZM145.92 344H145.113V333.962H145.91L145.92 335.669V344ZM149.649 334.611C149.538 334.593 149.423 334.58 149.306 334.574C149.195 334.562 149.077 334.556 148.953 334.556C148.254 334.556 147.673 334.732 147.209 335.084C146.745 335.431 146.393 335.901 146.152 336.495C145.917 337.082 145.793 337.735 145.78 338.452L145.409 338.545C145.409 337.636 145.536 336.822 145.79 336.105C146.05 335.388 146.442 334.822 146.968 334.407C147.494 333.987 148.162 333.776 148.972 333.776C149.114 333.776 149.25 333.789 149.38 333.813C149.51 333.832 149.612 333.857 149.686 333.888L149.649 334.611ZM157.919 336.977C157.919 336.198 157.675 335.589 157.186 335.149C156.698 334.71 155.999 334.491 155.09 334.491C154.533 334.491 154.029 334.59 153.578 334.788C153.132 334.986 152.783 335.255 152.529 335.595C152.276 335.935 152.149 336.312 152.149 336.727L151.342 336.717C151.342 336.204 151.499 335.725 151.815 335.279C152.136 334.834 152.582 334.472 153.151 334.194C153.72 333.916 154.375 333.776 155.118 333.776C155.823 333.776 156.447 333.897 156.992 334.138C157.536 334.373 157.96 334.729 158.263 335.205C158.572 335.681 158.726 336.278 158.726 336.996V341.94C158.726 342.293 158.751 342.655 158.801 343.026C158.85 343.391 158.918 343.681 159.005 343.898V344H158.123C158.055 343.771 158.003 343.487 157.966 343.146C157.935 342.806 157.919 342.475 157.919 342.154V336.977ZM158.179 338.962H155.786C154.567 338.962 153.612 339.182 152.919 339.621C152.232 340.06 151.889 340.642 151.889 341.365C151.889 341.94 152.109 342.432 152.548 342.84C152.993 343.249 153.581 343.453 154.31 343.453C154.972 343.453 155.557 343.338 156.064 343.109C156.571 342.874 156.995 342.559 157.335 342.163C157.681 341.767 157.932 341.316 158.086 340.809L158.439 341.356C158.34 341.684 158.179 342.015 157.956 342.349C157.734 342.676 157.446 342.979 157.094 343.258C156.747 343.536 156.336 343.762 155.86 343.935C155.39 344.102 154.852 344.186 154.245 344.186C153.608 344.186 153.052 344.068 152.576 343.833C152.099 343.592 151.731 343.261 151.472 342.84C151.212 342.414 151.082 341.934 151.082 341.402C151.082 340.456 151.49 339.698 152.307 339.129C153.129 338.56 154.258 338.276 155.693 338.276H158.161L158.179 338.962ZM171.111 343.462C171.605 343.462 172.072 343.372 172.511 343.193C172.957 343.007 173.325 342.726 173.615 342.349C173.912 341.971 174.079 341.498 174.116 340.929H174.896C174.865 341.585 174.673 342.157 174.321 342.646C173.968 343.134 173.51 343.514 172.947 343.787C172.391 344.053 171.779 344.186 171.111 344.186C170.208 344.186 169.444 343.969 168.819 343.536C168.194 343.097 167.721 342.5 167.4 341.746C167.078 340.991 166.917 340.134 166.917 339.176V338.786C166.917 337.821 167.078 336.965 167.4 336.216C167.721 335.462 168.191 334.868 168.81 334.435C169.434 333.996 170.195 333.776 171.092 333.776C171.779 333.776 172.403 333.916 172.966 334.194C173.529 334.466 173.983 334.868 174.33 335.4C174.676 335.926 174.865 336.563 174.896 337.311H174.116C174.086 336.705 173.928 336.195 173.643 335.78C173.365 335.36 173 335.041 172.549 334.825C172.103 334.608 171.618 334.5 171.092 334.5C170.307 334.5 169.663 334.698 169.162 335.094C168.668 335.483 168.303 336.003 168.068 336.652C167.839 337.302 167.724 338.013 167.724 338.786V339.176C167.724 339.949 167.839 340.663 168.068 341.319C168.303 341.968 168.668 342.488 169.162 342.877C169.663 343.267 170.313 343.462 171.111 343.462ZM184.047 336.977C184.047 336.198 183.803 335.589 183.314 335.149C182.826 334.71 182.127 334.491 181.218 334.491C180.661 334.491 180.157 334.59 179.705 334.788C179.26 334.986 178.911 335.255 178.657 335.595C178.404 335.935 178.277 336.312 178.277 336.727L177.47 336.717C177.47 336.204 177.627 335.725 177.943 335.279C178.264 334.834 178.71 334.472 179.279 334.194C179.848 333.916 180.503 333.776 181.246 333.776C181.951 333.776 182.575 333.897 183.12 334.138C183.664 334.373 184.087 334.729 184.391 335.205C184.7 335.681 184.854 336.278 184.854 336.996V341.94C184.854 342.293 184.879 342.655 184.929 343.026C184.978 343.391 185.046 343.681 185.133 343.898V344H184.251C184.183 343.771 184.131 343.487 184.094 343.146C184.063 342.806 184.047 342.475 184.047 342.154V336.977ZM184.307 338.962H181.913C180.695 338.962 179.74 339.182 179.047 339.621C178.36 340.06 178.017 340.642 178.017 341.365C178.017 341.94 178.237 342.432 178.676 342.84C179.121 343.249 179.709 343.453 180.438 343.453C181.1 343.453 181.685 343.338 182.192 343.109C182.699 342.874 183.123 342.559 183.463 342.163C183.809 341.767 184.06 341.316 184.214 340.809L184.567 341.356C184.468 341.684 184.307 342.015 184.084 342.349C183.862 342.676 183.574 342.979 183.222 343.258C182.875 343.536 182.464 343.762 181.988 343.935C181.518 344.102 180.98 344.186 180.373 344.186C179.736 344.186 179.18 344.068 178.704 343.833C178.227 343.592 177.859 343.261 177.6 342.84C177.34 342.414 177.21 341.934 177.21 341.402C177.21 340.456 177.618 339.698 178.434 339.129C179.257 338.56 180.386 338.276 181.821 338.276H184.288L184.307 338.962ZM192.086 343.462C192.58 343.462 193.047 343.372 193.486 343.193C193.932 343.007 194.3 342.726 194.59 342.349C194.887 341.971 195.054 341.498 195.091 340.929H195.871C195.84 341.585 195.648 342.157 195.296 342.646C194.943 343.134 194.485 343.514 193.922 343.787C193.366 344.053 192.754 344.186 192.086 344.186C191.183 344.186 190.419 343.969 189.794 343.536C189.169 343.097 188.696 342.5 188.375 341.746C188.053 340.991 187.892 340.134 187.892 339.176V338.786C187.892 337.821 188.053 336.965 188.375 336.216C188.696 335.462 189.166 334.868 189.785 334.435C190.409 333.996 191.17 333.776 192.067 333.776C192.754 333.776 193.378 333.916 193.941 334.194C194.504 334.466 194.958 334.868 195.305 335.4C195.651 335.926 195.84 336.563 195.871 337.311H195.091C195.06 336.705 194.903 336.195 194.618 335.78C194.34 335.36 193.975 335.041 193.524 334.825C193.078 334.608 192.593 334.5 192.067 334.5C191.282 334.5 190.638 334.698 190.137 335.094C189.643 335.483 189.278 336.003 189.043 336.652C188.814 337.302 188.699 338.013 188.699 338.786V339.176C188.699 339.949 188.814 340.663 189.043 341.319C189.278 341.968 189.643 342.488 190.137 342.877C190.638 343.267 191.288 343.462 192.086 343.462ZM199.623 344H198.816V329.75H199.623V344ZM199.075 337.831C199.144 337.107 199.348 336.439 199.688 335.827C200.028 335.208 200.483 334.713 201.052 334.342C201.621 333.965 202.282 333.776 203.037 333.776C203.711 333.776 204.283 333.903 204.753 334.157C205.229 334.404 205.594 334.8 205.848 335.344C206.102 335.882 206.228 336.597 206.228 337.487V344H205.43V337.478C205.43 336.705 205.322 336.105 205.106 335.678C204.895 335.245 204.599 334.942 204.215 334.769C203.838 334.59 203.396 334.5 202.888 334.5C202.307 334.5 201.803 334.63 201.376 334.89C200.956 335.143 200.606 335.468 200.328 335.864C200.05 336.26 199.839 336.671 199.697 337.098C199.555 337.518 199.474 337.899 199.456 338.239L199.075 337.831ZM209.127 338.805C209.127 337.827 209.312 336.962 209.684 336.207C210.055 335.452 210.571 334.859 211.233 334.426C211.901 333.993 212.677 333.776 213.561 333.776C214.458 333.776 215.238 333.993 215.899 334.426C216.567 334.859 217.084 335.452 217.449 336.207C217.82 336.962 218.005 337.827 218.005 338.805V339.157C218.005 340.128 217.82 340.994 217.449 341.755C217.084 342.516 216.57 343.112 215.909 343.545C215.247 343.972 214.471 344.186 213.58 344.186C212.689 344.186 211.91 343.972 211.242 343.545C210.574 343.112 210.055 342.516 209.684 341.755C209.312 340.994 209.127 340.128 209.127 339.157V338.805ZM209.934 339.157C209.934 339.918 210.076 340.626 210.361 341.282C210.645 341.937 211.057 342.466 211.595 342.868C212.139 343.264 212.801 343.462 213.58 343.462C214.353 343.462 215.009 343.264 215.547 342.868C216.085 342.466 216.493 341.937 216.771 341.282C217.056 340.626 217.198 339.918 217.198 339.157V338.805C217.198 338.05 217.056 337.348 216.771 336.699C216.487 336.043 216.076 335.514 215.538 335.112C214.999 334.704 214.341 334.5 213.561 334.5C212.795 334.5 212.139 334.704 211.595 335.112C211.057 335.514 210.645 336.043 210.361 336.699C210.076 337.348 209.934 338.05 209.934 338.805V339.157ZM221.748 344H220.941V333.962H221.739L221.748 335.669V344ZM225.478 334.611C225.366 334.593 225.252 334.58 225.134 334.574C225.023 334.562 224.906 334.556 224.782 334.556C224.083 334.556 223.502 334.732 223.038 335.084C222.574 335.431 222.221 335.901 221.98 336.495C221.745 337.082 221.621 337.735 221.609 338.452L221.238 338.545C221.238 337.636 221.365 336.822 221.618 336.105C221.878 335.388 222.271 334.822 222.797 334.407C223.322 333.987 223.99 333.776 224.8 333.776C224.943 333.776 225.079 333.789 225.209 333.813C225.339 333.832 225.441 333.857 225.515 333.888L225.478 334.611ZM228.701 344H227.894V333.962H228.692L228.701 335.669V344ZM232.43 334.611C232.319 334.593 232.205 334.58 232.087 334.574C231.976 334.562 231.858 334.556 231.735 334.556C231.036 334.556 230.454 334.732 229.991 335.084C229.527 335.431 229.174 335.901 228.933 336.495C228.698 337.082 228.574 337.735 228.562 338.452L228.191 338.545C228.191 337.636 228.318 336.822 228.571 336.105C228.831 335.388 229.224 334.822 229.749 334.407C230.275 333.987 230.943 333.776 231.753 333.776C231.895 333.776 232.032 333.789 232.161 333.813C232.291 333.832 232.393 333.857 232.468 333.888L232.43 334.611ZM233.938 338.805C233.938 337.827 234.123 336.962 234.494 336.207C234.865 335.452 235.382 334.859 236.043 334.426C236.711 333.993 237.488 333.776 238.372 333.776C239.269 333.776 240.048 333.993 240.71 334.426C241.378 334.859 241.894 335.452 242.259 336.207C242.63 336.962 242.816 337.827 242.816 338.805V339.157C242.816 340.128 242.63 340.994 242.259 341.755C241.894 342.516 241.381 343.112 240.719 343.545C240.057 343.972 239.281 344.186 238.391 344.186C237.5 344.186 236.721 343.972 236.053 343.545C235.385 343.112 234.865 342.516 234.494 341.755C234.123 340.994 233.938 340.128 233.938 339.157V338.805ZM234.745 339.157C234.745 339.918 234.887 340.626 235.171 341.282C235.456 341.937 235.867 342.466 236.405 342.868C236.95 343.264 237.611 343.462 238.391 343.462C239.164 343.462 239.819 343.264 240.357 342.868C240.896 342.466 241.304 341.937 241.582 341.282C241.867 340.626 242.009 339.918 242.009 339.157V338.805C242.009 338.05 241.867 337.348 241.582 336.699C241.298 336.043 240.886 335.514 240.348 335.112C239.81 334.704 239.151 334.5 238.372 334.5C237.605 334.5 236.95 334.704 236.405 335.112C235.867 335.514 235.456 336.043 235.171 336.699C234.887 337.348 234.745 338.05 234.745 338.805V339.157ZM5.26953 367.186C4.42839 367.186 3.67074 366.975 2.99658 366.555C2.32243 366.128 1.79053 365.54 1.40088 364.792C1.01123 364.044 0.816406 363.19 0.816406 362.231V361.823C0.816406 360.821 1.01123 359.94 1.40088 359.179C1.79053 358.418 2.30697 357.828 2.9502 357.407C3.59961 356.987 4.30778 356.776 5.07471 356.776C5.87256 356.776 6.56217 356.965 7.14355 357.342C7.73112 357.72 8.18262 358.242 8.49805 358.91C8.81348 359.572 8.97119 360.342 8.97119 361.22V361.851H1.31738V361.127H8.16406V361.007C8.15788 360.388 8.03109 359.813 7.78369 359.281C7.54248 358.749 7.19303 358.319 6.73535 357.992C6.28385 357.664 5.73031 357.5 5.07471 357.5C4.39437 357.5 3.79443 357.689 3.2749 358.066C2.75537 358.443 2.35026 358.96 2.05957 359.615C1.76888 360.265 1.62354 361.001 1.62354 361.823V362.231C1.62354 363.017 1.78125 363.731 2.09668 364.375C2.41829 365.012 2.85433 365.522 3.40479 365.905C3.95524 366.283 4.5861 366.471 5.29736 366.471C5.87874 366.471 6.40755 366.369 6.88379 366.165C7.36621 365.961 7.80225 365.605 8.19189 365.098L8.71143 365.488C8.38363 365.964 7.94141 366.366 7.38477 366.694C6.82812 367.022 6.12305 367.186 5.26953 367.186ZM24.3797 356.962V366.842C24.3797 367.702 24.2189 368.444 23.8973 369.069C23.5819 369.7 23.1304 370.182 22.5428 370.516C21.9615 370.856 21.2718 371.026 20.474 371.026C20.0163 371.026 19.5772 370.958 19.1566 370.822C18.736 370.686 18.3495 370.488 17.9969 370.229C17.6444 369.975 17.3382 369.672 17.0785 369.319L17.5702 368.818C17.966 369.313 18.3959 369.684 18.8597 369.932C19.3236 370.185 19.8462 370.312 20.4276 370.312C21.4481 370.312 22.2243 370.003 22.7562 369.384C23.2943 368.766 23.5633 367.925 23.5633 366.861V359.17L23.6097 356.962H24.3797ZM16.494 361.879C16.494 360.834 16.6455 359.931 16.9486 359.17C17.2578 358.403 17.697 357.812 18.266 357.398C18.8412 356.984 19.5277 356.776 20.3255 356.776C20.8884 356.776 21.3893 356.866 21.8285 357.045C22.2738 357.225 22.6573 357.478 22.9789 357.806C23.3005 358.134 23.5633 358.524 23.7674 358.975C23.9777 359.42 24.1354 359.912 24.2406 360.45V363.753C24.1354 364.39 23.9221 364.968 23.6004 365.488C23.2788 366.007 22.8428 366.422 22.2923 366.731C21.7419 367.034 21.0801 367.186 20.307 367.186C19.5091 367.186 18.8257 366.972 18.2567 366.545C17.6877 366.112 17.2517 365.513 16.9486 364.746C16.6455 363.979 16.494 363.088 16.494 362.074V361.879ZM17.3011 362.074C17.3011 362.915 17.4125 363.663 17.6351 364.319C17.864 364.974 18.2072 365.494 18.6649 365.877C19.1226 366.261 19.7009 366.453 20.3998 366.453C21.0739 366.453 21.6398 366.329 22.0975 366.082C22.5552 365.834 22.9201 365.506 23.1922 365.098C23.4706 364.69 23.6654 364.238 23.7767 363.744V360.534C23.7087 360.218 23.6035 359.884 23.4613 359.532C23.319 359.179 23.1211 358.851 22.8675 358.548C22.614 358.239 22.2862 357.989 21.8841 357.797C21.4883 357.605 20.9997 357.509 20.4183 357.509C19.7132 357.509 19.1288 357.701 18.6649 358.084C18.2072 358.462 17.864 358.981 17.6351 359.643C17.4125 360.299 17.3011 361.044 17.3011 361.879V362.074ZM34.2085 359.977C34.2085 359.198 33.9642 358.589 33.4756 358.149C32.987 357.71 32.2881 357.491 31.3789 357.491C30.8223 357.491 30.3182 357.59 29.8667 357.788C29.4214 357.986 29.072 358.255 28.8184 358.595C28.5648 358.935 28.438 359.312 28.438 359.727L27.6309 359.717C27.6309 359.204 27.7886 358.725 28.104 358.279C28.4257 357.834 28.871 357.472 29.44 357.194C30.009 356.916 30.6646 356.776 31.4068 356.776C32.1119 356.776 32.7365 356.897 33.2808 357.138C33.8251 357.373 34.2487 357.729 34.5518 358.205C34.861 358.681 35.0157 359.278 35.0157 359.996V364.94C35.0157 365.293 35.0404 365.655 35.0899 366.026C35.1394 366.391 35.2074 366.681 35.294 366.898V367H34.4126C34.3446 366.771 34.292 366.487 34.2549 366.146C34.224 365.806 34.2085 365.475 34.2085 365.154V359.977ZM34.4683 361.962H32.0747C30.8563 361.962 29.9008 362.182 29.208 362.621C28.5215 363.06 28.1783 363.642 28.1783 364.365C28.1783 364.94 28.3978 365.432 28.837 365.84C29.2823 366.249 29.8698 366.453 30.5996 366.453C31.2614 366.453 31.8459 366.338 32.3531 366.109C32.8602 365.874 33.2839 365.559 33.6241 365.163C33.9704 364.767 34.2209 364.316 34.3755 363.809L34.7281 364.356C34.6291 364.684 34.4683 365.015 34.2456 365.349C34.023 365.676 33.7354 365.979 33.3829 366.258C33.0365 366.536 32.6252 366.762 32.149 366.935C31.6789 367.102 31.1408 367.186 30.5347 367.186C29.8977 367.186 29.341 367.068 28.8648 366.833C28.3885 366.592 28.0205 366.261 27.7608 365.84C27.501 365.414 27.3711 364.934 27.3711 364.402C27.3711 363.456 27.7793 362.698 28.5957 362.129C29.4183 361.56 30.5471 361.276 31.982 361.276H34.4497L34.4683 361.962ZM42.2932 357.667H37.4504V356.962H42.2932V357.667ZM40.113 354.318V364.579C40.113 365.104 40.1779 365.503 40.3078 365.775C40.4377 366.041 40.6109 366.221 40.8274 366.313C41.0438 366.4 41.2758 366.443 41.5232 366.443C41.7025 366.443 41.8664 366.437 42.0149 366.425C42.1695 366.406 42.321 366.385 42.4695 366.36L42.5344 367.056C42.3983 367.099 42.219 367.13 41.9963 367.148C41.7798 367.173 41.585 367.186 41.4118 367.186C40.9913 367.186 40.6202 367.108 40.2986 366.954C39.9831 366.799 39.7357 366.533 39.5564 366.156C39.3832 365.772 39.2966 365.247 39.2966 364.579V354.318H40.113ZM44.4311 361.805C44.4311 360.827 44.6166 359.962 44.9877 359.207C45.3588 358.452 45.8752 357.859 46.537 357.426C47.205 356.993 47.9812 356.776 48.8656 356.776C49.7624 356.776 50.5417 356.993 51.2035 357.426C51.8715 357.859 52.3879 358.452 52.7528 359.207C53.1239 359.962 53.3095 360.827 53.3095 361.805V362.157C53.3095 363.128 53.1239 363.994 52.7528 364.755C52.3879 365.516 51.8746 366.112 51.2128 366.545C50.551 366.972 49.7748 367.186 48.8842 367.186C47.9936 367.186 47.2143 366.972 46.5463 366.545C45.8783 366.112 45.3588 365.516 44.9877 364.755C44.6166 363.994 44.4311 363.128 44.4311 362.157V361.805ZM45.2382 362.157C45.2382 362.918 45.3804 363.626 45.6649 364.282C45.9494 364.937 46.3607 365.466 46.8988 365.868C47.4431 366.264 48.1049 366.462 48.8842 366.462C49.6573 366.462 50.3129 366.264 50.851 365.868C51.3891 365.466 51.7973 364.937 52.0756 364.282C52.3601 363.626 52.5023 362.918 52.5023 362.157V361.805C52.5023 361.05 52.3601 360.348 52.0756 359.699C51.7911 359.043 51.3798 358.514 50.8417 358.112C50.3036 357.704 49.6449 357.5 48.8656 357.5C48.0987 357.5 47.4431 357.704 46.8988 358.112C46.3607 358.514 45.9494 359.043 45.6649 359.699C45.3804 360.348 45.2382 361.05 45.2382 361.805V362.157Z" fill="#43444A"/>
<path d="M7.4458 423.648C8.69613 423.648 9.76302 423.836 10.6465 424.21C11.5299 424.584 12.2038 425.138 12.668 425.872C13.1396 426.606 13.3755 427.508 13.3755 428.579C13.3755 429.402 13.2257 430.125 12.9263 430.746C12.6268 431.368 12.2 431.892 11.646 432.318C11.0994 432.738 10.4518 433.063 9.70312 433.295L8.82715 433.745H3.6499L3.62744 431.42H7.46826C8.1346 431.42 8.68864 431.304 9.13037 431.072C9.57959 430.84 9.91276 430.521 10.1299 430.117C10.3545 429.713 10.4668 429.252 10.4668 428.736C10.4668 427.897 10.2235 427.231 9.73682 426.737C9.25765 426.235 8.49398 425.984 7.4458 425.984H4.53711V440H1.63965V423.648H7.4458ZM7.10889 432.667L10.1523 432.655L14.0269 439.854V440H10.9272L7.10889 432.667ZM22.2363 424.401H20.4731V421.021H22.2363V424.401ZM22.0117 442.381H20.2598V439.371H22.0117V442.381ZM23.6289 435.732C23.6289 435.306 23.5428 434.931 23.3706 434.609C23.1984 434.287 22.9176 433.999 22.5283 433.745C22.1465 433.483 21.6261 433.239 20.9673 433.015C20.009 432.67 19.1704 432.288 18.4517 431.869C17.7404 431.442 17.1864 430.915 16.7896 430.286C16.4002 429.657 16.2056 428.874 16.2056 427.938C16.2056 427.01 16.4152 426.209 16.8345 425.535C17.2537 424.854 17.8452 424.33 18.6089 423.963C19.3726 423.596 20.2598 423.413 21.2705 423.413C22.3112 423.413 23.2096 423.618 23.9658 424.03C24.7295 424.442 25.3172 425.041 25.729 425.827C26.1483 426.613 26.3579 427.568 26.3579 428.691H23.584C23.584 427.755 23.3743 427.021 22.9551 426.49C22.5433 425.958 21.9743 425.692 21.248 425.692C20.7314 425.692 20.3047 425.79 19.9678 425.984C19.6309 426.179 19.3838 426.445 19.2266 426.782C19.0693 427.111 18.9907 427.493 18.9907 427.927C18.9907 428.339 19.0731 428.702 19.2378 429.017C19.4025 429.324 19.6795 429.604 20.0688 429.859C20.4657 430.113 21.0085 430.368 21.6973 430.623C22.6631 430.974 23.4979 431.364 24.2017 431.791C24.9129 432.217 25.4595 432.745 25.8413 433.374C26.2306 433.995 26.4253 434.774 26.4253 435.71C26.4253 436.676 26.2007 437.496 25.7515 438.169C25.3097 438.843 24.6883 439.356 23.8872 439.708C23.0936 440.06 22.1615 440.236 21.0908 440.236C20.4245 440.236 19.7619 440.146 19.103 439.966C18.4517 439.787 17.8602 439.495 17.3286 439.09C16.797 438.686 16.3703 438.151 16.0483 437.484C15.7339 436.811 15.5767 435.979 15.5767 434.991H18.3618C18.3618 435.568 18.4404 436.047 18.5977 436.429C18.7549 436.811 18.9645 437.114 19.2266 437.338C19.4961 437.556 19.7918 437.713 20.1138 437.81C20.4357 437.907 20.7614 437.956 21.0908 437.956C21.6449 437.956 22.109 437.862 22.4834 437.675C22.8577 437.488 23.1423 437.226 23.3369 436.889C23.5316 436.552 23.6289 436.167 23.6289 435.732ZM41.9683 440H39.1719V426.939L35.1851 428.275V425.939L41.6201 423.592H41.9683V440ZM58.8926 436.35H47.0781L46.9883 434.643L54.0073 423.648H56.2422L53.8613 427.815L49.8745 434.115H58.8926V436.35ZM56.8711 440H54.0859V423.648H56.8711V440ZM61.3633 431.892L62.2617 423.648H71.1113V426.029H64.5752L64.1372 429.926C64.3843 429.784 64.7287 429.642 65.1704 429.5C65.6196 429.35 66.1287 429.275 66.6978 429.275C67.731 429.275 68.6144 429.496 69.3481 429.938C70.0819 430.379 70.6434 431.012 71.0327 431.835C71.4295 432.652 71.6279 433.629 71.6279 434.767C71.6279 435.762 71.4333 436.676 71.0439 437.507C70.6546 438.33 70.0632 438.989 69.2695 439.483C68.4759 439.978 67.4689 440.225 66.2485 440.225C65.5597 440.225 64.9009 440.124 64.272 439.921C63.6506 439.719 63.089 439.42 62.5874 439.023C62.0933 438.626 61.6965 438.139 61.397 437.563C61.0975 436.979 60.9253 436.309 60.8804 435.553H63.6094C63.6992 436.331 63.9725 436.934 64.4292 437.361C64.8934 437.78 65.4961 437.99 66.2373 437.99C66.8213 437.99 67.3079 437.847 67.6973 437.563C68.0866 437.278 68.3748 436.885 68.562 436.384C68.7492 435.882 68.8428 435.309 68.8428 434.666C68.8428 434.044 68.7342 433.498 68.5171 433.026C68.3075 432.547 67.9893 432.172 67.5625 431.903C67.1357 431.626 66.6042 431.487 65.9678 431.487C65.3314 431.487 64.8485 431.581 64.519 431.768C64.1896 431.948 63.8826 432.172 63.5981 432.442L61.3633 431.892ZM76.5469 439.337C76.5469 440.116 76.3522 440.913 75.9629 441.729C75.5736 442.546 75.0607 443.223 74.4243 443.762L72.9307 442.909C73.1403 442.572 73.3312 442.231 73.5034 441.887C73.6756 441.542 73.8141 441.172 73.9189 440.775C74.0238 440.378 74.0762 439.936 74.0762 439.45V437.361H76.5469V439.337ZM81.3872 437.776C82.4129 437.776 83.2702 437.645 83.959 437.383C84.6553 437.121 85.2056 436.754 85.6099 436.283C86.0142 435.804 86.3024 435.246 86.4746 434.609C86.6543 433.965 86.7441 433.262 86.7441 432.498V429.601C86.7441 428.74 86.6243 428.017 86.3848 427.433C86.1452 426.849 85.827 426.411 85.4302 426.119C85.0334 425.82 84.5916 425.67 84.105 425.67C83.5659 425.67 83.1055 425.827 82.7236 426.142C82.3418 426.456 82.0498 426.872 81.8477 427.388C81.653 427.905 81.5557 428.47 81.5557 429.084C81.5557 429.668 81.6493 430.218 81.8364 430.735C82.0236 431.251 82.3081 431.671 82.6899 431.993C83.0718 432.307 83.5547 432.464 84.1387 432.464C84.5355 432.464 84.9061 432.386 85.2505 432.229C85.5949 432.064 85.8944 431.85 86.1489 431.588C86.4035 431.326 86.6056 431.031 86.7554 430.701C86.9051 430.364 86.9912 430.02 87.0137 429.668L88.0693 430.039C88.0693 430.593 87.9495 431.143 87.71 431.689C87.4779 432.236 87.1559 432.734 86.7441 433.183C86.3324 433.625 85.8494 433.977 85.2954 434.239C84.7489 434.501 84.1574 434.632 83.521 434.632C82.4728 434.632 81.5968 434.381 80.8931 433.879C80.1968 433.37 79.6727 432.7 79.3208 431.869C78.9689 431.038 78.793 430.132 78.793 429.151C78.793 428.096 79.0026 427.137 79.4219 426.276C79.8486 425.408 80.4588 424.715 81.2524 424.199C82.0461 423.682 83.0007 423.424 84.1162 423.424C84.9922 423.424 85.7671 423.592 86.4409 423.929C87.1222 424.266 87.6875 424.738 88.1367 425.344C88.5934 425.951 88.9378 426.658 89.1699 427.467C89.4095 428.268 89.5293 429.133 89.5293 430.061V431.049C89.5293 432.03 89.4395 432.97 89.2598 433.868C89.0876 434.767 88.8105 435.594 88.4287 436.35C88.0469 437.106 87.5378 437.765 86.9014 438.327C86.2725 438.888 85.505 439.326 84.5991 439.641C83.6932 439.948 82.63 440.101 81.4097 440.101H81.1738V437.776H81.3872ZM102.77 433.149C102.77 434.841 102.549 436.208 102.107 437.249C101.666 438.282 101.044 439.038 100.243 439.517C99.4421 439.989 98.4987 440.225 97.4131 440.225C96.3424 440.225 95.3991 439.989 94.583 439.517C93.7744 439.038 93.1455 438.282 92.6963 437.249C92.2471 436.208 92.0225 434.841 92.0225 433.149V430.443C92.0225 428.743 92.2433 427.381 92.6851 426.355C93.1343 425.329 93.7632 424.584 94.5718 424.12C95.3804 423.656 96.32 423.424 97.3906 423.424C98.4762 423.424 99.4196 423.656 100.221 424.12C101.029 424.584 101.654 425.329 102.096 426.355C102.545 427.381 102.77 428.743 102.77 430.443V433.149ZM99.9849 430.027C99.9849 428.957 99.8838 428.103 99.6816 427.467C99.487 426.83 99.195 426.374 98.8057 426.097C98.4238 425.812 97.9521 425.67 97.3906 425.67C96.8441 425.67 96.3761 425.812 95.9868 426.097C95.605 426.374 95.313 426.83 95.1108 427.467C94.9087 428.103 94.8076 428.957 94.8076 430.027V433.542C94.8076 434.613 94.9087 435.474 95.1108 436.125C95.3205 436.777 95.62 437.252 96.0093 437.552C96.3986 437.844 96.8665 437.99 97.4131 437.99C97.9746 437.99 98.4463 437.844 98.8281 437.552C99.21 437.252 99.4982 436.777 99.6929 436.125C99.8875 435.474 99.9849 434.613 99.9849 433.542V430.027Z" fill="#43444A"/>
<path d="M6.91455 466.716C6.91455 466.019 6.69596 465.474 6.25879 465.081C5.82161 464.688 5.19629 464.492 4.38281 464.492C3.88477 464.492 3.43376 464.58 3.02979 464.757C2.63135 464.934 2.31868 465.175 2.0918 465.479C1.86491 465.784 1.75146 466.121 1.75146 466.492L1.0293 466.484C1.0293 466.025 1.17041 465.596 1.45264 465.197C1.7404 464.799 2.13883 464.475 2.64795 464.226C3.15706 463.977 3.74365 463.853 4.40771 463.853C5.03857 463.853 5.59749 463.96 6.08447 464.176C6.57145 464.387 6.95052 464.705 7.22168 465.131C7.49837 465.557 7.63672 466.091 7.63672 466.733V471.157C7.63672 471.473 7.65885 471.796 7.70312 472.128C7.7474 472.455 7.80827 472.715 7.88574 472.909V473H7.09717C7.0363 472.795 6.98926 472.541 6.95605 472.236C6.92839 471.932 6.91455 471.636 6.91455 471.348V466.716ZM7.14697 468.493H5.00537C3.9152 468.493 3.06022 468.689 2.44043 469.082C1.82617 469.475 1.51904 469.995 1.51904 470.643C1.51904 471.157 1.71549 471.597 2.1084 471.962C2.50684 472.328 3.03255 472.51 3.68555 472.51C4.27767 472.51 4.80062 472.408 5.25439 472.203C5.70817 471.993 6.08724 471.711 6.3916 471.356C6.7015 471.002 6.92562 470.598 7.06396 470.145L7.37939 470.634C7.29085 470.928 7.14697 471.224 6.94775 471.522C6.74854 471.816 6.49121 472.087 6.17578 472.336C5.86589 472.585 5.49788 472.787 5.07178 472.942C4.6512 473.091 4.16976 473.166 3.62744 473.166C3.05745 473.166 2.55941 473.061 2.1333 472.851C1.70719 472.635 1.37793 472.339 1.14551 471.962C0.913086 471.581 0.796875 471.152 0.796875 470.676C0.796875 469.829 1.16211 469.151 1.89258 468.642C2.62858 468.133 3.63851 467.878 4.92236 467.878H7.13037L7.14697 468.493ZM14.1482 464.649H9.81518V464.019H14.1482V464.649ZM12.1975 461.653V470.833C12.1975 471.304 12.2556 471.661 12.3718 471.904C12.488 472.142 12.643 472.303 12.8367 472.386C13.0303 472.463 13.2379 472.502 13.4592 472.502C13.6197 472.502 13.7663 472.496 13.8992 472.485C14.0375 472.469 14.1731 472.449 14.3059 472.427L14.364 473.05C14.2423 473.089 14.0818 473.116 13.8826 473.133C13.6889 473.155 13.5146 473.166 13.3596 473.166C12.9833 473.166 12.6513 473.097 12.3635 472.958C12.0813 472.82 11.8599 472.582 11.6995 472.245C11.5445 471.902 11.467 471.431 11.467 470.833V461.653H12.1975ZM20.2114 473.166C19.4588 473.166 18.7809 472.978 18.1777 472.602C17.5745 472.22 17.0986 471.694 16.75 471.024C16.4013 470.355 16.227 469.591 16.227 468.733V468.368C16.227 467.472 16.4013 466.683 16.75 466.002C17.0986 465.322 17.5607 464.793 18.1362 464.417C18.7173 464.041 19.3509 463.853 20.0371 463.853C20.751 463.853 21.368 464.021 21.8882 464.359C22.4139 464.696 22.8179 465.164 23.1001 465.762C23.3823 466.354 23.5234 467.043 23.5234 467.829V468.393H16.6753V467.746H22.8013V467.638C22.7957 467.084 22.6823 466.57 22.4609 466.094C22.2451 465.618 21.9324 465.233 21.5229 464.94C21.119 464.647 20.6237 464.5 20.0371 464.5C19.4284 464.5 18.8916 464.669 18.4267 465.006C17.9619 465.344 17.5994 465.806 17.3393 466.393C17.0792 466.974 16.9492 467.632 16.9492 468.368V468.733C16.9492 469.436 17.0903 470.075 17.3725 470.651C17.6603 471.221 18.0504 471.677 18.5429 472.021C19.0355 472.358 19.5999 472.527 20.2363 472.527C20.7565 472.527 21.2296 472.436 21.6557 472.253C22.0874 472.07 22.4775 471.752 22.8262 471.298L23.291 471.647C22.9977 472.073 22.602 472.433 22.104 472.726C21.6059 473.019 20.9751 473.166 20.2114 473.166ZM21.2988 460.267H22.1787L20.4023 462.533H19.7217L21.2988 460.267ZM37.9077 473H30.5034V472.394L34.4629 467.862C34.9664 467.292 35.3704 466.785 35.6748 466.343C35.9791 465.895 36.2005 465.485 36.3388 465.114C36.4827 464.738 36.5546 464.378 36.5546 464.035C36.5546 463.244 36.3222 462.607 35.8574 462.126C35.3925 461.639 34.7119 461.396 33.8154 461.396C33.2509 461.396 32.7501 461.523 32.313 461.777C31.8813 462.032 31.5437 462.383 31.3003 462.832C31.0623 463.28 30.9433 463.789 30.9433 464.359H30.2212C30.2212 463.7 30.3678 463.097 30.6611 462.549C30.9599 462.001 31.3777 461.564 31.9145 461.238C32.4513 460.911 33.0849 460.748 33.8154 460.748C34.8834 460.748 35.7273 461.03 36.3471 461.595C36.9725 462.154 37.2851 462.953 37.2851 463.994C37.2851 464.486 37.1661 464.981 36.9282 465.479C36.6958 465.978 36.3942 466.473 36.0234 466.965C35.6526 467.452 35.2597 467.934 34.8447 468.41L31.4082 472.353H37.9077V473ZM43.2653 467.829L45.905 464.019H46.7766L43.6804 468.41L46.926 473H46.071L43.2653 468.991L40.468 473H39.6047L42.8503 468.41L39.7458 464.019H40.6174L43.2653 467.829ZM59.7829 460.25H60.5051V473H59.8161L59.7829 471.257V460.25ZM53.4494 468.418C53.4494 467.483 53.5877 466.675 53.8644 465.994C54.1411 465.308 54.534 464.779 55.0431 464.409C55.5578 464.038 56.1693 463.853 56.8776 463.853C57.5583 463.853 58.1366 463.994 58.6125 464.276C59.0884 464.558 59.473 464.945 59.7663 465.438C60.0596 465.931 60.2643 466.498 60.3805 467.14V470.095C60.2865 470.665 60.0956 471.182 59.8078 471.647C59.52 472.112 59.1299 472.483 58.6374 472.759C58.1504 473.03 57.5583 473.166 56.861 473.166C56.1582 473.166 55.5495 472.975 55.0348 472.593C54.5257 472.206 54.1328 471.669 53.8561 470.983C53.585 470.297 53.4494 469.5 53.4494 468.592V468.418ZM54.1882 468.592C54.1882 469.345 54.2878 470.014 54.487 470.601C54.6862 471.188 54.9878 471.653 55.3918 471.996C55.8013 472.339 56.3215 472.51 56.9523 472.51C57.55 472.51 58.0563 472.4 58.4714 472.178C58.8864 471.957 59.2184 471.664 59.4675 471.298C59.7165 470.933 59.8936 470.529 59.9987 470.086V467.214C59.9378 466.932 59.841 466.633 59.7082 466.318C59.5809 466.002 59.4011 465.709 59.1686 465.438C58.9417 465.161 58.6485 464.937 58.2887 464.766C57.929 464.594 57.4891 464.508 56.9689 464.508C56.3325 464.508 55.8096 464.68 55.4001 465.023C54.9906 465.361 54.6862 465.825 54.487 466.417C54.2878 467.004 54.1882 467.671 54.1882 468.418V468.592ZM67.0995 473.166C66.3469 473.166 65.669 472.978 65.0658 472.602C64.4627 472.22 63.9867 471.694 63.6381 471.024C63.2895 470.355 63.1152 469.591 63.1152 468.733V468.368C63.1152 467.472 63.2895 466.683 63.6381 466.002C63.9867 465.322 64.4488 464.793 65.0243 464.417C65.6054 464.041 66.239 463.853 66.9252 463.853C67.6391 463.853 68.2561 464.021 68.7763 464.359C69.302 464.696 69.706 465.164 69.9882 465.762C70.2704 466.354 70.4115 467.043 70.4115 467.829V468.393H63.5634V467.746H69.6894V467.638C69.6838 467.084 69.5704 466.57 69.349 466.094C69.1332 465.618 68.8206 465.233 68.4111 464.94C68.0071 464.647 67.5118 464.5 66.9252 464.5C66.3165 464.5 65.7797 464.669 65.3149 465.006C64.85 465.344 64.4876 465.806 64.2275 466.393C63.9674 466.974 63.8373 467.632 63.8373 468.368V468.733C63.8373 469.436 63.9784 470.075 64.2607 470.651C64.5484 471.221 64.9386 471.677 65.4311 472.021C65.9236 472.358 66.488 472.527 67.1244 472.527C67.6446 472.527 68.1178 472.436 68.5439 472.253C68.9755 472.07 69.3656 471.752 69.7143 471.298L70.1791 471.647C69.8858 472.073 69.4902 472.433 68.9921 472.726C68.4941 473.019 67.8632 473.166 67.0995 473.166ZM81.6415 460.914C82.4439 460.914 83.1467 461.05 83.7499 461.321C84.3586 461.592 84.8318 461.99 85.1693 462.516C85.5069 463.036 85.6757 463.675 85.6757 464.434C85.6757 465.015 85.5512 465.54 85.3021 466.011C85.0587 466.476 84.7239 466.863 84.2978 467.173C83.8716 467.477 83.3902 467.679 82.8534 467.779L82.5463 467.895H78.1386L78.122 467.239H81.9569C82.621 467.239 83.1716 467.106 83.6088 466.841C84.0515 466.57 84.3835 466.221 84.6049 465.795C84.8262 465.363 84.9369 464.91 84.9369 464.434C84.9369 463.543 84.6464 462.843 84.0653 462.333C83.4843 461.824 82.6763 461.57 81.6415 461.57H78.4872V473H77.7567V460.914H81.6415ZM82.1894 467.638L83.0028 467.621L86.1903 472.884V473H85.4101L82.1894 467.638ZM92.8429 461.171H92.1954V459.138H92.8429V461.171ZM92.8761 474.727H92.2287V472.759H92.8761V474.727ZM95.3248 470.078C95.3248 469.635 95.2363 469.254 95.0592 468.933C94.8821 468.612 94.5833 468.324 94.1627 468.069C93.7422 467.809 93.1666 467.549 92.4362 467.289C91.7389 467.057 91.1357 466.802 90.6266 466.525C90.123 466.249 89.7329 465.9 89.4562 465.479C89.185 465.053 89.0495 464.508 89.0495 463.844C89.0495 463.213 89.1906 462.666 89.4728 462.201C89.755 461.736 90.1535 461.376 90.6681 461.122C91.1883 460.867 91.797 460.74 92.4943 460.74C93.2192 460.74 93.8418 460.881 94.362 461.163C94.8821 461.445 95.2806 461.858 95.5573 462.4C95.834 462.937 95.9723 463.598 95.9723 464.384H95.2501C95.2501 463.532 95.0149 462.82 94.5446 462.25C94.0797 461.681 93.3963 461.396 92.4943 461.396C91.8745 461.396 91.3598 461.512 90.9503 461.744C90.5464 461.971 90.2475 462.27 90.0538 462.641C89.8602 463.006 89.7633 463.402 89.7633 463.828C89.7633 464.259 89.838 464.636 89.9874 464.957C90.1424 465.272 90.4302 465.562 90.8507 465.828C91.2713 466.094 91.8773 466.359 92.6686 466.625C93.3603 466.857 93.958 467.115 94.4616 467.397C94.9651 467.674 95.3553 468.022 95.632 468.443C95.9087 468.863 96.047 469.403 96.047 470.062C96.047 470.709 95.8976 471.265 95.5988 471.73C95.3055 472.195 94.8932 472.552 94.362 472.801C93.8307 473.05 93.2081 473.174 92.4943 473.174C92.0239 473.174 91.5591 473.113 91.0997 472.992C90.6404 472.87 90.2254 472.671 89.8546 472.394C89.4839 472.112 89.1878 471.741 88.9664 471.282C88.7451 470.817 88.6344 470.244 88.6344 469.563H89.3566C89.3566 470.128 89.4507 470.601 89.6388 470.983C89.827 471.365 90.0732 471.669 90.3776 471.896C90.6875 472.117 91.0278 472.278 91.3986 472.377C91.7693 472.472 92.1346 472.519 92.4943 472.519C93.0919 472.519 93.601 472.405 94.0216 472.178C94.4422 471.951 94.7632 471.653 94.9845 471.282C95.2114 470.911 95.3248 470.51 95.3248 470.078ZM110.614 461.337L105.368 473H104.621L109.817 461.562H102.778V460.914H110.614V461.337ZM116.387 466.509C117.051 466.509 117.607 466.395 118.055 466.168C118.509 465.942 118.849 465.64 119.076 465.264C119.308 464.887 119.425 464.475 119.425 464.027C119.425 463.529 119.328 463.083 119.134 462.69C118.94 462.292 118.639 461.977 118.229 461.744C117.825 461.512 117.308 461.396 116.677 461.396C116.135 461.396 115.645 461.503 115.208 461.719C114.776 461.935 114.43 462.245 114.17 462.649C113.916 463.047 113.788 463.526 113.788 464.085H113.066C113.066 463.41 113.227 462.823 113.548 462.325C113.869 461.827 114.303 461.44 114.851 461.163C115.399 460.886 116.008 460.748 116.677 460.748C117.38 460.748 117.991 460.881 118.512 461.146C119.032 461.407 119.433 461.783 119.715 462.275C120.003 462.768 120.147 463.363 120.147 464.06C120.147 464.447 120.064 464.821 119.898 465.181C119.732 465.54 119.491 465.861 119.176 466.144C118.86 466.42 118.473 466.642 118.014 466.808C117.56 466.968 117.042 467.048 116.461 467.048H115.424V466.509H116.387ZM115.424 466.633H116.461C117.109 466.633 117.676 466.708 118.163 466.857C118.655 467.001 119.065 467.212 119.391 467.488C119.723 467.765 119.973 468.094 120.139 468.476C120.31 468.858 120.396 469.284 120.396 469.754C120.396 470.479 120.235 471.096 119.914 471.605C119.599 472.109 119.165 472.496 118.611 472.768C118.063 473.033 117.438 473.166 116.735 473.166C116.265 473.166 115.797 473.097 115.332 472.958C114.873 472.815 114.455 472.599 114.079 472.311C113.708 472.023 113.409 471.661 113.182 471.224C112.961 470.786 112.85 470.272 112.85 469.68H113.573C113.573 470.233 113.708 470.723 113.979 471.149C114.256 471.575 114.632 471.91 115.108 472.153C115.584 472.397 116.126 472.519 116.735 472.519C117.665 472.519 118.387 472.281 118.902 471.805C119.416 471.323 119.674 470.651 119.674 469.788C119.674 469.168 119.533 468.667 119.25 468.285C118.974 467.898 118.586 467.616 118.088 467.438C117.596 467.256 117.029 467.165 116.387 467.165H115.424V466.633ZM123.994 472.685C123.994 473.194 123.9 473.661 123.712 474.087C123.523 474.519 123.274 474.887 122.964 475.191L122.516 474.843C122.688 474.621 122.829 474.4 122.94 474.179C123.056 473.963 123.142 473.733 123.197 473.49C123.252 473.252 123.28 472.989 123.28 472.701V471.556H123.994V472.685ZM133.967 468.011C133.967 469.129 133.826 470.07 133.543 470.833C133.261 471.597 132.846 472.178 132.298 472.577C131.756 472.97 131.095 473.166 130.314 473.166C129.545 473.166 128.884 472.97 128.33 472.577C127.783 472.178 127.362 471.597 127.069 470.833C126.781 470.07 126.637 469.129 126.637 468.011V465.878C126.637 464.766 126.778 463.828 127.06 463.064C127.348 462.3 127.766 461.722 128.314 461.329C128.862 460.936 129.523 460.74 130.298 460.74C131.078 460.74 131.739 460.936 132.282 461.329C132.829 461.722 133.247 462.3 133.535 463.064C133.823 463.828 133.967 464.766 133.967 465.878V468.011ZM133.244 465.82C133.244 464.901 133.134 464.11 132.912 463.446C132.697 462.782 132.37 462.273 131.933 461.918C131.501 461.564 130.956 461.387 130.298 461.387C129.645 461.387 129.097 461.564 128.654 461.918C128.217 462.273 127.89 462.782 127.675 463.446C127.459 464.11 127.351 464.901 127.351 465.82V468.061C127.351 468.969 127.459 469.757 127.675 470.427C127.896 471.091 128.228 471.605 128.671 471.971C129.113 472.336 129.661 472.519 130.314 472.519C130.973 472.519 131.518 472.336 131.95 471.971C132.381 471.605 132.705 471.091 132.921 470.427C133.137 469.757 133.244 468.969 133.244 468.061V465.82ZM143.84 468.011C143.84 469.129 143.699 470.07 143.417 470.833C143.134 471.597 142.719 472.178 142.171 472.577C141.629 472.97 140.968 473.166 140.188 473.166C139.418 473.166 138.757 472.97 138.204 472.577C137.656 472.178 137.235 471.597 136.942 470.833C136.654 470.07 136.51 469.129 136.51 468.011V465.878C136.51 464.766 136.651 463.828 136.934 463.064C137.221 462.3 137.639 461.722 138.187 461.329C138.735 460.936 139.396 460.74 140.171 460.74C140.951 460.74 141.613 460.936 142.155 461.329C142.703 461.722 143.121 462.3 143.408 463.064C143.696 463.828 143.84 464.766 143.84 465.878V468.011ZM143.118 465.82C143.118 464.901 143.007 464.11 142.786 463.446C142.57 462.782 142.243 462.273 141.806 461.918C141.375 461.564 140.83 461.387 140.171 461.387C139.518 461.387 138.97 461.564 138.527 461.918C138.09 462.273 137.764 462.782 137.548 463.446C137.332 464.11 137.224 464.901 137.224 465.82V468.061C137.224 468.969 137.332 469.757 137.548 470.427C137.769 471.091 138.101 471.605 138.544 471.971C138.987 472.336 139.535 472.519 140.188 472.519C140.846 472.519 141.391 472.336 141.823 471.971C142.254 471.605 142.578 471.091 142.794 470.427C143.01 469.757 143.118 468.969 143.118 468.061V465.82ZM156.796 470.759C156.796 470.499 156.727 470.241 156.589 469.987C156.456 469.727 156.204 469.486 155.834 469.265C155.468 469.038 154.932 468.85 154.223 468.7C153.554 468.556 152.989 468.388 152.53 468.194C152.071 467.995 151.722 467.737 151.484 467.422C151.252 467.101 151.135 466.697 151.135 466.21C151.135 465.773 151.26 465.377 151.509 465.023C151.758 464.669 152.112 464.387 152.571 464.176C153.036 463.96 153.587 463.853 154.223 463.853C154.904 463.853 155.488 463.966 155.975 464.193C156.462 464.414 156.835 464.724 157.095 465.123C157.355 465.515 157.485 465.966 157.485 466.476H156.763C156.763 465.961 156.545 465.504 156.107 465.106C155.67 464.702 155.042 464.5 154.223 464.5C153.664 464.5 153.211 464.586 152.862 464.757C152.513 464.923 152.259 465.136 152.098 465.396C151.938 465.651 151.857 465.914 151.857 466.185C151.857 466.467 151.918 466.725 152.04 466.957C152.167 467.184 152.414 467.391 152.779 467.58C153.15 467.762 153.697 467.937 154.422 468.103C155.142 468.263 155.728 468.459 156.182 468.692C156.636 468.919 156.971 469.198 157.187 469.53C157.408 469.857 157.519 470.258 157.519 470.734C157.519 471.21 157.386 471.633 157.12 472.004C156.855 472.369 156.481 472.654 156 472.859C155.518 473.064 154.945 473.166 154.281 473.166C153.54 473.166 152.912 473.047 152.397 472.809C151.888 472.571 151.501 472.256 151.235 471.863C150.975 471.47 150.845 471.049 150.845 470.601H151.567C151.6 471.088 151.758 471.473 152.04 471.755C152.322 472.032 152.665 472.228 153.069 472.344C153.473 472.46 153.877 472.519 154.281 472.519C154.835 472.519 155.297 472.436 155.668 472.27C156.038 472.098 156.318 471.877 156.506 471.605C156.7 471.334 156.796 471.052 156.796 470.759ZM163.731 473.166C162.979 473.166 162.301 472.978 161.698 472.602C161.094 472.22 160.618 471.694 160.27 471.024C159.921 470.355 159.747 469.591 159.747 468.733V468.368C159.747 467.472 159.921 466.683 160.27 466.002C160.618 465.322 161.081 464.793 161.656 464.417C162.237 464.041 162.871 463.853 163.557 463.853C164.271 463.853 164.888 464.021 165.408 464.359C165.934 464.696 166.338 465.164 166.62 465.762C166.902 466.354 167.043 467.043 167.043 467.829V468.393H160.195V467.746H166.321V467.638C166.316 467.084 166.202 466.57 165.981 466.094C165.765 465.618 165.452 465.233 165.043 464.94C164.639 464.647 164.144 464.5 163.557 464.5C162.948 464.5 162.411 464.669 161.947 465.006C161.482 465.344 161.119 465.806 160.859 466.393C160.599 466.974 160.469 467.632 160.469 468.368V468.733C160.469 469.436 160.61 470.075 160.892 470.651C161.18 471.221 161.57 471.677 162.063 472.021C162.555 472.358 163.12 472.527 163.756 472.527C164.276 472.527 164.749 472.436 165.176 472.253C165.607 472.07 165.997 471.752 166.346 471.298L166.811 471.647C166.518 472.073 166.122 472.433 165.624 472.726C165.126 473.019 164.495 473.166 163.731 473.166ZM170.226 473H169.504V464.019H170.21L170.226 465.911V473ZM169.745 467.48C169.806 466.833 169.983 466.235 170.276 465.687C170.575 465.134 170.976 464.691 171.48 464.359C171.983 464.021 172.578 463.853 173.264 463.853C174.155 463.853 174.858 464.099 175.373 464.591C175.893 465.078 176.153 465.889 176.153 467.023V473H175.431V467.04C175.431 466.382 175.331 465.87 175.132 465.504C174.938 465.139 174.664 464.882 174.31 464.732C173.961 464.577 173.56 464.5 173.106 464.5C172.575 464.5 172.121 464.616 171.745 464.849C171.369 465.076 171.062 465.366 170.824 465.72C170.591 466.074 170.417 466.442 170.301 466.824C170.185 467.201 170.121 467.541 170.11 467.845L169.745 467.48ZM175.663 466.965C175.724 466.423 175.904 465.917 176.203 465.446C176.502 464.97 176.905 464.586 177.415 464.292C177.924 463.999 178.516 463.853 179.191 463.853C179.811 463.853 180.336 463.966 180.768 464.193C181.205 464.414 181.537 464.768 181.764 465.255C181.991 465.742 182.105 466.379 182.105 467.165V473H181.382V467.165C181.382 466.462 181.283 465.919 181.084 465.538C180.89 465.15 180.619 464.879 180.27 464.724C179.921 464.569 179.517 464.494 179.058 464.5C178.577 464.506 178.156 464.594 177.796 464.766C177.442 464.937 177.146 465.159 176.908 465.43C176.67 465.695 176.488 465.975 176.36 466.268C176.239 466.561 176.169 466.838 176.153 467.098L175.663 466.965ZM190.67 464.019V474.071C190.67 474.895 190.465 475.526 190.056 475.963C189.646 476.406 189.062 476.627 188.304 476.627C188.166 476.627 188.025 476.614 187.881 476.586C187.731 476.558 187.59 476.52 187.458 476.47L187.482 475.839C187.577 475.872 187.693 475.903 187.831 475.93C187.969 475.958 188.108 475.972 188.246 475.972C188.794 475.972 189.215 475.808 189.508 475.482C189.801 475.161 189.948 474.691 189.948 474.071V464.019H190.67ZM189.765 461.321C189.765 461.16 189.818 461.025 189.923 460.914C190.028 460.803 190.164 460.748 190.33 460.748C190.501 460.748 190.64 460.803 190.745 460.914C190.855 461.025 190.911 461.16 190.911 461.321C190.911 461.47 190.855 461.6 190.745 461.711C190.64 461.816 190.501 461.869 190.33 461.869C190.164 461.869 190.028 461.816 189.923 461.711C189.818 461.6 189.765 461.47 189.765 461.321ZM200.037 464.019H200.759V473H200.053L200.037 470.925V464.019ZM200.61 469.356C200.61 470.086 200.488 470.739 200.244 471.315C200.001 471.89 199.619 472.344 199.099 472.676C198.579 473.003 197.901 473.166 197.065 473.166C196.185 473.166 195.471 472.906 194.924 472.386C194.381 471.86 194.11 470.98 194.11 469.746V464.019H194.832V469.763C194.832 470.443 194.932 470.986 195.131 471.39C195.336 471.794 195.61 472.081 195.953 472.253C196.302 472.424 196.689 472.51 197.115 472.51C197.884 472.51 198.49 472.364 198.933 472.07C199.376 471.771 199.691 471.384 199.879 470.908C200.067 470.427 200.161 469.915 200.161 469.373L200.61 469.356ZM204.706 473H203.983V464.019H204.697L204.706 465.546V473ZM208.042 464.6C207.943 464.583 207.84 464.572 207.735 464.566C207.636 464.555 207.531 464.55 207.42 464.55C206.795 464.55 206.274 464.708 205.859 465.023C205.444 465.333 205.129 465.753 204.913 466.285C204.703 466.81 204.592 467.394 204.581 468.036L204.249 468.119C204.249 467.306 204.362 466.578 204.589 465.936C204.822 465.294 205.173 464.788 205.644 464.417C206.114 464.041 206.712 463.853 207.437 463.853C207.564 463.853 207.686 463.864 207.802 463.886C207.918 463.902 208.009 463.924 208.076 463.952L208.042 464.6ZM209.391 468.352C209.391 467.477 209.557 466.702 209.889 466.027C210.221 465.352 210.683 464.821 211.275 464.434C211.873 464.046 212.567 463.853 213.359 463.853C214.161 463.853 214.858 464.046 215.45 464.434C216.048 464.821 216.51 465.352 216.837 466.027C217.169 466.702 217.335 467.477 217.335 468.352V468.667C217.335 469.536 217.169 470.311 216.837 470.991C216.51 471.672 216.051 472.206 215.459 472.593C214.867 472.975 214.172 473.166 213.375 473.166C212.578 473.166 211.881 472.975 211.283 472.593C210.686 472.206 210.221 471.672 209.889 470.991C209.557 470.311 209.391 469.536 209.391 468.667V468.352ZM210.113 468.667C210.113 469.348 210.24 469.981 210.495 470.568C210.749 471.154 211.117 471.628 211.599 471.987C212.086 472.341 212.678 472.519 213.375 472.519C214.067 472.519 214.654 472.341 215.135 471.987C215.616 471.628 215.982 471.154 216.231 470.568C216.485 469.981 216.613 469.348 216.613 468.667V468.352C216.613 467.676 216.485 467.048 216.231 466.467C215.976 465.881 215.608 465.408 215.127 465.048C214.645 464.683 214.056 464.5 213.359 464.5C212.672 464.5 212.086 464.683 211.599 465.048C211.117 465.408 210.749 465.881 210.495 466.467C210.24 467.048 210.113 467.676 210.113 468.352V468.667ZM225.423 470.759C225.423 470.499 225.354 470.241 225.216 469.987C225.083 469.727 224.831 469.486 224.46 469.265C224.095 469.038 223.558 468.85 222.85 468.7C222.18 468.556 221.616 468.388 221.157 468.194C220.697 467.995 220.349 467.737 220.111 467.422C219.878 467.101 219.762 466.697 219.762 466.21C219.762 465.773 219.887 465.377 220.136 465.023C220.385 464.669 220.739 464.387 221.198 464.176C221.663 463.96 222.214 463.853 222.85 463.853C223.531 463.853 224.115 463.966 224.602 464.193C225.089 464.414 225.462 464.724 225.722 465.123C225.982 465.515 226.112 465.966 226.112 466.476H225.39C225.39 465.961 225.172 465.504 224.734 465.106C224.297 464.702 223.669 464.5 222.85 464.5C222.291 464.5 221.837 464.586 221.489 464.757C221.14 464.923 220.886 465.136 220.725 465.396C220.565 465.651 220.484 465.914 220.484 466.185C220.484 466.467 220.545 466.725 220.667 466.957C220.794 467.184 221.041 467.391 221.406 467.58C221.777 467.762 222.324 467.937 223.049 468.103C223.769 468.263 224.355 468.459 224.809 468.692C225.263 468.919 225.598 469.198 225.813 469.53C226.035 469.857 226.145 470.258 226.145 470.734C226.145 471.21 226.013 471.633 225.747 472.004C225.481 472.369 225.108 472.654 224.626 472.859C224.145 473.064 223.572 473.166 222.908 473.166C222.167 473.166 221.539 473.047 221.024 472.809C220.515 472.571 220.127 472.256 219.862 471.863C219.602 471.47 219.472 471.049 219.472 470.601H220.194C220.227 471.088 220.385 471.473 220.667 471.755C220.949 472.032 221.292 472.228 221.696 472.344C222.1 472.46 222.504 472.519 222.908 472.519C223.462 472.519 223.924 472.436 224.294 472.27C224.665 472.098 224.945 471.877 225.133 471.605C225.326 471.334 225.423 471.052 225.423 470.759Z" fill="#7E8089"/>
<rect x="17" y="17" width="46" height="46" rx="3" fill="white"/>
<rect x="17" y="17" width="46" height="46" rx="3" fill="white"/>
<path d="M46.4359 35.5623L43.6812 31.583C43.477 31.2887 43.2056 31.0473 42.8896 30.8787C42.5735 30.7102 42.2218 30.6194 41.8636 30.6139L36.6358 30.5389H36.625C33.926 30.5389 31.8551 30.9904 30.5214 33.1937C29.2797 35.2445 28.75 38.7381 28.75 44.875V45.625H30.4636L29.3605 51.25H30.8891L31.9922 45.625H32.5C33.7249 45.6359 34.905 45.1646 35.7854 44.3128C36.5813 43.5513 37.1553 42.5095 37.4456 41.3L37.4483 41.2891L38.7347 35.125H37.2023L35.9845 40.9603C35.6137 42.4922 34.5047 44.125 32.5 44.125H30.2528C30.2935 38.8156 30.777 35.6678 31.8046 33.9702C32.6671 32.5452 33.9278 32.0394 36.6198 32.0387L41.842 32.1137C41.9614 32.1155 42.0787 32.1458 42.184 32.2019C42.2894 32.2581 42.3799 32.3386 42.4479 32.4367L45.5641 36.9376L49.75 37.6353V38.4303L49.0519 42.1531C48.8459 43.2519 48.4938 43.8054 47.0495 43.9789L41.1289 44.9918L41.0898 51.25H42.5898L42.6211 46.2581L47.2476 45.4659C48.2957 45.337 49.069 44.9993 49.6113 44.4336C50.0749 43.9499 50.3571 43.332 50.5263 42.4296L51.25 38.5697V36.3646L46.4359 35.5623Z" fill="#7E8089"/>
</svg>
