<svg width="290" height="444" viewBox="0 0 290 444" fill="none" xmlns="http://www.w3.org/2000/svg">
<rect width="288" height="305" rx="3" fill="#F5F5F5"/>
<path d="M2.36572 337.413L2.34717 336.689H5.70557C6.81885 336.689 7.66927 336.464 8.25684 336.012C8.8444 335.555 9.13818 334.868 9.13818 333.953C9.13818 333.037 8.83822 332.354 8.23828 331.902C7.63835 331.451 6.74463 331.225 5.55713 331.225H2.60693V344H1.78125V330.492H5.55713C6.92399 330.492 8.00016 330.774 8.78564 331.336C9.57731 331.893 9.97314 332.778 9.97314 333.99C9.97314 334.546 9.85872 335.047 9.62988 335.493C9.40104 335.938 9.07324 336.3 8.64648 336.578C8.22591 336.856 7.71566 337.03 7.11572 337.098L6.36426 337.413H2.36572ZM2.1709 344L2.54199 343.267H6.27148C7.33529 343.267 8.17025 343.001 8.77637 342.469C9.38867 341.937 9.69482 341.198 9.69482 340.252C9.69482 339.739 9.57422 339.269 9.33301 338.842C9.0918 338.409 8.7238 338.062 8.229 337.803C7.73421 337.543 7.11263 337.413 6.36426 337.413H4.08203L4.10059 336.689H7.37549L7.49609 336.949C8.08366 337.011 8.60319 337.197 9.05469 337.506C9.51237 337.815 9.87109 338.208 10.1309 338.684C10.3906 339.16 10.5205 339.677 10.5205 340.233C10.5205 341.452 10.1278 342.386 9.34229 343.035C8.5568 343.678 7.5332 344 6.27148 344H2.1709ZM19.8576 336.977C19.8576 336.198 19.6133 335.589 19.1247 335.149C18.6361 334.71 17.9372 334.491 17.028 334.491C16.4714 334.491 15.9673 334.59 15.5158 334.788C15.0705 334.986 14.721 335.255 14.4675 335.595C14.2139 335.935 14.0871 336.312 14.0871 336.727L13.28 336.717C13.28 336.204 13.4377 335.725 13.7531 335.279C14.0747 334.834 14.52 334.472 15.089 334.194C15.6581 333.916 16.3137 333.776 17.0558 333.776C17.7609 333.776 18.3856 333.897 18.9299 334.138C19.4741 334.373 19.8978 334.729 20.2009 335.205C20.5101 335.681 20.6647 336.278 20.6647 336.996V341.94C20.6647 342.293 20.6895 342.655 20.7389 343.026C20.7884 343.391 20.8565 343.681 20.943 343.898V344H20.0617C19.9937 343.771 19.9411 343.487 19.904 343.146C19.8731 342.806 19.8576 342.475 19.8576 342.154V336.977ZM20.1174 338.962H17.7238C16.5054 338.962 15.5498 339.182 14.8571 339.621C14.1706 340.06 13.8273 340.642 13.8273 341.365C13.8273 341.94 14.0469 342.432 14.486 342.84C14.9313 343.249 15.5189 343.453 16.2487 343.453C16.9105 343.453 17.495 343.338 18.0021 343.109C18.5093 342.874 18.933 342.559 19.2731 342.163C19.6195 341.767 19.87 341.316 20.0246 340.809L20.3771 341.356C20.2782 341.684 20.1174 342.015 19.8947 342.349C19.6721 342.676 19.3845 342.979 19.0319 343.258C18.6856 343.536 18.2743 343.762 17.798 343.935C17.328 344.102 16.7899 344.186 16.1838 344.186C15.5467 344.186 14.9901 344.068 14.5138 343.833C14.0376 343.592 13.6696 343.261 13.4098 342.84C13.1501 342.414 13.0202 341.934 13.0202 341.402C13.0202 340.456 13.4284 339.698 14.2448 339.129C15.0674 338.56 16.1961 338.276 17.631 338.276H20.0988L20.1174 338.962ZM25.1405 344H24.3334V333.962H25.1219L25.1405 336.105V344ZM24.5931 337.831C24.6612 337.107 24.8653 336.439 25.2054 335.827C25.5456 335.208 26.0002 334.713 26.5692 334.342C27.1382 333.965 27.8 333.776 28.5546 333.776C29.2287 333.776 29.8008 333.903 30.2709 334.157C30.7471 334.404 31.112 334.8 31.3656 335.344C31.6192 335.882 31.746 336.597 31.746 337.487V344H30.9481V337.478C30.9481 336.705 30.8399 336.105 30.6234 335.678C30.4131 335.245 30.1162 334.942 29.7328 334.769C29.3555 334.59 28.9133 334.5 28.4061 334.5C27.8247 334.5 27.3207 334.63 26.8939 334.89C26.4733 335.143 26.1239 335.468 25.8456 335.864C25.5672 336.26 25.357 336.671 25.2147 337.098C25.0725 337.518 24.9921 337.899 24.9735 338.239L24.5931 337.831ZM41.9551 329.75H42.7622V344H41.9922L41.9551 342.052V329.75ZM34.8765 338.879C34.8765 337.834 35.0311 336.931 35.3404 336.17C35.6496 335.403 36.0887 334.812 36.6578 334.398C37.2329 333.984 37.9164 333.776 38.708 333.776C39.4688 333.776 40.1151 333.934 40.647 334.25C41.1789 334.565 41.6088 334.998 41.9366 335.548C42.2644 336.099 42.4932 336.733 42.6231 337.45V340.753C42.5179 341.39 42.3046 341.968 41.9829 342.488C41.6613 343.007 41.2253 343.422 40.6748 343.731C40.1306 344.034 39.4688 344.186 38.6895 344.186C37.904 344.186 37.2237 343.972 36.6485 343.545C36.0795 343.112 35.6403 342.513 35.3311 341.746C35.028 340.979 34.8765 340.088 34.8765 339.074V338.879ZM35.7022 339.074C35.7022 339.915 35.8135 340.663 36.0362 341.319C36.2588 341.974 36.5959 342.494 37.0474 342.877C37.5051 343.261 38.0865 343.453 38.7915 343.453C39.4595 343.453 40.0254 343.329 40.4893 343.082C40.9532 342.834 41.3243 342.506 41.6026 342.098C41.8809 341.69 42.0788 341.238 42.1963 340.744V337.534C42.1283 337.218 42.0201 336.884 41.8716 336.532C41.7294 336.179 41.5284 335.851 41.2686 335.548C41.015 335.239 40.6872 334.989 40.2852 334.797C39.8832 334.605 39.3915 334.509 38.8101 334.509C38.0988 334.509 37.5144 334.701 37.0567 335.084C36.599 335.462 36.2588 335.981 36.0362 336.643C35.8135 337.299 35.7022 338.044 35.7022 338.879V339.074ZM52.591 336.977C52.591 336.198 52.3467 335.589 51.8581 335.149C51.3695 334.71 50.6706 334.491 49.7614 334.491C49.2048 334.491 48.7007 334.59 48.2492 334.788C47.8039 334.986 47.4545 335.255 47.2009 335.595C46.9473 335.935 46.8205 336.312 46.8205 336.727L46.0134 336.717C46.0134 336.204 46.1711 335.725 46.4865 335.279C46.8082 334.834 47.2535 334.472 47.8225 334.194C48.3915 333.916 49.0471 333.776 49.7893 333.776C50.4944 333.776 51.119 333.897 51.6633 334.138C52.2076 334.373 52.6312 334.729 52.9343 335.205C53.2435 335.681 53.3982 336.278 53.3982 336.996V341.94C53.3982 342.293 53.4229 342.655 53.4724 343.026C53.5219 343.391 53.5899 343.681 53.6765 343.898V344H52.7951C52.7271 343.771 52.6745 343.487 52.6374 343.146C52.6065 342.806 52.591 342.475 52.591 342.154V336.977ZM52.8508 338.962H50.4572C49.2388 338.962 48.2833 339.182 47.5905 339.621C46.904 340.06 46.5608 340.642 46.5608 341.365C46.5608 341.94 46.7803 342.432 47.2195 342.84C47.6648 343.249 48.2523 343.453 48.9821 343.453C49.6439 343.453 50.2284 343.338 50.7356 343.109C51.2427 342.874 51.6664 342.559 52.0066 342.163C52.3529 341.767 52.6034 341.316 52.758 340.809L53.1106 341.356C53.0116 341.684 52.8508 342.015 52.6281 342.349C52.4055 342.676 52.1179 342.979 51.7654 343.258C51.419 343.536 51.0077 343.762 50.5315 343.935C50.0614 344.102 49.5233 344.186 48.9172 344.186C48.2802 344.186 47.7235 344.068 47.2473 343.833C46.771 343.592 46.403 343.261 46.1433 342.84C45.8835 342.414 45.7536 341.934 45.7536 341.402C45.7536 340.456 46.1618 339.698 46.9782 339.129C47.8008 338.56 48.9296 338.276 50.3645 338.276H52.8322L52.8508 338.962ZM57.8739 344H57.0668V333.962H57.8554L57.8739 336.105V344ZM57.3266 337.831C57.3946 337.107 57.5987 336.439 57.9389 335.827C58.279 335.208 58.7336 334.713 59.3026 334.342C59.8716 333.965 60.5334 333.776 61.288 333.776C61.9621 333.776 62.5342 333.903 63.0043 334.157C63.4805 334.404 63.8454 334.8 64.099 335.344C64.3526 335.882 64.4794 336.597 64.4794 337.487V344H63.6815V337.478C63.6815 336.705 63.5733 336.105 63.3568 335.678C63.1465 335.245 62.8497 334.942 62.4662 334.769C62.0889 334.59 61.6467 334.5 61.1395 334.5C60.5582 334.5 60.0541 334.63 59.6273 334.89C59.2068 335.143 58.8573 335.468 58.579 335.864C58.3007 336.26 58.0904 336.671 57.9481 337.098C57.8059 337.518 57.7255 337.899 57.7069 338.239L57.3266 337.831ZM74.2711 336.977C74.2711 336.198 74.0268 335.589 73.5382 335.149C73.0496 334.71 72.3507 334.491 71.4415 334.491C70.8848 334.491 70.3808 334.59 69.9293 334.788C69.484 334.986 69.1345 335.255 68.8809 335.595C68.6274 335.935 68.5006 336.312 68.5006 336.727L67.6934 336.717C67.6934 336.204 67.8512 335.725 68.1666 335.279C68.4882 334.834 68.9335 334.472 69.5025 334.194C70.0715 333.916 70.7271 333.776 71.4693 333.776C72.1744 333.776 72.7991 333.897 73.3433 334.138C73.8876 334.373 74.3113 334.729 74.6143 335.205C74.9236 335.681 75.0782 336.278 75.0782 336.996V341.94C75.0782 342.293 75.1029 342.655 75.1524 343.026C75.2019 343.391 75.2699 343.681 75.3565 343.898V344H74.4752C74.4071 343.771 74.3546 343.487 74.3175 343.146C74.2865 342.806 74.2711 342.475 74.2711 342.154V336.977ZM74.5308 338.962H72.1373C70.9189 338.962 69.9633 339.182 69.2706 339.621C68.5841 340.06 68.2408 340.642 68.2408 341.365C68.2408 341.94 68.4604 342.432 68.8995 342.84C69.3448 343.249 69.9324 343.453 70.6622 343.453C71.324 343.453 71.9084 343.338 72.4156 343.109C72.9228 342.874 73.3464 342.559 73.6866 342.163C74.033 341.767 74.2834 341.316 74.4381 340.809L74.7906 341.356C74.6916 341.684 74.5308 342.015 74.3082 342.349C74.0855 342.676 73.7979 342.979 73.4454 343.258C73.099 343.536 72.6877 343.762 72.2115 343.935C71.7414 344.102 71.2034 344.186 70.5972 344.186C69.9602 344.186 69.4036 344.068 68.9273 343.833C68.4511 343.592 68.0831 343.261 67.8233 342.84C67.5636 342.414 67.4337 341.934 67.4337 341.402C67.4337 340.456 67.8419 339.698 68.6583 339.129C69.4809 338.56 70.6096 338.276 72.0445 338.276H74.5123L74.5308 338.962ZM84.6884 347.859H83.8906V333.962H84.6513L84.6884 335.892V347.859ZM91.7763 339.074C91.7763 340.088 91.6248 340.979 91.3217 341.746C91.0248 342.513 90.5919 343.112 90.0229 343.545C89.4601 343.972 88.7797 344.186 87.9819 344.186C87.1964 344.186 86.5253 344.034 85.9687 343.731C85.4182 343.428 84.976 343.02 84.642 342.506C84.3142 341.993 84.0978 341.421 83.9926 340.79V337.45C84.1287 336.733 84.3637 336.099 84.6977 335.548C85.0317 334.998 85.4677 334.565 86.0058 334.25C86.5501 333.934 87.1995 333.776 87.954 333.776C88.7643 333.776 89.4539 333.984 90.0229 334.398C90.5919 334.812 91.0248 335.403 91.3217 336.17C91.6248 336.931 91.7763 337.834 91.7763 338.879V339.074ZM90.9599 338.879C90.9599 338.044 90.8455 337.299 90.6166 336.643C90.394 335.981 90.0507 335.462 89.5869 335.084C89.1292 334.701 88.5447 334.509 87.8334 334.509C87.2521 334.509 86.7604 334.605 86.3583 334.797C85.9625 334.989 85.6347 335.239 85.3749 335.548C85.1152 335.851 84.9142 336.179 84.7719 336.532C84.6297 336.884 84.5245 337.218 84.4565 337.534V340.781C84.5678 341.269 84.7626 341.718 85.041 342.126C85.3193 342.528 85.6904 342.853 86.1542 343.1C86.6243 343.341 87.1902 343.462 87.852 343.462C88.5571 343.462 89.1384 343.27 89.5961 342.887C90.0538 342.503 90.394 341.984 90.6166 341.328C90.8455 340.666 90.9599 339.915 90.9599 339.074V338.879ZM101.141 336.977C101.141 336.198 100.897 335.589 100.408 335.149C99.9197 334.71 99.2208 334.491 98.3116 334.491C97.755 334.491 97.2509 334.59 96.7994 334.788C96.3541 334.986 96.0047 335.255 95.7511 335.595C95.4975 335.935 95.3707 336.312 95.3707 336.727L94.5636 336.717C94.5636 336.204 94.7213 335.725 95.0367 335.279C95.3584 334.834 95.8037 334.472 96.3727 334.194C96.9417 333.916 97.5973 333.776 98.3395 333.776C99.0445 333.776 99.6692 333.897 100.213 334.138C100.758 334.373 101.181 334.729 101.484 335.205C101.794 335.681 101.948 336.278 101.948 336.996V341.94C101.948 342.293 101.973 342.655 102.023 343.026C102.072 343.391 102.14 343.681 102.227 343.898V344H101.345C101.277 343.771 101.225 343.487 101.188 343.146C101.157 342.806 101.141 342.475 101.141 342.154V336.977ZM101.401 338.962H99.0074C97.789 338.962 96.8334 339.182 96.1407 339.621C95.4542 340.06 95.111 340.642 95.111 341.365C95.111 341.94 95.3305 342.432 95.7696 342.84C96.215 343.249 96.8025 343.453 97.5323 343.453C98.1941 343.453 98.7786 343.338 99.2858 343.109C99.7929 342.874 100.217 342.559 100.557 342.163C100.903 341.767 101.154 341.316 101.308 340.809L101.661 341.356C101.562 341.684 101.401 342.015 101.178 342.349C100.956 342.676 100.668 342.979 100.316 343.258C99.9692 343.536 99.5579 343.762 99.0817 343.935C98.6116 344.102 98.0735 344.186 97.4674 344.186C96.8304 344.186 96.2737 344.068 95.7975 343.833C95.3212 343.592 94.9532 343.261 94.6935 342.84C94.4337 342.414 94.3038 341.934 94.3038 341.402C94.3038 340.456 94.712 339.698 95.5284 339.129C96.351 338.56 97.4798 338.276 98.9147 338.276H101.382L101.401 338.962ZM106.424 344H105.617V333.962H106.415L106.424 335.669V344ZM110.154 334.611C110.042 334.593 109.928 334.58 109.81 334.574C109.699 334.562 109.582 334.556 109.458 334.556C108.759 334.556 108.178 334.732 107.714 335.084C107.25 335.431 106.897 335.901 106.656 336.495C106.421 337.082 106.297 337.735 106.285 338.452L105.914 338.545C105.914 337.636 106.041 336.822 106.294 336.105C106.554 335.388 106.947 334.822 107.472 334.407C107.998 333.987 108.666 333.776 109.476 333.776C109.619 333.776 109.755 333.789 109.885 333.813C110.014 333.832 110.117 333.857 110.191 333.888L110.154 334.611ZM118.424 336.977C118.424 336.198 118.18 335.589 117.691 335.149C117.202 334.71 116.503 334.491 115.594 334.491C115.038 334.491 114.534 334.59 114.082 334.788C113.637 334.986 113.287 335.255 113.034 335.595C112.78 335.935 112.653 336.312 112.653 336.727L111.846 336.717C111.846 336.204 112.004 335.725 112.319 335.279C112.641 334.834 113.086 334.472 113.655 334.194C114.224 333.916 114.88 333.776 115.622 333.776C116.327 333.776 116.952 333.897 117.496 334.138C118.04 334.373 118.464 334.729 118.767 335.205C119.076 335.681 119.231 336.278 119.231 336.996V341.94C119.231 342.293 119.256 342.655 119.305 343.026C119.355 343.391 119.423 343.681 119.509 343.898V344H118.628C118.56 343.771 118.507 343.487 118.47 343.146C118.439 342.806 118.424 342.475 118.424 342.154V336.977ZM118.684 338.962H116.29C115.072 338.962 114.116 339.182 113.423 339.621C112.737 340.06 112.394 340.642 112.394 341.365C112.394 341.94 112.613 342.432 113.052 342.84C113.498 343.249 114.085 343.453 114.815 343.453C115.477 343.453 116.061 343.338 116.568 343.109C117.075 342.874 117.499 342.559 117.839 342.163C118.186 341.767 118.436 341.316 118.591 340.809L118.943 341.356C118.844 341.684 118.684 342.015 118.461 342.349C118.238 342.676 117.951 342.979 117.598 343.258C117.252 343.536 116.84 343.762 116.364 343.935C115.894 344.102 115.356 344.186 114.75 344.186C114.113 344.186 113.556 344.068 113.08 343.833C112.604 343.592 112.236 343.261 111.976 342.84C111.716 342.414 111.586 341.934 111.586 341.402C111.586 340.456 111.995 339.698 112.811 339.129C113.634 338.56 114.762 338.276 116.197 338.276H118.665L118.684 338.962ZM131.615 343.462C132.11 343.462 132.577 343.372 133.016 343.193C133.461 343.007 133.829 342.726 134.12 342.349C134.417 341.971 134.584 341.498 134.621 340.929H135.4C135.369 341.585 135.178 342.157 134.825 342.646C134.473 343.134 134.015 343.514 133.452 343.787C132.895 344.053 132.283 344.186 131.615 344.186C130.712 344.186 129.948 343.969 129.324 343.536C128.699 343.097 128.226 342.5 127.904 341.746C127.583 340.991 127.422 340.134 127.422 339.176V338.786C127.422 337.821 127.583 336.965 127.904 336.216C128.226 335.462 128.696 334.868 129.314 334.435C129.939 333.996 130.7 333.776 131.597 333.776C132.283 333.776 132.908 333.916 133.471 334.194C134.033 334.466 134.488 334.868 134.834 335.4C135.181 335.926 135.369 336.563 135.4 337.311H134.621C134.59 336.705 134.432 336.195 134.148 335.78C133.869 335.36 133.505 335.041 133.053 334.825C132.608 334.608 132.122 334.5 131.597 334.5C130.811 334.5 130.168 334.698 129.667 335.094C129.172 335.483 128.807 336.003 128.572 336.652C128.343 337.302 128.229 338.013 128.229 338.786V339.176C128.229 339.949 128.343 340.663 128.572 341.319C128.807 341.968 129.172 342.488 129.667 342.877C130.168 343.267 130.817 343.462 131.615 343.462ZM144.552 336.977C144.552 336.198 144.307 335.589 143.819 335.149C143.33 334.71 142.631 334.491 141.722 334.491C141.166 334.491 140.661 334.59 140.21 334.788C139.765 334.986 139.415 335.255 139.162 335.595C138.908 335.935 138.781 336.312 138.781 336.727L137.974 336.717C137.974 336.204 138.132 335.725 138.447 335.279C138.769 334.834 139.214 334.472 139.783 334.194C140.352 333.916 141.008 333.776 141.75 333.776C142.455 333.776 143.08 333.897 143.624 334.138C144.168 334.373 144.592 334.729 144.895 335.205C145.204 335.681 145.359 336.278 145.359 336.996V341.94C145.359 342.293 145.384 342.655 145.433 343.026C145.483 343.391 145.551 343.681 145.637 343.898V344H144.756C144.688 343.771 144.635 343.487 144.598 343.146C144.567 342.806 144.552 342.475 144.552 342.154V336.977ZM144.812 338.962H142.418C141.2 338.962 140.244 339.182 139.551 339.621C138.865 340.06 138.521 340.642 138.521 341.365C138.521 341.94 138.741 342.432 139.18 342.84C139.626 343.249 140.213 343.453 140.943 343.453C141.605 343.453 142.189 343.338 142.696 343.109C143.203 342.874 143.627 342.559 143.967 342.163C144.314 341.767 144.564 341.316 144.719 340.809L145.071 341.356C144.972 341.684 144.812 342.015 144.589 342.349C144.366 342.676 144.079 342.979 143.726 343.258C143.38 343.536 142.968 343.762 142.492 343.935C142.022 344.102 141.484 344.186 140.878 344.186C140.241 344.186 139.684 344.068 139.208 343.833C138.732 343.592 138.364 343.261 138.104 342.84C137.844 342.414 137.714 341.934 137.714 341.402C137.714 340.456 138.123 339.698 138.939 339.129C139.762 338.56 140.89 338.276 142.325 338.276H144.793L144.812 338.962ZM152.59 343.462C153.085 343.462 153.552 343.372 153.991 343.193C154.436 343.007 154.804 342.726 155.095 342.349C155.392 341.971 155.559 341.498 155.596 340.929H156.375C156.344 341.585 156.153 342.157 155.8 342.646C155.447 343.134 154.99 343.514 154.427 343.787C153.87 344.053 153.258 344.186 152.59 344.186C151.687 344.186 150.923 343.969 150.299 343.536C149.674 343.097 149.201 342.5 148.879 341.746C148.557 340.991 148.397 340.134 148.397 339.176V338.786C148.397 337.821 148.557 336.965 148.879 336.216C149.201 335.462 149.671 334.868 150.289 334.435C150.914 333.996 151.675 333.776 152.571 333.776C153.258 333.776 153.883 333.916 154.446 334.194C155.008 334.466 155.463 334.868 155.809 335.4C156.156 335.926 156.344 336.563 156.375 337.311H155.596C155.565 336.705 155.407 336.195 155.123 335.78C154.844 335.36 154.48 335.041 154.028 334.825C153.583 334.608 153.097 334.5 152.571 334.5C151.786 334.5 151.143 334.698 150.642 335.094C150.147 335.483 149.782 336.003 149.547 336.652C149.318 337.302 149.204 338.013 149.204 338.786V339.176C149.204 339.949 149.318 340.663 149.547 341.319C149.782 341.968 150.147 342.488 150.642 342.877C151.143 343.267 151.792 343.462 152.59 343.462ZM160.127 344H159.32V329.75H160.127V344ZM159.58 337.831C159.648 337.107 159.852 336.439 160.192 335.827C160.532 335.208 160.987 334.713 161.556 334.342C162.125 333.965 162.787 333.776 163.541 333.776C164.216 333.776 164.788 333.903 165.258 334.157C165.734 334.404 166.099 334.8 166.352 335.344C166.606 335.882 166.733 336.597 166.733 337.487V344H165.935V337.478C165.935 336.705 165.827 336.105 165.61 335.678C165.4 335.245 165.103 334.942 164.72 334.769C164.342 334.59 163.9 334.5 163.393 334.5C162.812 334.5 162.307 334.63 161.881 334.89C161.46 335.143 161.111 335.468 160.832 335.864C160.554 336.26 160.344 336.671 160.202 337.098C160.059 337.518 159.979 337.899 159.96 338.239L159.58 337.831ZM169.631 338.805C169.631 337.827 169.817 336.962 170.188 336.207C170.559 335.452 171.076 334.859 171.737 334.426C172.405 333.993 173.182 333.776 174.066 333.776C174.963 333.776 175.742 333.993 176.404 334.426C177.072 334.859 177.588 335.452 177.953 336.207C178.324 336.962 178.51 337.827 178.51 338.805V339.157C178.51 340.128 178.324 340.994 177.953 341.755C177.588 342.516 177.075 343.112 176.413 343.545C175.751 343.972 174.975 344.186 174.085 344.186C173.194 344.186 172.415 343.972 171.747 343.545C171.079 343.112 170.559 342.516 170.188 341.755C169.817 340.994 169.631 340.128 169.631 339.157V338.805ZM170.439 339.157C170.439 339.918 170.581 340.626 170.865 341.282C171.15 341.937 171.561 342.466 172.099 342.868C172.643 343.264 173.305 343.462 174.085 343.462C174.858 343.462 175.513 343.264 176.051 342.868C176.589 342.466 176.998 341.937 177.276 341.282C177.56 340.626 177.703 339.918 177.703 339.157V338.805C177.703 338.05 177.56 337.348 177.276 336.699C176.991 336.043 176.58 335.514 176.042 335.112C175.504 334.704 174.845 334.5 174.066 334.5C173.299 334.5 172.643 334.704 172.099 335.112C171.561 335.514 171.15 336.043 170.865 336.699C170.581 337.348 170.439 338.05 170.439 338.805V339.157ZM182.253 344H181.446V333.962H182.243L182.253 335.669V344ZM185.982 334.611C185.871 334.593 185.756 334.58 185.639 334.574C185.528 334.562 185.41 334.556 185.286 334.556C184.587 334.556 184.006 334.732 183.542 335.084C183.078 335.431 182.726 335.901 182.485 336.495C182.25 337.082 182.126 337.735 182.114 338.452L181.742 338.545C181.742 337.636 181.869 336.822 182.123 336.105C182.383 335.388 182.775 334.822 183.301 334.407C183.827 333.987 184.495 333.776 185.305 333.776C185.447 333.776 185.583 333.789 185.713 333.813C185.843 333.832 185.945 333.857 186.019 333.888L185.982 334.611ZM189.205 344H188.398V333.962H189.196L189.205 335.669V344ZM192.935 334.611C192.824 334.593 192.709 334.58 192.592 334.574C192.48 334.562 192.363 334.556 192.239 334.556C191.54 334.556 190.959 334.732 190.495 335.084C190.031 335.431 189.679 335.901 189.437 336.495C189.202 337.082 189.079 337.735 189.066 338.452L188.695 338.545C188.695 337.636 188.822 336.822 189.076 336.105C189.335 335.388 189.728 334.822 190.254 334.407C190.78 333.987 191.448 333.776 192.258 333.776C192.4 333.776 192.536 333.789 192.666 333.813C192.796 333.832 192.898 333.857 192.972 333.888L192.935 334.611ZM194.442 338.805C194.442 337.827 194.628 336.962 194.999 336.207C195.37 335.452 195.886 334.859 196.548 334.426C197.216 333.993 197.992 333.776 198.877 333.776C199.773 333.776 200.553 333.993 201.214 334.426C201.882 334.859 202.399 335.452 202.764 336.207C203.135 336.962 203.32 337.827 203.32 338.805V339.157C203.32 340.128 203.135 340.994 202.764 341.755C202.399 342.516 201.886 343.112 201.224 343.545C200.562 343.972 199.786 344.186 198.895 344.186C198.004 344.186 197.225 343.972 196.557 343.545C195.889 343.112 195.37 342.516 194.999 341.755C194.628 340.994 194.442 340.128 194.442 339.157V338.805ZM195.249 339.157C195.249 339.918 195.391 340.626 195.676 341.282C195.96 341.937 196.372 342.466 196.91 342.868C197.454 343.264 198.116 343.462 198.895 343.462C199.668 343.462 200.324 343.264 200.862 342.868C201.4 342.466 201.808 341.937 202.087 341.282C202.371 340.626 202.513 339.918 202.513 339.157V338.805C202.513 338.05 202.371 337.348 202.087 336.699C201.802 336.043 201.391 335.514 200.853 335.112C200.315 334.704 199.656 334.5 198.877 334.5C198.11 334.5 197.454 334.704 196.91 335.112C196.372 335.514 195.96 336.043 195.676 336.699C195.391 337.348 195.249 338.05 195.249 338.805V339.157ZM212.361 341.495C212.361 341.204 212.283 340.917 212.129 340.632C211.98 340.342 211.699 340.073 211.284 339.825C210.876 339.572 210.276 339.361 209.485 339.194C208.736 339.034 208.105 338.845 207.592 338.628C207.079 338.406 206.689 338.118 206.423 337.766C206.163 337.407 206.033 336.955 206.033 336.411C206.033 335.923 206.173 335.48 206.451 335.084C206.729 334.689 207.125 334.373 207.638 334.138C208.158 333.897 208.773 333.776 209.485 333.776C210.245 333.776 210.898 333.903 211.442 334.157C211.986 334.404 212.404 334.75 212.695 335.196C212.985 335.635 213.131 336.139 213.131 336.708H212.324C212.324 336.133 212.079 335.623 211.591 335.177C211.102 334.726 210.4 334.5 209.485 334.5C208.86 334.5 208.353 334.596 207.963 334.788C207.574 334.973 207.289 335.211 207.11 335.502C206.93 335.786 206.841 336.08 206.841 336.383C206.841 336.699 206.909 336.986 207.045 337.246C207.187 337.5 207.462 337.732 207.87 337.942C208.285 338.146 208.897 338.341 209.707 338.526C210.511 338.706 211.167 338.925 211.674 339.185C212.181 339.439 212.555 339.751 212.797 340.122C213.044 340.487 213.168 340.935 213.168 341.467C213.168 341.999 213.019 342.472 212.722 342.887C212.426 343.295 212.008 343.613 211.47 343.842C210.932 344.071 210.292 344.186 209.55 344.186C208.721 344.186 208.019 344.053 207.444 343.787C206.875 343.521 206.442 343.168 206.145 342.729C205.854 342.29 205.709 341.82 205.709 341.319H206.516C206.553 341.863 206.729 342.293 207.045 342.608C207.36 342.918 207.744 343.137 208.195 343.267C208.647 343.397 209.098 343.462 209.55 343.462C210.168 343.462 210.685 343.369 211.099 343.184C211.513 342.992 211.826 342.744 212.036 342.441C212.252 342.138 212.361 341.823 212.361 341.495ZM225.264 344.186C224.423 344.186 223.666 343.975 222.991 343.555C222.317 343.128 221.785 342.54 221.396 341.792C221.006 341.044 220.811 340.19 220.811 339.231V338.823C220.811 337.821 221.006 336.94 221.396 336.179C221.785 335.418 222.302 334.828 222.945 334.407C223.594 333.987 224.303 333.776 225.069 333.776C225.867 333.776 226.557 333.965 227.138 334.342C227.726 334.72 228.177 335.242 228.493 335.91C228.808 336.572 228.966 337.342 228.966 338.22V338.851H221.312V338.127H228.159V338.007C228.153 337.388 228.026 336.813 227.778 336.281C227.537 335.749 227.188 335.319 226.73 334.992C226.279 334.664 225.725 334.5 225.069 334.5C224.389 334.5 223.789 334.689 223.27 335.066C222.75 335.443 222.345 335.96 222.054 336.615C221.764 337.265 221.618 338.001 221.618 338.823V339.231C221.618 340.017 221.776 340.731 222.091 341.375C222.413 342.012 222.849 342.522 223.4 342.905C223.95 343.283 224.581 343.471 225.292 343.471C225.874 343.471 226.402 343.369 226.879 343.165C227.361 342.961 227.797 342.605 228.187 342.098L228.706 342.488C228.378 342.964 227.936 343.366 227.38 343.694C226.823 344.022 226.118 344.186 225.264 344.186ZM244.375 333.962V343.842C244.375 344.702 244.214 345.444 243.892 346.069C243.577 346.7 243.125 347.182 242.538 347.516C241.956 347.856 241.267 348.026 240.469 348.026C240.011 348.026 239.572 347.958 239.151 347.822C238.731 347.686 238.344 347.488 237.992 347.229C237.639 346.975 237.333 346.672 237.073 346.319L237.565 345.818C237.961 346.313 238.391 346.684 238.854 346.932C239.318 347.185 239.841 347.312 240.422 347.312C241.443 347.312 242.219 347.003 242.751 346.384C243.289 345.766 243.558 344.925 243.558 343.861V336.17L243.604 333.962H244.375ZM236.489 338.879C236.489 337.834 236.64 336.931 236.943 336.17C237.253 335.403 237.692 334.812 238.261 334.398C238.836 333.984 239.522 333.776 240.32 333.776C240.883 333.776 241.384 333.866 241.823 334.045C242.269 334.225 242.652 334.478 242.974 334.806C243.295 335.134 243.558 335.524 243.762 335.975C243.972 336.42 244.13 336.912 244.235 337.45V340.753C244.13 341.39 243.917 341.968 243.595 342.488C243.274 343.007 242.838 343.422 242.287 343.731C241.737 344.034 241.075 344.186 240.302 344.186C239.504 344.186 238.82 343.972 238.251 343.545C237.682 343.112 237.246 342.513 236.943 341.746C236.64 340.979 236.489 340.088 236.489 339.074V338.879ZM237.296 339.074C237.296 339.915 237.407 340.663 237.63 341.319C237.859 341.974 238.202 342.494 238.66 342.877C239.117 343.261 239.696 343.453 240.395 343.453C241.069 343.453 241.635 343.329 242.092 343.082C242.55 342.834 242.915 342.506 243.187 342.098C243.465 341.69 243.66 341.238 243.771 340.744V337.534C243.703 337.218 243.598 336.884 243.456 336.532C243.314 336.179 243.116 335.851 242.862 335.548C242.609 335.239 242.281 334.989 241.879 334.797C241.483 334.605 240.994 334.509 240.413 334.509C239.708 334.509 239.124 334.701 238.66 335.084C238.202 335.462 237.859 335.981 237.63 336.643C237.407 337.299 237.296 338.044 237.296 338.879V339.074ZM254.203 336.977C254.203 336.198 253.959 335.589 253.47 335.149C252.982 334.71 252.283 334.491 251.374 334.491C250.817 334.491 250.313 334.59 249.862 334.788C249.416 334.986 249.067 335.255 248.813 335.595C248.56 335.935 248.433 336.312 248.433 336.727L247.626 336.717C247.626 336.204 247.783 335.725 248.099 335.279C248.42 334.834 248.866 334.472 249.435 334.194C250.004 333.916 250.659 333.776 251.402 333.776C252.107 333.776 252.731 333.897 253.276 334.138C253.82 334.373 254.244 334.729 254.547 335.205C254.856 335.681 255.01 336.278 255.01 336.996V341.94C255.01 342.293 255.035 342.655 255.085 343.026C255.134 343.391 255.202 343.681 255.289 343.898V344H254.407C254.339 343.771 254.287 343.487 254.25 343.146C254.219 342.806 254.203 342.475 254.203 342.154V336.977ZM254.463 338.962H252.07C250.851 338.962 249.896 339.182 249.203 339.621C248.516 340.06 248.173 340.642 248.173 341.365C248.173 341.94 248.393 342.432 248.832 342.84C249.277 343.249 249.865 343.453 250.594 343.453C251.256 343.453 251.841 343.338 252.348 343.109C252.855 342.874 253.279 342.559 253.619 342.163C253.965 341.767 254.216 341.316 254.37 340.809L254.723 341.356C254.624 341.684 254.463 342.015 254.24 342.349C254.018 342.676 253.73 342.979 253.378 343.258C253.031 343.536 252.62 343.762 252.144 343.935C251.674 344.102 251.136 344.186 250.529 344.186C249.892 344.186 249.336 344.068 248.86 343.833C248.383 343.592 248.015 343.261 247.756 342.84C247.496 342.414 247.366 341.934 247.366 341.402C247.366 340.456 247.774 339.698 248.591 339.129C249.413 338.56 250.542 338.276 251.977 338.276H254.445L254.463 338.962ZM262.288 334.667H257.445V333.962H262.288V334.667ZM260.108 331.318V341.579C260.108 342.104 260.173 342.503 260.303 342.775C260.432 343.041 260.606 343.221 260.822 343.313C261.039 343.4 261.271 343.443 261.518 343.443C261.697 343.443 261.861 343.437 262.01 343.425C262.164 343.406 262.316 343.385 262.464 343.36L262.529 344.056C262.393 344.099 262.214 344.13 261.991 344.148C261.775 344.173 261.58 344.186 261.407 344.186C260.986 344.186 260.615 344.108 260.293 343.954C259.978 343.799 259.731 343.533 259.551 343.156C259.378 342.772 259.291 342.247 259.291 341.579V331.318H260.108ZM264.426 338.805C264.426 337.827 264.611 336.962 264.982 336.207C265.354 335.452 265.87 334.859 266.532 334.426C267.2 333.993 267.976 333.776 268.86 333.776C269.757 333.776 270.536 333.993 271.198 334.426C271.866 334.859 272.383 335.452 272.748 336.207C273.119 336.962 273.304 337.827 273.304 338.805V339.157C273.304 340.128 273.119 340.994 272.748 341.755C272.383 342.516 271.869 343.112 271.208 343.545C270.546 343.972 269.77 344.186 268.879 344.186C267.988 344.186 267.209 343.972 266.541 343.545C265.873 343.112 265.354 342.516 264.982 341.755C264.611 340.994 264.426 340.128 264.426 339.157V338.805ZM265.233 339.157C265.233 339.918 265.375 340.626 265.66 341.282C265.944 341.937 266.355 342.466 266.894 342.868C267.438 343.264 268.1 343.462 268.879 343.462C269.652 343.462 270.308 343.264 270.846 342.868C271.384 342.466 271.792 341.937 272.07 341.282C272.355 340.626 272.497 339.918 272.497 339.157V338.805C272.497 338.05 272.355 337.348 272.07 336.699C271.786 336.043 271.375 335.514 270.836 335.112C270.298 334.704 269.64 334.5 268.86 334.5C268.093 334.5 267.438 334.704 266.894 335.112C266.355 335.514 265.944 336.043 265.66 336.699C265.375 337.348 265.233 338.05 265.233 338.805V339.157ZM282.344 341.495C282.344 341.204 282.267 340.917 282.113 340.632C281.964 340.342 281.683 340.073 281.268 339.825C280.86 339.572 280.26 339.361 279.468 339.194C278.72 339.034 278.089 338.845 277.576 338.628C277.063 338.406 276.673 338.118 276.407 337.766C276.147 337.407 276.017 336.955 276.017 336.411C276.017 335.923 276.156 335.48 276.435 335.084C276.713 334.689 277.109 334.373 277.622 334.138C278.142 333.897 278.757 333.776 279.468 333.776C280.229 333.776 280.882 333.903 281.426 334.157C281.97 334.404 282.388 334.75 282.678 335.196C282.969 335.635 283.114 336.139 283.114 336.708H282.307C282.307 336.133 282.063 335.623 281.574 335.177C281.086 334.726 280.384 334.5 279.468 334.5C278.844 334.5 278.337 334.596 277.947 334.788C277.557 334.973 277.273 335.211 277.093 335.502C276.914 335.786 276.824 336.08 276.824 336.383C276.824 336.699 276.892 336.986 277.029 337.246C277.171 337.5 277.446 337.732 277.854 337.942C278.269 338.146 278.881 338.341 279.691 338.526C280.495 338.706 281.151 338.925 281.658 339.185C282.165 339.439 282.539 339.751 282.78 340.122C283.028 340.487 283.152 340.935 283.152 341.467C283.152 341.999 283.003 342.472 282.706 342.887C282.409 343.295 281.992 343.613 281.454 343.842C280.916 344.071 280.276 344.186 279.533 344.186C278.705 344.186 278.003 344.053 277.427 343.787C276.858 343.521 276.426 343.168 276.129 342.729C275.838 342.29 275.693 341.82 275.693 341.319H276.5C276.537 341.863 276.713 342.293 277.029 342.608C277.344 342.918 277.727 343.137 278.179 343.267C278.63 343.397 279.082 343.462 279.533 343.462C280.152 343.462 280.668 343.369 281.083 343.184C281.497 342.992 281.809 342.744 282.02 342.441C282.236 342.138 282.344 341.823 282.344 341.495ZM10.0938 367H2.27295V366.267H10.0938V367ZM2.60693 367H1.78125V353.492H2.60693V367ZM9.14746 360.413H2.27295V359.68H9.14746V360.413ZM10.0752 354.225H2.27295V353.492H10.0752V354.225ZM13.716 367H12.9089V356.962H13.6974L13.716 359.105V367ZM13.1686 360.831C13.2367 360.107 13.4408 359.439 13.7809 358.827C14.1211 358.208 14.5757 357.713 15.1447 357.342C15.7137 356.965 16.3755 356.776 17.1301 356.776C17.8042 356.776 18.3763 356.903 18.8464 357.157C19.3226 357.404 19.6875 357.8 19.9411 358.344C20.1947 358.882 20.3215 359.597 20.3215 360.487V367H19.5236V360.478C19.5236 359.705 19.4154 359.105 19.1989 358.678C18.9886 358.245 18.6917 357.942 18.3083 357.769C17.931 357.59 17.4888 357.5 16.9816 357.5C16.4002 357.5 15.8962 357.63 15.4694 357.89C15.0488 358.143 14.6994 358.468 14.4211 358.864C14.1428 359.26 13.9325 359.671 13.7902 360.098C13.648 360.518 13.5676 360.899 13.549 361.239L13.1686 360.831ZM27.6546 367.186C26.8135 367.186 26.0559 366.975 25.3817 366.555C24.7075 366.128 24.1756 365.54 23.786 364.792C23.3963 364.044 23.2015 363.19 23.2015 362.231V361.823C23.2015 360.821 23.3963 359.94 23.786 359.179C24.1756 358.418 24.6921 357.828 25.3353 357.407C25.9847 356.987 26.6929 356.776 27.4598 356.776C28.2577 356.776 28.9473 356.965 29.5287 357.342C30.1162 357.72 30.5677 358.242 30.8832 358.91C31.1986 359.572 31.3563 360.342 31.3563 361.22V361.851H23.7025V361.127H30.5492V361.007C30.543 360.388 30.4162 359.813 30.1688 359.281C29.9276 358.749 29.5782 358.319 29.1205 357.992C28.669 357.664 28.1154 357.5 27.4598 357.5C26.7795 357.5 26.1796 357.689 25.66 358.066C25.1405 358.443 24.7354 358.96 24.4447 359.615C24.154 360.265 24.0087 361.001 24.0087 361.823V362.231C24.0087 363.017 24.1664 363.731 24.4818 364.375C24.8034 365.012 25.2394 365.522 25.7899 365.905C26.3404 366.283 26.9712 366.471 27.6825 366.471C28.2639 366.471 28.7927 366.369 29.2689 366.165C29.7513 365.961 30.1874 365.605 30.577 365.098L31.0965 365.488C30.7687 365.964 30.3265 366.366 29.7699 366.694C29.2132 367.022 28.5082 367.186 27.6546 367.186ZM34.9878 367H34.1807V356.962H34.9786L34.9878 358.669V367ZM38.7173 357.611C38.606 357.593 38.4916 357.58 38.3741 357.574C38.2627 357.562 38.1452 357.556 38.0215 357.556C37.3226 357.556 36.7412 357.732 36.2774 358.084C35.8135 358.431 35.461 358.901 35.2198 359.495C34.9847 360.082 34.861 360.735 34.8487 361.452L34.4776 361.545C34.4776 360.636 34.6044 359.822 34.8579 359.105C35.1177 358.388 35.5105 357.822 36.0362 357.407C36.5619 356.987 37.2299 356.776 38.0401 356.776C38.1823 356.776 38.3184 356.789 38.4483 356.813C38.5782 356.832 38.6802 356.857 38.7544 356.888L38.7173 357.611ZM48.5647 356.962V366.842C48.5647 367.702 48.4039 368.444 48.0822 369.069C47.7668 369.7 47.3153 370.182 46.7278 370.516C46.1464 370.856 45.4568 371.026 44.6589 371.026C44.2012 371.026 43.7621 370.958 43.3415 370.822C42.9209 370.686 42.5344 370.488 42.1819 370.229C41.8293 369.975 41.5232 369.672 41.2634 369.319L41.7551 368.818C42.1509 369.313 42.5808 369.684 43.0446 369.932C43.5085 370.185 44.0311 370.312 44.6125 370.312C45.633 370.312 46.4092 370.003 46.9411 369.384C47.4792 368.766 47.7483 367.925 47.7483 366.861V359.17L47.7946 356.962H48.5647ZM40.6789 361.879C40.6789 360.834 40.8305 359.931 41.1335 359.17C41.4428 358.403 41.8819 357.812 42.4509 357.398C43.0261 356.984 43.7126 356.776 44.5105 356.776C45.0733 356.776 45.5743 356.866 46.0134 357.045C46.4587 357.225 46.8422 357.478 47.1638 357.806C47.4854 358.134 47.7483 358.524 47.9524 358.975C48.1626 359.42 48.3204 359.912 48.4255 360.45V363.753C48.3204 364.39 48.107 364.968 47.7854 365.488C47.4638 366.007 47.0277 366.422 46.4773 366.731C45.9268 367.034 45.265 367.186 44.4919 367.186C43.6941 367.186 43.0106 366.972 42.4416 366.545C41.8726 366.112 41.4366 365.513 41.1335 364.746C40.8305 363.979 40.6789 363.088 40.6789 362.074V361.879ZM41.4861 362.074C41.4861 362.915 41.5974 363.663 41.82 364.319C42.0489 364.974 42.3921 365.494 42.8498 365.877C43.3075 366.261 43.8858 366.453 44.5847 366.453C45.2588 366.453 45.8248 366.329 46.2824 366.082C46.7401 365.834 47.105 365.506 47.3772 365.098C47.6555 364.69 47.8503 364.238 47.9616 363.744V360.534C47.8936 360.218 47.7885 359.884 47.6462 359.532C47.504 359.179 47.306 358.851 47.0525 358.548C46.7989 358.239 46.4711 357.989 46.0691 357.797C45.6732 357.605 45.1846 357.509 44.6032 357.509C43.8982 357.509 43.3137 357.701 42.8498 358.084C42.3921 358.462 42.0489 358.981 41.82 359.643C41.5974 360.299 41.4861 361.044 41.4861 361.879V362.074ZM58.5512 356.962H59.4232L55.0722 368.642C54.9856 368.859 54.8804 369.106 54.7567 369.384C54.633 369.663 54.4691 369.929 54.265 370.182C54.0671 370.436 53.8104 370.643 53.495 370.804C53.1858 370.971 52.8023 371.054 52.3446 371.054C52.2704 371.054 52.1807 371.048 52.0756 371.036C51.9704 371.023 51.8684 371.008 51.7694 370.989C51.6705 370.977 51.5963 370.961 51.5468 370.943L51.5375 370.247C51.6179 370.266 51.7261 370.281 51.8622 370.293C52.0045 370.312 52.1034 370.321 52.1591 370.321C52.7714 370.321 53.2383 370.151 53.56 369.811C53.8878 369.471 54.1568 369.004 54.3671 368.41L55.2484 366.017L58.5512 356.962ZM55.3969 365.998L55.6195 366.824L55.0165 367.195L51.018 356.962H51.8993L55.3969 365.998Z" fill="#43444A"/>
<path d="M7.4458 423.648C8.69613 423.648 9.76302 423.836 10.6465 424.21C11.5299 424.584 12.2038 425.138 12.668 425.872C13.1396 426.606 13.3755 427.508 13.3755 428.579C13.3755 429.402 13.2257 430.125 12.9263 430.746C12.6268 431.368 12.2 431.892 11.646 432.318C11.0994 432.738 10.4518 433.063 9.70312 433.295L8.82715 433.745H3.6499L3.62744 431.42H7.46826C8.1346 431.42 8.68864 431.304 9.13037 431.072C9.57959 430.84 9.91276 430.521 10.1299 430.117C10.3545 429.713 10.4668 429.252 10.4668 428.736C10.4668 427.897 10.2235 427.231 9.73682 426.737C9.25765 426.235 8.49398 425.984 7.4458 425.984H4.53711V440H1.63965V423.648H7.4458ZM7.10889 432.667L10.1523 432.655L14.0269 439.854V440H10.9272L7.10889 432.667ZM22.2363 424.401H20.4731V421.021H22.2363V424.401ZM22.0117 442.381H20.2598V439.371H22.0117V442.381ZM23.6289 435.732C23.6289 435.306 23.5428 434.931 23.3706 434.609C23.1984 434.287 22.9176 433.999 22.5283 433.745C22.1465 433.483 21.6261 433.239 20.9673 433.015C20.009 432.67 19.1704 432.288 18.4517 431.869C17.7404 431.442 17.1864 430.915 16.7896 430.286C16.4002 429.657 16.2056 428.874 16.2056 427.938C16.2056 427.01 16.4152 426.209 16.8345 425.535C17.2537 424.854 17.8452 424.33 18.6089 423.963C19.3726 423.596 20.2598 423.413 21.2705 423.413C22.3112 423.413 23.2096 423.618 23.9658 424.03C24.7295 424.442 25.3172 425.041 25.729 425.827C26.1483 426.613 26.3579 427.568 26.3579 428.691H23.584C23.584 427.755 23.3743 427.021 22.9551 426.49C22.5433 425.958 21.9743 425.692 21.248 425.692C20.7314 425.692 20.3047 425.79 19.9678 425.984C19.6309 426.179 19.3838 426.445 19.2266 426.782C19.0693 427.111 18.9907 427.493 18.9907 427.927C18.9907 428.339 19.0731 428.702 19.2378 429.017C19.4025 429.324 19.6795 429.604 20.0688 429.859C20.4657 430.113 21.0085 430.368 21.6973 430.623C22.6631 430.974 23.4979 431.364 24.2017 431.791C24.9129 432.217 25.4595 432.745 25.8413 433.374C26.2306 433.995 26.4253 434.774 26.4253 435.71C26.4253 436.676 26.2007 437.496 25.7515 438.169C25.3097 438.843 24.6883 439.356 23.8872 439.708C23.0936 440.06 22.1615 440.236 21.0908 440.236C20.4245 440.236 19.7619 440.146 19.103 439.966C18.4517 439.787 17.8602 439.495 17.3286 439.09C16.797 438.686 16.3703 438.151 16.0483 437.484C15.7339 436.811 15.5767 435.979 15.5767 434.991H18.3618C18.3618 435.568 18.4404 436.047 18.5977 436.429C18.7549 436.811 18.9645 437.114 19.2266 437.338C19.4961 437.556 19.7918 437.713 20.1138 437.81C20.4357 437.907 20.7614 437.956 21.0908 437.956C21.6449 437.956 22.109 437.862 22.4834 437.675C22.8577 437.488 23.1423 437.226 23.3369 436.889C23.5316 436.552 23.6289 436.167 23.6289 435.732ZM39.3179 430.555C39.9393 430.555 40.4521 430.45 40.8564 430.241C41.2607 430.031 41.564 429.739 41.7661 429.365C41.9683 428.99 42.0693 428.56 42.0693 428.073C42.0693 427.579 41.9795 427.152 41.7998 426.793C41.6201 426.426 41.3468 426.145 40.98 425.951C40.6131 425.756 40.1527 425.659 39.5986 425.659C39.1344 425.659 38.7114 425.752 38.3296 425.939C37.9552 426.119 37.6558 426.377 37.4312 426.714C37.214 427.044 37.1055 427.441 37.1055 427.905H34.3203C34.3203 427.029 34.5487 426.254 35.0054 425.58C35.4621 424.906 36.0835 424.378 36.8696 423.997C37.6632 423.615 38.5579 423.424 39.5537 423.424C40.6094 423.424 41.534 423.6 42.3276 423.952C43.1213 424.296 43.7389 424.813 44.1807 425.501C44.6299 426.19 44.8545 427.044 44.8545 428.062C44.8545 428.541 44.7459 429.02 44.5288 429.5C44.3117 429.971 43.9897 430.405 43.563 430.802C43.1362 431.199 42.6047 431.517 41.9683 431.757C41.3319 431.996 40.5944 432.116 39.7559 432.116H37.7007V430.555H39.3179ZM37.7007 431.218H39.7559C40.7142 431.218 41.5303 431.33 42.2041 431.555C42.8854 431.772 43.4395 432.075 43.8662 432.464C44.293 432.854 44.6037 433.303 44.7983 433.812C45.0005 434.321 45.1016 434.856 45.1016 435.418C45.1016 436.444 44.8582 437.316 44.3716 438.035C43.8849 438.746 43.2223 439.289 42.3838 439.663C41.5527 440.037 40.6094 440.225 39.5537 440.225C38.8574 440.225 38.1836 440.127 37.5322 439.933C36.8809 439.738 36.3006 439.45 35.7915 439.068C35.2899 438.679 34.8893 438.196 34.5898 437.619C34.2979 437.035 34.1519 436.358 34.1519 435.586H36.937C36.937 436.051 37.0493 436.466 37.2739 436.833C37.4985 437.192 37.8092 437.477 38.2061 437.687C38.6104 437.889 39.0783 437.99 39.6099 437.99C40.4484 437.99 41.1073 437.765 41.5864 437.316C42.0731 436.859 42.3164 436.227 42.3164 435.418C42.3164 434.797 42.1929 434.291 41.9458 433.902C41.7062 433.505 41.3618 433.217 40.9126 433.037C40.4634 432.85 39.9318 432.756 39.3179 432.756H37.7007V431.218ZM52.4126 430.555C53.034 430.555 53.5469 430.45 53.9512 430.241C54.3555 430.031 54.6587 429.739 54.8608 429.365C55.063 428.99 55.1641 428.56 55.1641 428.073C55.1641 427.579 55.0742 427.152 54.8945 426.793C54.7148 426.426 54.4416 426.145 54.0747 425.951C53.7078 425.756 53.2474 425.659 52.6934 425.659C52.2292 425.659 51.8062 425.752 51.4243 425.939C51.05 426.119 50.7505 426.377 50.5259 426.714C50.3088 427.044 50.2002 427.441 50.2002 427.905H47.415C47.415 427.029 47.6434 426.254 48.1001 425.58C48.5568 424.906 49.1782 424.378 49.9644 423.997C50.758 423.615 51.6527 423.424 52.6484 423.424C53.7041 423.424 54.6287 423.6 55.4224 423.952C56.216 424.296 56.8337 424.813 57.2754 425.501C57.7246 426.19 57.9492 427.044 57.9492 428.062C57.9492 428.541 57.8407 429.02 57.6235 429.5C57.4064 429.971 57.0845 430.405 56.6577 430.802C56.231 431.199 55.6994 431.517 55.063 431.757C54.4266 431.996 53.6891 432.116 52.8506 432.116H50.7954V430.555H52.4126ZM50.7954 431.218H52.8506C53.8089 431.218 54.625 431.33 55.2988 431.555C55.9801 431.772 56.5342 432.075 56.9609 432.464C57.3877 432.854 57.6984 433.303 57.8931 433.812C58.0952 434.321 58.1963 434.856 58.1963 435.418C58.1963 436.444 57.953 437.316 57.4663 438.035C56.9797 438.746 56.3171 439.289 55.4785 439.663C54.6475 440.037 53.7041 440.225 52.6484 440.225C51.9521 440.225 51.2783 440.127 50.627 439.933C49.9756 439.738 49.3953 439.45 48.8862 439.068C48.3846 438.679 47.984 438.196 47.6846 437.619C47.3926 437.035 47.2466 436.358 47.2466 435.586H50.0317C50.0317 436.051 50.144 436.466 50.3687 436.833C50.5933 437.192 50.904 437.477 51.3008 437.687C51.7051 437.889 52.173 437.99 52.7046 437.99C53.5431 437.99 54.202 437.765 54.6812 437.316C55.1678 436.859 55.4111 436.227 55.4111 435.418C55.4111 434.797 55.2876 434.291 55.0405 433.902C54.8009 433.505 54.4565 433.217 54.0073 433.037C53.5581 432.85 53.0265 432.756 52.4126 432.756H50.7954V431.218ZM63.4521 439.337C63.4521 440.116 63.2575 440.913 62.8682 441.729C62.4788 442.546 61.966 443.223 61.3296 443.762L59.8359 442.909C60.0456 442.572 60.2365 442.231 60.4087 441.887C60.5809 441.542 60.7194 441.172 60.8242 440.775C60.929 440.378 60.9814 439.936 60.9814 439.45V437.361H63.4521V439.337ZM68.2925 437.776C69.3182 437.776 70.1755 437.645 70.8643 437.383C71.5605 437.121 72.1108 436.754 72.5151 436.283C72.9194 435.804 73.2077 435.246 73.3799 434.609C73.5596 433.965 73.6494 433.262 73.6494 432.498V429.601C73.6494 428.74 73.5296 428.017 73.29 427.433C73.0505 426.849 72.7323 426.411 72.3354 426.119C71.9386 425.82 71.4969 425.67 71.0103 425.67C70.4712 425.67 70.0107 425.827 69.6289 426.142C69.2471 426.456 68.9551 426.872 68.7529 427.388C68.5583 427.905 68.4609 428.47 68.4609 429.084C68.4609 429.668 68.5545 430.218 68.7417 430.735C68.9289 431.251 69.2134 431.671 69.5952 431.993C69.9771 432.307 70.46 432.464 71.0439 432.464C71.4408 432.464 71.8114 432.386 72.1558 432.229C72.5002 432.064 72.7996 431.85 73.0542 431.588C73.3088 431.326 73.5109 431.031 73.6606 430.701C73.8104 430.364 73.8965 430.02 73.9189 429.668L74.9746 430.039C74.9746 430.593 74.8548 431.143 74.6152 431.689C74.3831 432.236 74.0612 432.734 73.6494 433.183C73.2376 433.625 72.7547 433.977 72.2007 434.239C71.6541 434.501 71.0627 434.632 70.4263 434.632C69.3781 434.632 68.5021 434.381 67.7983 433.879C67.1021 433.37 66.578 432.7 66.2261 431.869C65.8742 431.038 65.6982 430.132 65.6982 429.151C65.6982 428.096 65.9079 427.137 66.3271 426.276C66.7539 425.408 67.3641 424.715 68.1577 424.199C68.9513 423.682 69.9059 423.424 71.0215 423.424C71.8975 423.424 72.6724 423.592 73.3462 423.929C74.0275 424.266 74.5928 424.738 75.042 425.344C75.4987 425.951 75.8431 426.658 76.0752 427.467C76.3148 428.268 76.4346 429.133 76.4346 430.061V431.049C76.4346 432.03 76.3447 432.97 76.165 433.868C75.9928 434.767 75.7158 435.594 75.334 436.35C74.9521 437.106 74.443 437.765 73.8066 438.327C73.1777 438.888 72.4103 439.326 71.5044 439.641C70.5985 439.948 69.5353 440.101 68.3149 440.101H68.0791V437.776H68.2925ZM89.6753 433.149C89.6753 434.841 89.4544 436.208 89.0127 437.249C88.571 438.282 87.9495 439.038 87.1484 439.517C86.3473 439.989 85.404 440.225 84.3184 440.225C83.2477 440.225 82.3044 439.989 81.4883 439.517C80.6797 439.038 80.0508 438.282 79.6016 437.249C79.1523 436.208 78.9277 434.841 78.9277 433.149V430.443C78.9277 428.743 79.1486 427.381 79.5903 426.355C80.0396 425.329 80.6685 424.584 81.4771 424.12C82.2856 423.656 83.2253 423.424 84.2959 423.424C85.3815 423.424 86.3249 423.656 87.126 424.12C87.9346 424.584 88.5597 425.329 89.0015 426.355C89.4507 427.381 89.6753 428.743 89.6753 430.443V433.149ZM86.8901 430.027C86.8901 428.957 86.7891 428.103 86.5869 427.467C86.3923 426.83 86.1003 426.374 85.7109 426.097C85.3291 425.812 84.8574 425.67 84.2959 425.67C83.7493 425.67 83.2814 425.812 82.8921 426.097C82.5103 426.374 82.2183 426.83 82.0161 427.467C81.814 428.103 81.7129 428.957 81.7129 430.027V433.542C81.7129 434.613 81.814 435.474 82.0161 436.125C82.2257 436.777 82.5252 437.252 82.9146 437.552C83.3039 437.844 83.7718 437.99 84.3184 437.99C84.8799 437.99 85.3516 437.844 85.7334 437.552C86.1152 437.252 86.4035 436.777 86.5981 436.125C86.7928 435.474 86.8901 434.613 86.8901 433.542V430.027Z" fill="#43444A"/>
<rect x="17" y="17" width="46" height="46" rx="3" fill="white"/>
<rect x="17" y="17" width="46" height="46" rx="3" fill="white"/>
<path d="M46.4359 35.5623L43.6812 31.583C43.477 31.2887 43.2056 31.0473 42.8896 30.8787C42.5735 30.7102 42.2218 30.6194 41.8636 30.6139L36.6358 30.5389H36.625C33.926 30.5389 31.8551 30.9904 30.5214 33.1937C29.2797 35.2445 28.75 38.7381 28.75 44.875V45.625H30.4636L29.3605 51.25H30.8891L31.9922 45.625H32.5C33.7249 45.6359 34.905 45.1646 35.7854 44.3128C36.5813 43.5513 37.1553 42.5095 37.4456 41.3L37.4483 41.2891L38.7347 35.125H37.2023L35.9845 40.9603C35.6137 42.4922 34.5047 44.125 32.5 44.125H30.2528C30.2935 38.8156 30.777 35.6678 31.8046 33.9702C32.6671 32.5452 33.9278 32.0394 36.6198 32.0387L41.842 32.1137C41.9614 32.1155 42.0787 32.1458 42.184 32.2019C42.2894 32.2581 42.3799 32.3386 42.4479 32.4367L45.5641 36.9376L49.75 37.6353V38.4303L49.0519 42.1531C48.8459 43.2519 48.4938 43.8054 47.0495 43.9789L41.1289 44.9918L41.0898 51.25H42.5898L42.6211 46.2581L47.2476 45.4659C48.2957 45.337 49.069 44.9993 49.6113 44.4336C50.0749 43.9499 50.3571 43.332 50.5263 42.4296L51.25 38.5697V36.3646L46.4359 35.5623Z" fill="#7E8089"/>
</svg>
