<svg width="147" height="37" viewBox="0 0 147 37" fill="none" xmlns="http://www.w3.org/2000/svg">
<rect width="147" height="37" rx="18.5" fill="#38C9AC" fill-opacity="0.1"/>
<path d="M26.1455 20.4375C26.1455 20.1344 26.0806 19.8716 25.9507 19.6489C25.8208 19.4263 25.5703 19.216 25.1992 19.0181C24.8343 18.814 24.2931 18.5975 23.5757 18.3687C22.7593 18.1089 22.0078 17.7996 21.3213 17.4409C20.6348 17.076 20.0812 16.6245 19.6606 16.0864C19.2463 15.5483 19.0391 14.8835 19.0391 14.0918C19.0391 13.3311 19.2555 12.6693 19.6885 12.1064C20.1214 11.5374 20.7152 11.0952 21.4697 10.7798C22.2305 10.4644 23.0994 10.3066 24.0767 10.3066C25.0786 10.3066 25.9538 10.4829 26.7021 10.8354C27.4505 11.188 28.0288 11.6797 28.437 12.3105C28.8514 12.9352 29.0586 13.6589 29.0586 14.4814H26.1548C26.1548 13.9372 25.9816 13.4919 25.6353 13.1455C25.2889 12.793 24.7539 12.6167 24.0303 12.6167C23.3314 12.6167 22.8088 12.762 22.4624 13.0527C22.1222 13.3434 21.9521 13.696 21.9521 14.1104C21.9521 14.5433 22.1779 14.902 22.6294 15.1865C23.0871 15.471 23.7334 15.7432 24.5684 16.0029C26.0404 16.4544 27.1567 17.0234 27.9175 17.71C28.6782 18.3965 29.0586 19.2995 29.0586 20.4189C29.0586 21.6126 28.6133 22.5404 27.7227 23.2021C26.832 23.8577 25.6383 24.1855 24.1416 24.1855C23.4613 24.1855 22.7933 24.099 22.1377 23.9258C21.4883 23.7464 20.8976 23.4743 20.3657 23.1094C19.84 22.7383 19.4194 22.2713 19.104 21.7085C18.7886 21.1457 18.6309 20.4777 18.6309 19.7046H21.5532C21.5532 20.5024 21.7852 21.0653 22.249 21.3931C22.7191 21.7209 23.3499 21.8848 24.1416 21.8848C24.8281 21.8848 25.3322 21.7456 25.6538 21.4673C25.9816 21.189 26.1455 20.8457 26.1455 20.4375ZM35.4919 21.9312C35.9681 21.9312 36.3516 21.8013 36.6423 21.5415C36.9391 21.2756 37.0907 20.923 37.0969 20.4839H39.7316C39.7254 21.2075 39.5368 21.8477 39.1657 22.4043C38.7946 22.9609 38.2936 23.397 37.6628 23.7124C37.0319 24.0278 36.3237 24.1855 35.5383 24.1855C34.4992 24.1855 33.6333 23.9629 32.9406 23.5176C32.2541 23.0661 31.7376 22.4569 31.3913 21.6899C31.0511 20.9168 30.881 20.0571 30.881 19.1108V18.8604C30.881 17.9079 31.0511 17.0482 31.3913 16.2812C31.7376 15.5143 32.2541 14.9051 32.9406 14.4536C33.6333 14.0021 34.4961 13.7764 35.529 13.7764C36.3578 13.7764 37.0845 13.9372 37.7092 14.2588C38.34 14.5742 38.8317 15.0288 39.1843 15.6226C39.543 16.2101 39.7254 16.9152 39.7316 17.7378H37.0969C37.0907 17.2677 36.9515 16.8657 36.6794 16.5317C36.4072 16.1978 36.0052 16.0308 35.4733 16.0308C34.9785 16.0308 34.6012 16.1637 34.3415 16.4297C34.0879 16.6956 33.9147 17.0451 33.822 17.478C33.7292 17.9048 33.6828 18.3656 33.6828 18.8604V19.1108C33.6828 19.6118 33.7261 20.0788 33.8127 20.5117C33.9054 20.9385 34.0817 21.2817 34.3415 21.5415C34.6012 21.8013 34.9847 21.9312 35.4919 21.9312ZM41.3778 18.8882C41.3778 17.911 41.5633 17.0389 41.9344 16.272C42.3055 15.4989 42.8467 14.8896 43.558 14.4443C44.2692 13.999 45.132 13.7764 46.1463 13.7764C47.173 13.7764 48.042 13.999 48.7533 14.4443C49.4707 14.8896 50.0119 15.4989 50.3768 16.272C50.7479 17.0389 50.9335 17.911 50.9335 18.8882V19.083C50.9335 20.054 50.7479 20.9261 50.3768 21.6992C50.0119 22.4661 49.4738 23.0723 48.7626 23.5176C48.0513 23.9629 47.1854 24.1855 46.1649 24.1855C45.1444 24.1855 44.2754 23.9629 43.558 23.5176C42.8467 23.0723 42.3055 22.4661 41.9344 21.6992C41.5633 20.9261 41.3778 20.054 41.3778 19.083V18.8882ZM44.1888 19.083C44.1888 19.6087 44.2507 20.0881 44.3744 20.521C44.4981 20.9539 44.7053 21.2972 44.996 21.5508C45.2866 21.8044 45.6763 21.9312 46.1649 21.9312C46.8885 21.9312 47.3957 21.6559 47.6864 21.1055C47.9833 20.5488 48.1317 19.8747 48.1317 19.083V18.8882C48.1317 18.3748 48.0668 17.9017 47.9369 17.4688C47.8132 17.0358 47.606 16.6895 47.3153 16.4297C47.0308 16.1637 46.6411 16.0308 46.1463 16.0308C45.6639 16.0308 45.2805 16.1637 44.996 16.4297C44.7115 16.6895 44.5043 17.0358 44.3744 17.4688C44.2507 17.9017 44.1888 18.3748 44.1888 18.8882V19.083ZM52.691 18.8882C52.691 17.911 52.8765 17.0389 53.2476 16.272C53.6187 15.4989 54.1599 14.8896 54.8711 14.4443C55.5824 13.999 56.4452 13.7764 57.4595 13.7764C58.4862 13.7764 59.3552 13.999 60.0664 14.4443C60.7839 14.8896 61.3251 15.4989 61.69 16.272C62.0611 17.0389 62.2466 17.911 62.2466 18.8882V19.083C62.2466 20.054 62.0611 20.9261 61.69 21.6992C61.3251 22.4661 60.787 23.0723 60.0757 23.5176C59.3645 23.9629 58.4986 24.1855 57.4781 24.1855C56.4576 24.1855 55.5886 23.9629 54.8711 23.5176C54.1599 23.0723 53.6187 22.4661 53.2476 21.6992C52.8765 20.9261 52.691 20.054 52.691 19.083V18.8882ZM55.502 19.083C55.502 19.6087 55.5638 20.0881 55.6875 20.521C55.8112 20.9539 56.0184 21.2972 56.3091 21.5508C56.5998 21.8044 56.9895 21.9312 57.4781 21.9312C58.2017 21.9312 58.7089 21.6559 58.9995 21.1055C59.2964 20.5488 59.4449 19.8747 59.4449 19.083V18.8882C59.4449 18.3748 59.3799 17.9017 59.25 17.4688C59.1263 17.0358 58.9191 16.6895 58.6285 16.4297C58.344 16.1637 57.9543 16.0308 57.4595 16.0308C56.9771 16.0308 56.5936 16.1637 56.3091 16.4297C56.0246 16.6895 55.8174 17.0358 55.6875 17.4688C55.5638 17.9017 55.502 18.3748 55.502 18.8882V19.083ZM73.532 19.0645C73.532 20.0726 73.3897 20.9601 73.1052 21.7271C72.8207 22.494 72.3877 23.097 71.8064 23.5361C71.2312 23.9691 70.5075 24.1855 69.6355 24.1855C69.0665 24.1855 68.5717 24.0773 68.1511 23.8608C67.7305 23.6382 67.3687 23.332 67.0656 22.9424L66.9358 24H64.4216V9.75H67.2234V14.8247C67.514 14.4969 67.8542 14.2402 68.2439 14.0547C68.6397 13.8691 69.0974 13.7764 69.6169 13.7764C70.4952 13.7764 71.225 13.9959 71.8064 14.4351C72.3877 14.8742 72.8207 15.4772 73.1052 16.2441C73.3897 17.0111 73.532 17.8862 73.532 18.8696V19.0645ZM70.7302 18.8696C70.7302 18.3625 70.6807 17.8955 70.5818 17.4688C70.4828 17.0358 70.3003 16.6925 70.0344 16.439C69.7746 16.1792 69.3973 16.0493 68.9026 16.0493C68.4758 16.0493 68.1264 16.1359 67.8542 16.3091C67.5821 16.4761 67.3718 16.7111 67.2234 17.0142V20.9385C67.3718 21.2539 67.5821 21.4982 67.8542 21.6714C68.1325 21.8384 68.4882 21.9219 68.9211 21.9219C69.4159 21.9219 69.7932 21.8013 70.0529 21.5601C70.3127 21.3127 70.489 20.9756 70.5818 20.5488C70.6807 20.1159 70.7302 19.6211 70.7302 19.0645V18.8696ZM81.2919 13.9619H84.2885L80.2807 25.5029C80.1631 25.8369 79.9869 26.2018 79.7519 26.5977C79.523 26.9997 79.1921 27.3429 78.7592 27.6274C78.3324 27.9119 77.7603 28.0542 77.0429 28.0542C76.7831 28.0542 76.5728 28.0387 76.412 28.0078C76.2512 27.9831 76.0564 27.9398 75.8275 27.8779V25.7627C75.9574 25.7689 76.0935 25.772 76.2357 25.772C76.7553 25.772 77.1356 25.6885 77.3769 25.5215C77.6242 25.3607 77.8098 25.1071 77.9335 24.7607L78.2118 24.0371L74.705 13.9619H77.7201L79.5014 20.0107L81.2919 13.9619ZM91.2784 19.3428H85.981V17.0791H91.2784V19.3428ZM94.2141 24V10.4922H98.4168C99.6352 10.4922 100.708 10.7643 101.636 11.3086C102.57 11.8529 103.3 12.6105 103.825 13.5815C104.351 14.5526 104.614 15.6782 104.614 16.9585V17.5337C104.614 18.8201 104.351 19.9489 103.825 20.9199C103.306 21.891 102.579 22.6486 101.645 23.1929C100.711 23.731 99.629 24 98.3982 24H94.2141ZM98.4168 12.8486H97.1365V21.6528H98.3982C99.4682 21.6528 100.278 21.3003 100.829 20.5952C101.386 19.8901 101.664 18.8696 101.664 17.5337V16.9399C101.664 15.5978 101.386 14.5804 100.829 13.8877C100.278 13.195 99.4744 12.8486 98.4168 12.8486ZM106.548 18.8882C106.548 17.911 106.733 17.0389 107.104 16.272C107.476 15.4989 108.017 14.8896 108.728 14.4443C109.439 13.999 110.302 13.7764 111.316 13.7764C112.343 13.7764 113.212 13.999 113.923 14.4443C114.641 14.8896 115.182 15.4989 115.547 16.272C115.918 17.0389 116.103 17.911 116.103 18.8882V19.083C116.103 20.054 115.918 20.9261 115.547 21.6992C115.182 22.4661 114.644 23.0723 113.933 23.5176C113.221 23.9629 112.355 24.1855 111.335 24.1855C110.314 24.1855 109.445 23.9629 108.728 23.5176C108.017 23.0723 107.476 22.4661 107.104 21.6992C106.733 20.9261 106.548 20.054 106.548 19.083V18.8882ZM109.359 19.083C109.359 19.6087 109.421 20.0881 109.544 20.521C109.668 20.9539 109.875 21.2972 110.166 21.5508C110.457 21.8044 110.846 21.9312 111.335 21.9312C112.059 21.9312 112.566 21.6559 112.856 21.1055C113.153 20.5488 113.302 19.8747 113.302 19.083V18.8882C113.302 18.3748 113.237 17.9017 113.107 17.4688C112.983 17.0358 112.776 16.6895 112.485 16.4297C112.201 16.1637 111.811 16.0308 111.316 16.0308C110.834 16.0308 110.45 16.1637 110.166 16.4297C109.881 16.6895 109.674 17.0358 109.544 17.4688C109.421 17.9017 109.359 18.3748 109.359 18.8882V19.083ZM117.861 18.8882C117.861 17.911 118.047 17.0389 118.418 16.272C118.789 15.4989 119.33 14.8896 120.041 14.4443C120.752 13.999 121.615 13.7764 122.63 13.7764C123.656 13.7764 124.525 13.999 125.236 14.4443C125.954 14.8896 126.495 15.4989 126.86 16.272C127.231 17.0389 127.417 17.911 127.417 18.8882V19.083C127.417 20.054 127.231 20.9261 126.86 21.6992C126.495 22.4661 125.957 23.0723 125.246 23.5176C124.534 23.9629 123.669 24.1855 122.648 24.1855C121.628 24.1855 120.759 23.9629 120.041 23.5176C119.33 23.0723 118.789 22.4661 118.418 21.6992C118.047 20.9261 117.861 20.054 117.861 19.083V18.8882ZM120.672 19.083C120.672 19.6087 120.734 20.0881 120.858 20.521C120.981 20.9539 121.188 21.2972 121.479 21.5508C121.77 21.8044 122.159 21.9312 122.648 21.9312C123.372 21.9312 123.879 21.6559 124.17 21.1055C124.466 20.5488 124.615 19.8747 124.615 19.083V18.8882C124.615 18.3748 124.55 17.9017 124.42 17.4688C124.296 17.0358 124.089 16.6895 123.798 16.4297C123.514 16.1637 123.124 16.0308 122.63 16.0308C122.147 16.0308 121.764 16.1637 121.479 16.4297C121.195 16.6895 120.987 17.0358 120.858 17.4688C120.734 17.9017 120.672 18.3748 120.672 18.8882V19.083Z" fill="#38C9AC"/>
</svg>
