<svg width="22" height="22" viewBox="0 0 22 22" fill="none" xmlns="http://www.w3.org/2000/svg">
<path d="M11 0C8.86247 0.00405773 6.77224 0.629092 4.98392 1.79897C3.19561 2.96885 1.78639 4.63308 0.927904 6.58896C0.0694237 8.54483 -0.201262 10.7079 0.148818 12.8148C0.498898 14.9216 1.45463 16.8813 2.89961 18.4551C3.93164 19.5728 5.18419 20.4648 6.57833 21.0749C7.97248 21.685 9.47799 22 11 22C12.522 22 14.0275 21.685 15.4217 21.0749C16.8158 20.4648 18.0684 19.5728 19.1004 18.4551C20.5454 16.8813 21.5011 14.9216 21.8512 12.8148C22.2013 10.7079 21.9306 8.54483 21.0721 6.58896C20.2136 4.63308 18.8044 2.96885 17.0161 1.79897C15.2278 0.629092 13.1375 0.00405773 11 0ZM11 19.8205C8.71698 19.817 6.52431 18.9289 4.88338 17.3429C5.38158 16.1312 6.22907 15.0947 7.31819 14.3653C8.4073 13.6359 9.68885 13.2465 11 13.2465C12.3112 13.2465 13.5927 13.6359 14.6818 14.3653C15.7709 15.0947 16.6184 16.1312 17.1166 17.3429C15.4757 18.9289 13.283 19.817 11 19.8205ZM8.79581 8.8091C8.79581 8.37354 8.92509 7.94775 9.16729 7.58559C9.40948 7.22342 9.75373 6.94115 10.1565 6.77447C10.5593 6.60778 11.0024 6.56417 11.43 6.64915C11.8576 6.73412 12.2503 6.94387 12.5586 7.25186C12.8669 7.55986 13.0768 7.95226 13.1618 8.37946C13.2469 8.80666 13.2032 9.24947 13.0364 9.65188C12.8696 10.0543 12.5871 10.3982 12.2246 10.6402C11.8621 10.8822 11.4359 11.0114 11 11.0114C10.4154 11.0114 9.85477 10.7794 9.4414 10.3663C9.02804 9.95334 8.79581 9.39319 8.79581 8.8091ZM18.6155 15.4159C17.6308 13.7331 16.1153 12.4242 14.3063 11.6941C14.8674 11.0584 15.2331 10.2743 15.3593 9.43613C15.4855 8.59793 15.367 7.74113 15.018 6.96855C14.6689 6.19597 14.1041 5.54044 13.3914 5.08061C12.6787 4.62079 11.8484 4.3762 11 4.3762C10.1516 4.3762 9.32126 4.62079 8.60856 5.08061C7.89586 5.54044 7.3311 6.19597 6.98204 6.96855C6.63299 7.74113 6.51447 8.59793 6.6407 9.43613C6.76694 10.2743 7.13257 11.0584 7.69372 11.6941C5.88474 12.4242 4.36922 13.7331 3.38454 15.4159C2.59978 14.0804 2.18515 12.5601 2.18325 11.0114C2.18325 8.67506 3.11216 6.43443 4.76562 4.7824C6.41908 3.13038 8.66165 2.20228 11 2.20228C13.3383 2.20228 15.5809 3.13038 17.2344 4.7824C18.8878 6.43443 19.8167 8.67506 19.8167 11.0114C19.8149 12.5601 19.4002 14.0804 18.6155 15.4159Z" fill="#7E8089"/>
</svg>
