<svg width="145" height="40" viewBox="0 0 145 40" fill="none" xmlns="http://www.w3.org/2000/svg">
<path d="M30.6075 17.616C30.0403 18.1864 29.6059 18.8747 29.3352 19.6321C29.0646 20.3895 28.9644 21.1971 29.0418 21.9976L29.0149 21.9707C29.0945 22.9129 28.9674 23.8611 28.6424 24.7492C28.3175 25.6372 27.8025 26.4437 27.1335 27.1123C26.4644 27.7809 25.6575 28.2956 24.7689 28.6203C23.8803 28.9451 22.9315 29.0721 21.9887 28.9926L22.0156 29.0195C20.8879 28.9146 19.7552 29.1599 18.772 29.7219C17.7888 30.2839 17.003 31.1353 16.5218 32.16C16.0405 33.1846 15.8871 34.3327 16.0826 35.4477C16.2782 36.5626 16.813 37.5902 17.6143 38.3902C18.4155 39.1903 19.4442 39.7239 20.56 39.9183C21.6758 40.1126 22.8244 39.9584 23.8493 39.4764C24.8742 38.9945 25.7253 38.2084 26.2868 37.2253C26.8483 36.2423 27.0927 35.11 26.9867 33.9831L27.0151 34.01C26.9355 33.0678 27.0626 32.1195 27.3876 31.2315C27.7126 30.3434 28.2275 29.537 28.8966 28.8683C29.5656 28.1997 30.3725 27.6851 31.2611 27.3603C32.1497 27.0356 33.0985 26.9085 34.0413 26.988L34.0129 26.9611C34.9341 27.0439 35.8614 26.893 36.7087 26.5223C37.556 26.1516 38.296 25.5731 38.86 24.8405C39.4241 24.1079 39.794 23.2448 39.9354 22.3313C40.0768 21.4178 39.9852 20.4833 39.6691 19.6146C39.3529 18.7459 38.8225 17.971 38.1269 17.3617C37.4313 16.7524 36.593 16.3285 35.6898 16.1292C34.7866 15.9299 33.8477 15.9616 32.9601 16.2215C32.0724 16.4814 31.2648 16.9611 30.612 17.616H30.6075Z" fill="#141518"/>
<path d="M19.5228 24.9833L19.4936 24.9564C20.3163 25.0371 21.1471 24.9388 21.926 24.6685C22.7049 24.3982 23.4124 23.9628 23.9973 23.3936C24.5822 22.8245 25.0299 22.1359 25.308 21.3776C25.5861 20.6193 25.6877 19.8103 25.6055 19.0091L25.6347 19.0361C25.553 18.0935 25.6835 17.1449 26.0171 16.2565C26.3507 15.3681 26.8794 14.5613 27.5663 13.8924C28.2532 13.2235 29.0817 12.7086 29.994 12.3838C30.9063 12.0589 31.8804 11.9318 32.8484 12.0113L32.8192 11.9844C33.9771 12.0903 35.1404 11.8458 36.1504 11.2842C37.1604 10.7226 37.9679 9.87126 38.4628 8.84633C38.9577 7.8214 39.1158 6.67276 38.9157 5.55709C38.7155 4.44141 38.1669 3.41301 37.3445 2.61216C36.5221 1.81131 35.466 1.277 34.3203 1.08211C33.1746 0.887219 31.9951 1.04123 30.9426 1.52314C29.8901 2.00505 29.0159 2.7914 28.4392 3.77493C27.8625 4.75846 27.6113 5.89129 27.7201 7.0189L27.6924 6.99046C27.7744 7.93312 27.6441 8.88183 27.3105 9.77036C26.977 10.6589 26.4483 11.4658 25.7614 12.1347C25.0744 12.8037 24.2458 13.3185 23.3334 13.6433C22.421 13.9681 21.4467 14.095 20.4787 14.0152L20.5064 14.0436C19.6837 13.9629 18.8529 14.0612 18.074 14.3315C17.2951 14.6018 16.5876 15.0372 16.0027 15.6064C15.4178 16.1755 14.9701 16.8641 14.692 17.6224C14.4139 18.3807 14.3123 19.1897 14.3945 19.9909L14.3669 19.9639C14.4483 20.9065 14.3176 21.8549 13.9839 22.7432C13.6502 23.6315 13.1215 24.4382 12.4346 25.107C11.7478 25.7759 10.9194 26.2907 10.0072 26.6157C9.09506 26.9407 8.12105 27.068 7.15316 26.9887L7.18082 27.0156C6.02288 26.9097 4.85958 27.1542 3.84959 27.7158C2.8396 28.2774 2.03209 29.1287 1.53722 30.1537C1.04234 31.1786 0.884184 32.3272 1.08432 33.4429C1.28446 34.5586 1.83314 35.587 2.65554 36.3878C3.47793 37.1887 4.53399 37.723 5.67969 37.9179C6.82538 38.1128 8.00492 37.9588 9.05742 37.4769C10.1099 36.9949 10.9841 36.2086 11.5608 35.2251C12.1375 34.2415 12.3887 33.1087 12.2799 31.9811L12.3091 32.008C12.2274 31.0654 12.3579 30.1168 12.6915 29.2284C13.0252 28.34 13.5539 27.5332 14.2408 26.8643C14.9276 26.1955 15.7561 25.6806 16.6684 25.3557C17.5808 25.0308 18.5549 24.9037 19.5228 24.9833Z" fill="#141518"/>
<path d="M9.38673 22.3837C9.95417 21.8133 10.3886 21.1248 10.6591 20.3673C10.9295 19.6098 11.0293 18.802 10.9512 18.0015L10.9797 18.0284C10.9 17.0858 11.0272 16.1372 11.3524 15.2488C11.6776 14.3604 12.1929 13.5536 12.8624 12.8849C13.5319 12.2161 14.3394 11.7015 15.2285 11.3769C16.1176 11.0523 17.0669 10.9255 18.0101 11.0055L17.9817 10.9786C19.1093 11.0842 20.2421 10.8396 21.2256 10.2782C22.209 9.71678 22.9953 8.86589 23.4771 7.84156C23.9589 6.81722 24.1128 5.6693 23.9178 4.55434C23.7229 3.43937 23.1885 2.41164 22.3877 1.6113C21.5868 0.810954 20.5584 0.276953 19.4427 0.0821205C18.327 -0.112712 17.1783 0.0411067 16.1533 0.5226C15.1283 1.00409 14.2769 1.78982 13.7151 2.77263C13.1533 3.75545 12.9086 4.88751 13.0142 6.01443L12.9873 5.9875C13.0669 6.92984 12.9397 7.8782 12.6147 8.76637C12.2897 9.65454 11.7747 10.4611 11.1055 11.1298C10.4364 11.7985 9.62926 12.3133 8.74052 12.6381C7.85177 12.9629 6.9028 13.0899 5.95985 13.0104L5.98679 13.0373C5.06543 12.9547 4.13811 13.1059 3.29077 13.4768C2.44344 13.8478 1.7035 14.4264 1.13952 15.1592C0.575542 15.892 0.205775 16.7552 0.0644844 17.6688C-0.0768061 18.5824 0.0149505 19.5169 0.331252 20.3856C0.647554 21.2544 1.17817 22.0293 1.87392 22.6385C2.56967 23.2478 3.40806 23.6717 4.31138 23.8709C5.2147 24.0702 6.15373 24.0383 7.04146 23.7783C7.92919 23.5184 8.7369 23.0387 9.38973 22.3837H9.38673Z" fill="#141518"/>
<path d="M46 12H48.97V26.453H46V12Z" fill="#141518"/>
<path d="M50.652 21.5043C50.6478 20.4657 50.952 19.4492 51.526 18.5836C52.1001 17.7179 52.9181 17.0421 53.8765 16.6418C54.8349 16.2414 55.8905 16.1345 56.9097 16.3346C57.9289 16.5347 58.8658 17.0327 59.6017 17.7657C60.3376 18.4987 60.8394 19.4336 61.0436 20.4519C61.2477 21.4703 61.1451 22.5264 60.7486 23.4864C60.3521 24.4464 59.6796 25.2671 58.8162 25.8446C57.9529 26.4221 56.9376 26.7303 55.899 26.7303C55.2095 26.7382 54.5254 26.6085 53.8867 26.349C53.2479 26.0894 52.6673 25.7051 52.1787 25.2185C51.6902 24.7319 51.3036 24.1528 51.0414 23.5151C50.7793 22.8774 50.6469 22.1938 50.652 21.5043ZM58.176 21.5043C58.1636 21.0566 58.0195 20.6225 57.7618 20.2563C57.504 19.89 57.144 19.6079 56.7267 19.4451C56.3095 19.2823 55.8535 19.2462 55.4159 19.3411C54.9782 19.4361 54.5782 19.658 54.2659 19.979C53.9536 20.3001 53.7429 20.706 53.6601 21.1462C53.5773 21.5863 53.6261 22.0411 53.8004 22.4537C53.9746 22.8663 54.2667 23.2183 54.6399 23.4658C55.0132 23.7134 55.4511 23.8454 55.899 23.8453C56.2057 23.8535 56.5108 23.7981 56.795 23.6825C57.0793 23.5669 57.3364 23.3936 57.5504 23.1737C57.7643 22.9537 57.9304 22.6919 58.038 22.4045C58.1457 22.1172 58.1927 21.8107 58.176 21.5043Z" fill="#141518"/>
<path d="M72.983 16.554V25.954C72.983 29.28 70.389 30.686 67.756 30.686C66.8289 30.7554 65.9007 30.5682 65.073 30.1448C64.2453 29.7215 63.5503 29.0784 63.064 28.286L65.598 26.821C65.8024 27.234 66.128 27.5748 66.5314 27.7976C66.9347 28.0205 67.3965 28.1148 67.855 28.068C68.148 28.1086 68.4463 28.0828 68.728 27.9925C69.0097 27.9023 69.2675 27.7498 69.4823 27.5464C69.6971 27.3431 69.8634 27.094 69.9689 26.8177C70.0744 26.5413 70.1165 26.2448 70.092 25.95V25.045C69.7442 25.4706 69.3015 25.8087 68.7994 26.0322C68.2974 26.2557 67.7499 26.3584 67.201 26.332C65.8948 26.2908 64.6559 25.743 63.7465 24.8045C62.8371 23.8659 62.3286 22.6104 62.3286 21.3035C62.3286 19.9967 62.8371 18.7411 63.7465 17.8026C64.6559 16.8641 65.8948 16.3162 67.201 16.275C67.7499 16.2487 68.2974 16.3514 68.7994 16.5749C69.3015 16.7984 69.7442 17.1365 70.092 17.562V16.552L72.983 16.554ZM70.093 21.305C70.1129 20.8264 69.9892 20.3527 69.7377 19.945C69.4862 19.5373 69.1184 19.2142 68.6817 19.0172C68.245 18.8203 67.7593 18.7585 67.2872 18.8399C66.8151 18.9214 66.3782 19.1422 66.0327 19.474C65.6871 19.8058 65.4488 20.2335 65.3484 20.7019C65.248 21.1703 65.29 21.658 65.4691 22.1024C65.6482 22.5467 65.9562 22.9272 66.3534 23.195C66.7506 23.4628 67.2189 23.6056 67.698 23.605C68.01 23.6268 68.3232 23.583 68.6173 23.4764C68.9114 23.3698 69.1799 23.2028 69.4055 22.9861C69.6311 22.7694 69.8088 22.5079 69.9272 22.2184C70.0457 21.9288 70.1021 21.6177 70.093 21.305Z" fill="#141518"/>
<path d="M74.665 21.5043C74.6608 20.4657 74.965 19.4492 75.539 18.5836C76.1131 17.7179 76.9311 17.0421 77.8895 16.6418C78.8479 16.2414 79.9035 16.1345 80.9227 16.3346C81.9419 16.5347 82.8788 17.0327 83.6147 17.7657C84.3506 18.4987 84.8524 19.4336 85.0566 20.4519C85.2607 21.4703 85.1581 22.5264 84.7616 23.4864C84.3651 24.4464 83.6926 25.2671 82.8292 25.8446C81.9659 26.4221 80.9506 26.7303 79.912 26.7303C79.2225 26.7382 78.5384 26.6085 77.8997 26.349C77.2609 26.0894 76.6803 25.7051 76.1917 25.2185C75.7032 24.7319 75.3166 24.1528 75.0544 23.5151C74.7923 22.8774 74.6599 22.1938 74.665 21.5043ZM82.189 21.5043C82.1766 21.0566 82.0325 20.6225 81.7748 20.2563C81.517 19.89 81.157 19.6079 80.7397 19.4451C80.3225 19.2823 79.8665 19.2462 79.4288 19.3411C78.9912 19.4361 78.5912 19.658 78.2789 19.979C77.9666 20.3001 77.7559 20.706 77.6731 21.1462C77.5903 21.5863 77.6391 22.0411 77.8134 22.4537C77.9876 22.8663 78.2797 23.2183 78.6529 23.4658C79.0262 23.7134 79.4641 23.8454 79.912 23.8453C80.2187 23.8535 80.5238 23.7981 80.808 23.6825C81.0923 23.5669 81.3494 23.3936 81.5634 23.1737C81.7773 22.9537 81.9434 22.6919 82.051 22.4045C82.1587 22.1172 82.2057 21.8107 82.189 21.5043Z" fill="#141518"/>
<path d="M86.544 13.9011C86.544 13.5487 86.6485 13.2042 86.8443 12.9111C87.0401 12.6181 87.3184 12.3897 87.644 12.2548C87.9697 12.1199 88.328 12.0846 88.6736 12.1534C89.0193 12.2221 89.3368 12.3919 89.586 12.6411C89.8353 12.8903 90.005 13.2078 90.0737 13.5535C90.1425 13.8992 90.1072 14.2575 89.9723 14.5831C89.8375 14.9087 89.6091 15.187 89.316 15.3828C89.023 15.5786 88.6784 15.6831 88.326 15.6831C87.8548 15.6785 87.4043 15.4892 87.0711 15.156C86.7379 14.8228 86.5487 14.3723 86.544 13.9011ZM86.844 16.5541H89.815V26.4541H86.84L86.844 16.5541Z" fill="#141518"/>
<path d="M102.639 21.504C102.673 22.1583 102.578 22.8129 102.358 23.4302C102.139 24.0475 101.799 24.6153 101.36 25.101C100.92 25.5866 100.388 25.9806 99.7959 26.2602C99.2034 26.5397 98.5614 26.6994 97.907 26.73C97.3566 26.76 96.8064 26.6672 96.2964 26.4583C95.7863 26.2493 95.3291 25.9295 94.958 25.522V30.413H91.988V16.554H94.958V17.484C95.3293 17.0768 95.7865 16.7572 96.2966 16.5485C96.8066 16.3397 97.3567 16.247 97.907 16.277C98.5616 16.3075 99.2037 16.4671 99.7964 16.7467C100.389 17.0263 100.921 17.4203 101.36 17.9061C101.8 18.3919 102.14 18.9599 102.359 19.5774C102.578 20.1948 102.674 20.8496 102.639 21.504ZM99.669 21.504C99.6574 21.0407 99.5094 20.5911 99.2435 20.2114C98.9776 19.8318 98.6057 19.539 98.1742 19.3698C97.7428 19.2005 97.271 19.1622 96.8179 19.2598C96.3648 19.3573 95.9505 19.5863 95.6269 19.9181C95.3034 20.25 95.0849 20.6699 94.9987 21.1253C94.9126 21.5807 94.9627 22.0513 95.1428 22.4784C95.3229 22.9055 95.6249 23.2699 96.0111 23.5262C96.3973 23.7824 96.8505 23.9191 97.314 23.919C97.6322 23.9332 97.9497 23.8799 98.2459 23.7627C98.5421 23.6456 98.8101 23.4671 99.0325 23.2391C99.2548 23.011 99.4265 22.7386 99.5362 22.4396C99.6459 22.1406 99.6911 21.8217 99.669 21.504Z" fill="#141518"/>
<path d="M111.804 23.4831C111.804 25.7601 109.825 26.7301 107.687 26.7301C106.823 26.8083 105.956 26.6256 105.197 26.2056C104.438 25.7856 103.822 25.1476 103.43 24.3741L106.003 22.9091C106.107 23.2666 106.331 23.5776 106.636 23.7902C106.942 24.0028 107.312 24.104 107.683 24.0771C108.395 24.0771 108.752 23.8591 108.752 23.4641C108.752 22.3741 103.881 22.9491 103.881 19.5241C103.881 17.3651 105.703 16.2771 107.762 16.2771C108.536 16.2526 109.302 16.4362 109.981 16.8087C110.66 17.1812 111.227 17.729 111.622 18.3951L109.088 19.7611C108.977 19.5018 108.792 19.2809 108.556 19.126C108.32 18.9711 108.044 18.8891 107.762 18.8901C107.247 18.8901 106.93 19.0901 106.93 19.4441C106.934 20.5731 111.804 19.8201 111.804 23.4831Z" fill="#141518"/>
<path d="M122.653 16.5542V26.4542H119.683V25.5232C119.34 25.934 118.905 26.2577 118.413 26.4677C117.921 26.6777 117.387 26.768 116.853 26.7312C114.853 26.7312 113.153 25.3062 113.153 22.6312V16.5542H116.123V22.1962C116.098 22.432 116.125 22.6704 116.202 22.8947C116.278 23.1191 116.403 23.324 116.567 23.4954C116.731 23.6667 116.93 23.8002 117.151 23.8867C117.371 23.9732 117.608 24.0106 117.845 23.9962C118.934 23.9962 119.686 23.3632 119.686 21.9572V16.5572L122.653 16.5542Z" fill="#141518"/>
<path d="M139.683 20.375V26.453H136.713V20.632C136.713 19.642 136.238 19.009 135.288 19.009C134.298 19.009 133.743 19.702 133.743 20.87V26.453H130.774V20.632C130.774 19.642 130.299 19.009 129.348 19.009C128.358 19.009 127.804 19.702 127.804 20.87V26.453H124.834V16.553H127.804V17.463C128.112 17.0592 128.516 16.7391 128.979 16.5317C129.443 16.3244 129.951 16.2364 130.457 16.276C130.965 16.2511 131.471 16.3583 131.926 16.5872C132.38 16.8161 132.767 17.1588 133.05 17.582C133.379 17.1393 133.815 16.7873 134.317 16.5589C134.819 16.3305 135.371 16.2331 135.921 16.276C138.194 16.277 139.683 17.9 139.683 20.375Z" fill="#141518"/>
<path d="M142.195 16.493C143.412 16.493 144.399 15.5062 144.399 14.289C144.399 13.0717 143.412 12.085 142.195 12.085C140.978 12.085 139.991 13.0717 139.991 14.289C139.991 15.5062 140.978 16.493 142.195 16.493Z" fill="#141518"/>
</svg>
