<svg width="19" height="22" viewBox="0 0 19 22" fill="none" xmlns="http://www.w3.org/2000/svg">
<path d="M9.5 12.0848C10.0534 12.0848 10.5944 11.9234 11.0546 11.621C11.5148 11.3186 11.8734 10.8888 12.0852 10.3859C12.297 9.88306 12.3524 9.32972 12.2445 8.79588C12.1365 8.26204 11.87 7.77168 11.4786 7.38681C11.0873 7.00193 10.5887 6.73983 10.0459 6.63364C9.5031 6.52745 8.94047 6.58195 8.42916 6.79024C7.91785 6.99854 7.48083 7.35127 7.17336 7.80384C6.86588 8.2564 6.70177 8.78847 6.70177 9.33277C6.70177 10.0626 6.99658 10.7626 7.52135 11.2787C8.04612 11.7948 8.75786 12.0848 9.5 12.0848ZM8.50663 21.593C8.63669 21.7219 8.79144 21.8243 8.96193 21.8942C9.13243 21.964 9.3153 22 9.5 22C9.6847 22 9.86757 21.964 10.0381 21.8942C10.2086 21.8243 10.3633 21.7219 10.4934 21.593L16.2158 15.9514C17.5448 14.6449 18.4501 12.9801 18.8171 11.1676C19.1841 9.3551 18.9962 7.47627 18.2773 5.76876C17.5584 4.06126 16.3408 2.60178 14.7784 1.57493C13.2161 0.548085 11.3791 0 9.5 0C7.62087 0 5.78394 0.548085 4.22157 1.57493C2.65919 2.60178 1.44156 4.06126 0.722673 5.76876C0.00378718 7.47627 -0.184054 9.3551 0.182908 11.1676C0.54987 12.9801 1.45515 14.6449 2.78424 15.9514L8.50663 21.593ZM2.82622 8.69981C2.92181 7.71874 3.23898 6.77105 3.75457 5.92594C4.27015 5.08083 4.97113 4.35962 5.80633 3.81499C6.90353 3.10648 8.18744 2.72899 9.5 2.72899C10.8126 2.72899 12.0965 3.10648 13.1937 3.81499C14.0233 4.35775 14.7203 5.07458 15.2346 5.91393C15.7489 6.75327 16.0677 7.69426 16.168 8.66924C16.2683 9.64422 16.1477 10.629 15.8149 11.5526C15.482 12.4763 14.9452 13.3159 14.243 14.0112L9.5 18.6758L4.757 14.0112C4.05397 13.3227 3.51588 12.4887 3.18188 11.5699C2.84788 10.6511 2.72638 9.67061 2.82622 8.69981Z" fill="#7E8089"/>
</svg>
