<svg width="22" height="25" viewBox="0 0 22 25" fill="none" xmlns="http://www.w3.org/2000/svg">
<path d="M21.4937 12.9863C21.4931 12.7852 21.4368 12.5881 21.3311 12.4169C21.2253 12.2458 21.0742 12.1073 20.8946 12.0168L14.2273 8.68312V4.32543C14.2273 3.88479 14.1405 3.44846 13.9719 3.04136C13.8032 2.63426 13.5561 2.26436 13.2445 1.95278C12.9329 1.6412 12.563 1.39404 12.1559 1.22542C11.7488 1.05679 11.3125 0.970001 10.8719 0.970001C10.4312 0.970001 9.99489 1.05679 9.58779 1.22542C9.18069 1.39404 8.81079 1.6412 8.49921 1.95278C8.18763 2.26436 7.94047 2.63426 7.77185 3.04136C7.60322 3.44846 7.51643 3.88479 7.51643 4.32543V8.68312L0.84916 12.0168C0.669498 12.1073 0.518414 12.2458 0.412653 12.4169C0.306892 12.5881 0.250587 12.7852 0.249977 12.9863V16.6141C0.248498 16.7916 0.290403 16.9667 0.372045 17.1243C0.453688 17.2819 0.572597 17.4172 0.718429 17.5183C0.863431 17.6177 1.03032 17.6805 1.20485 17.7013C1.37938 17.7222 1.55636 17.7005 1.7207 17.6382L7.51643 15.4593V19.5229L5.53368 20.1765C5.3173 20.2496 5.12936 20.3889 4.99642 20.5746C4.86349 20.7603 4.79228 20.9831 4.79287 21.2115V23.8806C4.79347 24.0247 4.82267 24.1673 4.87877 24.3001C4.93487 24.4329 5.01676 24.5532 5.1197 24.6541C5.32262 24.8553 5.5965 24.9688 5.8823 24.97H15.8723C16.1612 24.97 16.4383 24.8552 16.6427 24.6509C16.847 24.4466 16.9617 24.1695 16.9617 23.8806V21.157C16.9623 20.9286 16.8911 20.7058 16.7582 20.5201C16.6252 20.3344 16.4373 20.1952 16.2209 20.1221L14.2273 19.5229V15.4702L20.023 17.6491C20.1873 17.7114 20.3643 17.7331 20.5389 17.7122C20.7134 17.6914 20.8803 17.6286 21.0253 17.5292C21.1711 17.4281 21.29 17.2928 21.3717 17.1352C21.4533 16.9776 21.4952 16.8025 21.4937 16.625V12.9863ZM13.53 12.8774C13.3642 12.8132 13.1852 12.7905 13.0086 12.8114C12.832 12.8323 12.6632 12.8961 12.5169 12.9972C12.3726 13.0974 12.2546 13.2309 12.173 13.3864C12.0915 13.542 12.0487 13.7149 12.0484 13.8906V20.2528C12.0486 20.4825 12.1214 20.7063 12.2564 20.8922C12.3914 21.0781 12.5817 21.2165 12.8001 21.2878L14.772 21.9414V22.7912H6.96083V21.9414L8.93268 21.2878C9.1511 21.2165 9.34141 21.0781 9.47642 20.8922C9.61143 20.7063 9.68421 20.4825 9.68438 20.2528V13.8906C9.6841 13.7149 9.64135 13.542 9.55978 13.3864C9.47821 13.2309 9.36024 13.0974 9.21593 12.9972C9.06966 12.8961 8.90085 12.8323 8.72425 12.8114C8.54764 12.7905 8.3686 12.8132 8.20277 12.8774L2.41793 15.0562V13.6618L9.07431 10.3281C9.256 10.2391 9.40932 10.1013 9.51707 9.93002C9.62483 9.75876 9.68276 9.56089 9.68438 9.35856V4.35811C9.68438 4.04606 9.80834 3.74679 10.029 3.52614C10.2496 3.30549 10.5489 3.18153 10.861 3.18153C11.173 3.18153 11.4723 3.30549 11.6929 3.52614C11.9136 3.74679 12.0375 4.04606 12.0375 4.35811V9.35856C12.0392 9.56089 12.0971 9.75876 12.2048 9.93002C12.3126 10.1013 12.4659 10.2391 12.6476 10.3281L19.304 13.6618V15.0454L13.53 12.8774Z" fill="#7E8089"/>
</svg>
