<svg width="18" height="22" viewBox="0 0 18 22" fill="none" xmlns="http://www.w3.org/2000/svg">
<path d="M16.875 5.5H13.5V4.4C13.5 3.23305 13.0259 2.11389 12.182 1.28873C11.3381 0.46357 10.1935 0 9 0C7.80653 0 6.66193 0.46357 5.81802 1.28873C4.97411 2.11389 4.5 3.23305 4.5 4.4V5.5H1.125C0.826631 5.5 0.540483 5.61589 0.329505 5.82218C0.118527 6.02847 0 6.30826 0 6.6V18.7C0 19.5752 0.355579 20.4146 0.988515 21.0335C1.62145 21.6523 2.47989 22 3.375 22H14.625C15.5201 22 16.3786 21.6523 17.0115 21.0335C17.6444 20.4146 18 19.5752 18 18.7V6.6C18 6.30826 17.8815 6.02847 17.6705 5.82218C17.4595 5.61589 17.1734 5.5 16.875 5.5ZM6.75 4.4C6.75 3.81652 6.98705 3.25695 7.40901 2.84437C7.83097 2.43179 8.40326 2.2 9 2.2C9.59674 2.2 10.169 2.43179 10.591 2.84437C11.0129 3.25695 11.25 3.81652 11.25 4.4V5.5H6.75V4.4ZM15.75 18.7C15.75 18.9917 15.6315 19.2715 15.4205 19.4778C15.2095 19.6841 14.9234 19.8 14.625 19.8H3.375C3.07663 19.8 2.79048 19.6841 2.5795 19.4778C2.36853 19.2715 2.25 18.9917 2.25 18.7V7.7H4.5V8.8C4.5 9.09174 4.61853 9.37153 4.8295 9.57782C5.04048 9.78411 5.32663 9.9 5.625 9.9C5.92337 9.9 6.20952 9.78411 6.4205 9.57782C6.63147 9.37153 6.75 9.09174 6.75 8.8V7.7H11.25V8.8C11.25 9.09174 11.3685 9.37153 11.5795 9.57782C11.7905 9.78411 12.0766 9.9 12.375 9.9C12.6734 9.9 12.9595 9.78411 13.1705 9.57782C13.3815 9.37153 13.5 9.09174 13.5 8.8V7.7H15.75V18.7Z" fill="#7E8089"/>
</svg>
