<svg width="22" height="22" viewBox="0 0 22 22" fill="none" xmlns="http://www.w3.org/2000/svg">
<path d="M19.2732 12.135C19.0303 12.135 18.7764 12.0575 18.5335 12.0022C18.0417 11.8935 17.5584 11.7492 17.0873 11.5704C16.5752 11.3835 16.0122 11.3932 15.5068 11.5976C15.0014 11.802 14.5892 12.1867 14.3495 12.6775L14.1066 13.1758C13.0314 12.5759 12.0433 11.8308 11.1701 10.9614C10.3032 10.0857 9.56031 9.09472 8.96216 8.01633L9.42582 7.70632C9.91528 7.46597 10.2988 7.05256 10.5026 6.54565C10.7064 6.03874 10.7161 5.47415 10.5298 4.96051C10.3545 4.48711 10.2107 4.00258 10.0992 3.51011C10.044 3.26653 9.99988 3.01188 9.96677 2.75723C9.8327 1.97735 9.42541 1.27111 8.81822 0.765677C8.21104 0.260247 7.44387 -0.0111535 6.65488 0.000351311H3.34299C2.86721 -0.00412893 2.39606 0.0942549 1.96161 0.288805C1.52715 0.483355 1.1396 0.769504 0.82532 1.12777C0.511044 1.48604 0.277428 1.90801 0.140375 2.36497C0.00332149 2.82192 -0.0339507 3.30313 0.0310956 3.77583C0.619219 8.41423 2.73142 12.7239 6.03406 16.0241C9.33671 19.3244 13.6415 21.427 18.2686 22H18.6881C19.5022 22.0012 20.2882 21.7016 20.896 21.1585C21.2453 20.8453 21.5243 20.4612 21.7146 20.0318C21.9049 19.6024 22.0021 19.1373 22 18.6674V15.3458C21.9864 14.5768 21.7072 13.8363 21.2099 13.2507C20.7126 12.6651 20.0281 12.2708 19.2732 12.135ZM19.8252 18.7781C19.825 18.9353 19.7914 19.0907 19.7267 19.2338C19.6619 19.377 19.5676 19.5047 19.4498 19.6085C19.3268 19.7159 19.1826 19.7961 19.0266 19.8438C18.8706 19.8915 18.7064 19.9056 18.5446 19.8853C14.4101 19.3536 10.5698 17.4567 7.62936 14.4936C4.68893 11.5306 2.81574 7.67015 2.30526 3.52118C2.28769 3.359 2.30309 3.19493 2.35052 3.03888C2.39796 2.88284 2.47645 2.73806 2.58125 2.61329C2.6847 2.49519 2.81205 2.40054 2.95481 2.33563C3.09757 2.27072 3.25248 2.23705 3.40922 2.23685H6.72111C6.97784 2.23112 7.22852 2.31533 7.43002 2.47497C7.63151 2.63462 7.77121 2.85972 7.82508 3.11152C7.86923 3.41415 7.92443 3.71309 7.99067 4.00834C8.1182 4.59198 8.28792 5.16554 8.49849 5.72447L6.95295 6.44413C6.8208 6.50494 6.70193 6.59133 6.60316 6.69834C6.5044 6.80534 6.42768 6.93086 6.37742 7.06769C6.32715 7.20451 6.30434 7.34995 6.31027 7.49564C6.31621 7.64134 6.35078 7.78442 6.412 7.91668C8.00083 11.3298 10.7365 14.0735 14.1397 15.6669C14.4085 15.7777 14.71 15.7777 14.9788 15.6669C15.1164 15.6175 15.243 15.5412 15.351 15.4424C15.459 15.3435 15.5464 15.2242 15.608 15.0912L16.2925 13.5411C16.8632 13.7458 17.4457 13.9159 18.0367 14.0505C18.3311 14.1169 18.6292 14.1722 18.9309 14.2165C19.182 14.2705 19.4065 14.4107 19.5656 14.6127C19.7248 14.8148 19.8088 15.0662 19.8031 15.3237L19.8252 18.7781Z" fill="#7E8089"/>
</svg>
