<svg width="17" height="17" viewBox="0 0 17 17" fill="none" xmlns="http://www.w3.org/2000/svg">
<path d="M4.75799 6.758C5.35133 6.758 5.93135 6.58205 6.4247 6.25241C6.91805 5.92276 7.30257 5.45423 7.52963 4.90605C7.75669 4.35787 7.8161 3.75467 7.70035 3.17273C7.58459 2.59079 7.29887 2.05624 6.87931 1.63668C6.45975 1.21712 5.9252 0.9314 5.34326 0.815644C4.76132 0.699889 4.15812 0.759299 3.60994 0.986362C3.06176 1.21342 2.59323 1.59794 2.26358 2.09129C1.93394 2.58464 1.75799 3.16466 1.75799 3.758C1.75878 4.55341 2.07511 5.31601 2.63755 5.87844C3.19998 6.44088 3.96258 6.75721 4.75799 6.758ZM4.75799 2.758C4.95577 2.758 5.14911 2.81665 5.31356 2.92653C5.47801 3.03641 5.60618 3.19259 5.68187 3.37532C5.75756 3.55804 5.77736 3.75911 5.73878 3.95309C5.70019 4.14707 5.60495 4.32525 5.4651 4.46511C5.32524 4.60496 5.14706 4.7002 4.95308 4.73879C4.7591 4.77737 4.55803 4.75757 4.37531 4.68188C4.19258 4.60619 4.0364 4.47802 3.92652 4.31357C3.81664 4.14912 3.75799 3.95578 3.75799 3.758C3.75799 3.49278 3.86335 3.23843 4.05088 3.05089C4.23842 2.86336 4.49277 2.758 4.75799 2.758ZM13.242 9.242C12.6486 9.242 12.0686 9.41795 11.5753 9.74759C11.0819 10.0772 10.6974 10.5458 10.4704 11.0939C10.2433 11.6421 10.1839 12.2453 10.2996 12.8273C10.4154 13.4092 10.7011 13.9438 11.1207 14.3633C11.5402 14.7829 12.0748 15.0686 12.6567 15.1844C13.2387 15.3001 13.8419 15.2407 14.39 15.0136C14.9382 14.7866 15.4068 14.4021 15.7364 13.9087C16.066 13.4154 16.242 12.8353 16.242 12.242C16.2412 11.4466 15.9249 10.684 15.3624 10.1216C14.8 9.55912 14.0374 9.24279 13.242 9.242ZM13.242 13.242C13.0442 13.242 12.8509 13.1834 12.6864 13.0735C12.522 12.9636 12.3938 12.8074 12.3181 12.6247C12.2424 12.442 12.2226 12.2409 12.2612 12.0469C12.2998 11.8529 12.395 11.6747 12.5349 11.5349C12.6747 11.395 12.8529 11.2998 13.0469 11.2612C13.2409 11.2226 13.4419 11.2424 13.6247 11.3181C13.8074 11.3938 13.9636 11.522 14.0735 11.6864C14.1833 11.8509 14.242 12.0442 14.242 12.242C14.242 12.5072 14.1366 12.7616 13.9491 12.9491C13.7616 13.1366 13.5072 13.242 13.242 13.242ZM16.707 0.293C16.5195 0.105529 16.2652 0.000213623 16 0.000213623C15.7348 0.000213623 15.4805 0.105529 15.293 0.293L1.29299 14.293C1.19748 14.3852 1.1213 14.4956 1.06889 14.6176C1.01648 14.7396 0.988893 14.8708 0.987739 15.0036C0.986585 15.1364 1.01189 15.2681 1.06217 15.391C1.11245 15.5138 1.1867 15.6255 1.28059 15.7194C1.37449 15.8133 1.48614 15.8875 1.60904 15.9378C1.73193 15.9881 1.86361 16.0134 1.99639 16.0123C2.12917 16.0111 2.26039 15.9835 2.38239 15.9311C2.5044 15.8787 2.61474 15.8025 2.70699 15.707L16.707 1.707C16.8945 1.51947 16.9998 1.26516 16.9998 1C16.9998 0.734836 16.8945 0.480528 16.707 0.293Z" fill="#FF5100"/>
</svg>
