<svg width="30" height="30" viewBox="0 0 30 30" fill="none" xmlns="http://www.w3.org/2000/svg">
<circle cx="15" cy="15" r="13.5" fill="#FF5100" stroke="white" stroke-width="3"/>
<path d="M19.0396 20H10.8965V18.5806L14.8311 14.3057C15.4785 13.5918 15.9212 13.0135 16.1592 12.5708C16.3971 12.1281 16.5161 11.7075 16.5161 11.3091C16.5161 10.7502 16.3612 10.2936 16.0513 9.93945C15.7469 9.57975 15.3097 9.3999 14.7397 9.3999C14.0701 9.3999 13.5666 9.61019 13.229 10.0308C12.8914 10.4458 12.7227 10.9743 12.7227 11.6162H10.6641C10.6641 10.9079 10.8245 10.2604 11.1455 9.67383C11.472 9.08724 11.9396 8.61963 12.5483 8.271C13.1626 7.92236 13.9014 7.74805 14.7646 7.74805C15.9821 7.74805 16.9229 8.04964 17.5869 8.65283C18.251 9.25602 18.583 10.0695 18.583 11.0933C18.583 11.8625 18.3478 12.6095 17.8774 13.3345C17.4071 14.0594 16.8066 14.8065 16.0762 15.5757L13.4946 18.3481H19.0396V20Z" fill="white"/>
</svg>
